# Blender 4.4.3
# www.blender.org
mtllib chair.mtl
o Cube
v -0.600000 -0.480000 0.540000
v -0.600000 0.180000 0.360000
v -0.600000 -0.480000 -0.540000
v 0.360000 -0.480000 0.540000
v 0.360000 0.180000 0.540000
v 0.360000 -0.480000 -0.540000
v 0.360000 0.180000 -0.540000
v 0.360000 0.180000 0.360000
v -0.360000 0.180000 0.360000
v 0.360000 0.180000 -0.360000
v 0.360000 -0.126191 0.360000
v -0.360000 -0.126191 0.360000
v -0.360000 -0.126191 -0.360000
v 0.360000 -0.126191 -0.360000
v -0.360000 0.420000 -0.360000
v -0.360000 0.420000 0.360000
v -0.600000 0.420000 0.360000
v -0.600000 0.180000 0.540000
v -0.600000 0.180000 -0.540000
v -0.600000 0.420000 -0.360000
v -0.600000 0.180000 -0.360000
v -0.360000 0.180000 -0.360000
v 0.194382 -0.534000 0.465620
v 0.180002 -0.474000 0.480000
v 0.194382 -0.534000 0.374379
v 0.180002 -0.474000 0.360000
v 0.285623 -0.534000 0.465620
v 0.300002 -0.474000 0.480000
v 0.285623 -0.534000 0.374379
v 0.300002 -0.474000 0.360000
v 0.194382 -0.534000 -0.374379
v 0.180002 -0.474000 -0.359999
v 0.194382 -0.534000 -0.465620
v 0.180002 -0.474000 -0.479999
v 0.285623 -0.534000 -0.374379
v 0.300002 -0.474000 -0.359999
v 0.285623 -0.534000 -0.465620
v 0.300002 -0.474000 -0.479999
v -0.505619 -0.534000 -0.374379
v -0.519999 -0.474000 -0.359999
v -0.505619 -0.534000 -0.465620
v -0.519999 -0.474000 -0.479999
v -0.414378 -0.534000 -0.374379
v -0.399998 -0.474000 -0.359999
v -0.414378 -0.534000 -0.465620
v -0.399998 -0.474000 -0.479999
v -0.505619 -0.534000 0.465620
v -0.519999 -0.474000 0.480000
v -0.505619 -0.534000 0.374379
v -0.519999 -0.474000 0.360000
v -0.414378 -0.534000 0.465620
v -0.399998 -0.474000 0.480000
v -0.414378 -0.534000 0.374379
v -0.399998 -0.474000 0.360000
vn -0.0000 1.0000 -0.0000
vn -0.0000 -0.0000 1.0000
vn -0.0000 -0.0000 -1.0000
vn 1.0000 -0.0000 -0.0000
vn -0.0000 -1.0000 -0.0000
vn -1.0000 -0.0000 -0.0000
vn -0.9725 -0.2331 -0.0000
vn -0.0000 -0.2330 -0.9725
vn 0.9725 -0.2331 -0.0000
vn -0.0000 -0.2331 0.9725
vn -0.0000 -0.2331 -0.9725
vt 0.000000 0.000000
vt 0.375000 0.000000
vt 0.625000 0.000000
vt 0.625000 0.250000
vt 0.375000 0.250000
vt 0.625000 0.500000
vt 0.375000 0.500000
vt 0.625000 0.750000
vt 0.375000 0.750000
vt 0.625000 1.000000
vt 0.375000 1.000000
vt 0.125000 0.500000
vt 0.125000 0.750000
vt 0.875000 0.500000
vt 0.875000 0.750000
s 0
f 5/1/1 8/1/1 9/1/1 2/1/1 18/1/1
f 9/1/2 16/1/2 17/1/2 2/1/2
f 19/1/3 7/1/3 6/1/3 3/1/3
f 9/1/4 22/1/4 15/1/4 16/1/4
f 22/1/4 9/1/4 12/1/4 13/1/4
f 11/1/3 12/1/3 9/1/3 8/1/3
f 14/1/2 10/1/2 22/1/2 13/1/2
f 13/1/1 12/1/1 11/1/1 14/1/1
f 4/1/4 6/1/4 7/1/4 10/1/4 14/1/4 11/1/4 8/1/4 5/1/4
f 3/1/5 6/1/5 4/1/5 1/1/5
f 15/1/3 22/1/3 21/1/3 20/1/3
f 3/1/6 1/1/6 18/1/6 2/1/6 17/1/6 20/1/6 21/1/6 19/1/6
f 17/1/1 16/1/1 15/1/1 20/1/1
f 10/1/1 7/1/1 19/1/1 21/1/1 22/1/1
f 1/1/2 4/1/2 5/1/2 18/1/2
f 23/2/7 24/3/7 26/4/7 25/5/7
f 25/5/8 26/4/8 30/6/8 29/7/8
f 29/7/9 30/6/9 28/8/9 27/9/9
f 27/9/10 28/8/10 24/10/10 23/11/10
f 25/12/5 29/7/5 27/9/5 23/13/5
f 30/6/1 26/14/1 24/15/1 28/8/1
f 31/2/7 32/3/7 34/4/7 33/5/7
f 33/5/11 34/4/11 38/6/11 37/7/11
f 37/7/9 38/6/9 36/8/9 35/9/9
f 35/9/10 36/8/10 32/10/10 31/11/10
f 33/12/5 37/7/5 35/9/5 31/13/5
f 38/6/1 34/14/1 32/15/1 36/8/1
f 39/2/7 40/3/7 42/4/7 41/5/7
f 41/5/11 42/4/11 46/6/11 45/7/11
f 45/7/9 46/6/9 44/8/9 43/9/9
f 43/9/10 44/8/10 40/10/10 39/11/10
f 41/12/5 45/7/5 43/9/5 39/13/5
f 46/6/1 42/14/1 40/15/1 44/8/1
f 47/2/7 48/3/7 50/4/7 49/5/7
f 49/5/8 50/4/8 54/6/8 53/7/8
f 53/7/9 54/6/9 52/8/9 51/9/9
f 51/9/10 52/8/10 48/10/10 47/11/10
f 49/12/5 53/7/5 51/9/5 47/13/5
f 54/6/1 50/14/1 48/15/1 52/8/1
