# Blender 4.4.3
# www.blender.org
mtllib clothes_cook.mtl
o Cube.001
v -0.950000 -0.755206 -0.030323
v -0.950000 0.244794 -0.030323
v -0.950000 -0.755206 -0.080323
v -0.950000 0.244794 -0.080323
v 0.950000 -0.755206 -0.030323
v 0.950000 0.244794 -0.030323
v 0.950000 -0.755206 -0.080323
v 0.950000 0.244794 -0.080323
v -0.764050 0.042022 0.059899
v -0.764050 0.070016 0.057450
v -0.764050 0.039573 0.031905
v -0.764050 0.067567 0.029456
v -0.735949 0.042022 0.059899
v -0.735949 0.070016 0.057450
v -0.735949 0.039573 0.031905
v -0.735949 0.067567 0.029456
v -0.764050 0.081411 0.006923
v -0.764050 0.055786 -0.004609
v -0.735949 0.055786 -0.004609
v -0.735949 0.081411 0.006923
v -0.764050 0.104196 -0.015892
v -0.764050 0.084060 -0.035494
v -0.735949 0.084060 -0.035494
v -0.735949 0.104196 -0.015892
v -0.764050 0.119338 -0.037347
v -0.764050 0.091239 -0.036969
v -0.735949 0.091239 -0.036969
v -0.735949 0.119338 -0.037347
v -0.264050 -0.057978 0.059899
v -0.264050 -0.029984 0.057450
v -0.264050 -0.060427 0.031905
v -0.264050 -0.032433 0.029456
v -0.235949 -0.057978 0.059899
v -0.235949 -0.029984 0.057450
v -0.235949 -0.060427 0.031905
v -0.235949 -0.032433 0.029456
v -0.264050 -0.018589 0.006923
v -0.264050 -0.044214 -0.004609
v -0.235949 -0.044214 -0.004609
v -0.235949 -0.018589 0.006923
v -0.264050 0.004196 -0.015892
v -0.264050 -0.015940 -0.035494
v -0.235949 -0.015940 -0.035494
v -0.235949 0.004196 -0.015892
v -0.264050 0.019338 -0.037347
v -0.264050 -0.008761 -0.036969
v -0.235949 -0.008761 -0.036969
v -0.235949 0.019338 -0.037347
v 0.235950 0.042022 0.059899
v 0.235950 0.070016 0.057450
v 0.235950 0.039573 0.031905
v 0.235950 0.067567 0.029456
v 0.264051 0.042022 0.059899
v 0.264051 0.070016 0.057450
v 0.264051 0.039573 0.031905
v 0.264051 0.067567 0.029456
v 0.235950 0.081411 0.006923
v 0.235950 0.055786 -0.004609
v 0.264051 0.055786 -0.004609
v 0.264051 0.081411 0.006923
v 0.235950 0.104196 -0.015892
v 0.235950 0.084060 -0.035494
v 0.264051 0.084060 -0.035494
v 0.264051 0.104196 -0.015892
v 0.235950 0.119338 -0.037347
v 0.235950 0.091239 -0.036969
v 0.264051 0.091239 -0.036969
v 0.264051 0.119338 -0.037347
v 0.735950 -0.057978 0.059899
v 0.735950 -0.029984 0.057450
v 0.735950 -0.060427 0.031905
v 0.735950 -0.032433 0.029456
v 0.764051 -0.057978 0.059899
v 0.764051 -0.029984 0.057450
v 0.764051 -0.060427 0.031905
v 0.764051 -0.032433 0.029456
v 0.735950 -0.018589 0.006923
v 0.735950 -0.044214 -0.004609
v 0.764051 -0.044214 -0.004609
v 0.764051 -0.018589 0.006923
v 0.735950 0.004196 -0.015892
v 0.735950 -0.015940 -0.035494
v 0.764051 -0.015940 -0.035494
v 0.764051 0.004196 -0.015892
v 0.735950 0.019338 -0.037347
v 0.735950 -0.008761 -0.036969
v 0.764051 -0.008761 -0.036969
v 0.764051 0.019338 -0.037347
vn -1.0000 -0.0000 -0.0000
vn -0.0000 -0.0000 -1.0000
vn 1.0000 -0.0000 -0.0000
vn -0.0000 -0.0000 1.0000
vn -0.0000 -1.0000 -0.0000
vn -0.0000 1.0000 -0.0000
vn -0.0000 0.0872 0.9962
vn -0.0000 -0.9962 0.0872
vn -0.0000 0.9962 -0.0872
vn -0.0000 -0.9140 -0.4058
vn -0.0000 0.8520 0.5235
vn -0.0000 0.8170 0.5766
vn -0.0000 -0.7376 -0.6752
vn -0.0000 0.7076 0.7066
vn -0.0000 -0.0134 -0.9999
vn -0.0000 -0.2013 -0.9795
vt 0.375000 0.000000
vt 0.625000 0.000000
vt 0.625000 0.250000
vt 0.375000 0.250000
vt 0.625000 0.500000
vt 0.375000 0.500000
vt 0.625000 0.750000
vt 0.375000 0.750000
vt 0.625000 1.000000
vt 0.375000 1.000000
vt 0.125000 0.500000
vt 0.125000 0.750000
vt 0.875000 0.500000
vt 0.875000 0.750000
s 0
f 1/1/1 2/2/1 4/3/1 3/4/1
f 3/4/2 4/3/2 8/5/2 7/6/2
f 7/6/3 8/5/3 6/7/3 5/8/3
f 5/8/4 6/7/4 2/9/4 1/10/4
f 3/11/5 7/6/5 5/8/5 1/12/5
f 8/5/6 4/13/6 2/14/6 6/7/6
f 9/1/1 10/2/1 12/3/1 11/4/1
f 16/5/3 15/6/3 19/6/3 20/5/3
f 15/6/3 16/5/3 14/7/3 13/8/3
f 13/8/7 14/7/7 10/9/7 9/10/7
f 11/11/8 15/6/8 13/8/8 9/12/8
f 16/5/9 12/13/9 10/14/9 14/7/9
f 20/5/3 19/6/3 23/6/3 24/5/3
f 15/6/10 11/11/10 18/11/10 19/6/10
f 12/13/11 16/5/11 20/5/11 17/13/11
f 11/4/1 12/3/1 17/3/1 18/4/1
f 21/13/12 24/5/12 28/5/12 25/13/12
f 19/6/13 18/11/13 22/11/13 23/6/13
f 17/13/14 20/5/14 24/5/14 21/13/14
f 18/4/1 17/3/1 21/3/1 22/4/1
f 26/4/15 25/3/15 28/5/15 27/6/15
f 22/4/1 21/3/1 25/3/1 26/4/1
f 24/5/3 23/6/3 27/6/3 28/5/3
f 23/6/16 22/11/16 26/11/16 27/6/16
f 29/1/1 30/2/1 32/3/1 31/4/1
f 36/5/3 35/6/3 39/6/3 40/5/3
f 35/6/3 36/5/3 34/7/3 33/8/3
f 33/8/7 34/7/7 30/9/7 29/10/7
f 31/11/8 35/6/8 33/8/8 29/12/8
f 36/5/9 32/13/9 30/14/9 34/7/9
f 40/5/3 39/6/3 43/6/3 44/5/3
f 35/6/10 31/11/10 38/11/10 39/6/10
f 32/13/11 36/5/11 40/5/11 37/13/11
f 31/4/1 32/3/1 37/3/1 38/4/1
f 41/13/12 44/5/12 48/5/12 45/13/12
f 39/6/13 38/11/13 42/11/13 43/6/13
f 37/13/14 40/5/14 44/5/14 41/13/14
f 38/4/1 37/3/1 41/3/1 42/4/1
f 46/4/15 45/3/15 48/5/15 47/6/15
f 42/4/1 41/3/1 45/3/1 46/4/1
f 44/5/3 43/6/3 47/6/3 48/5/3
f 43/6/16 42/11/16 46/11/16 47/6/16
f 49/1/1 50/2/1 52/3/1 51/4/1
f 56/5/3 55/6/3 59/6/3 60/5/3
f 55/6/3 56/5/3 54/7/3 53/8/3
f 53/8/7 54/7/7 50/9/7 49/10/7
f 51/11/8 55/6/8 53/8/8 49/12/8
f 56/5/9 52/13/9 50/14/9 54/7/9
f 60/5/3 59/6/3 63/6/3 64/5/3
f 55/6/10 51/11/10 58/11/10 59/6/10
f 52/13/11 56/5/11 60/5/11 57/13/11
f 51/4/1 52/3/1 57/3/1 58/4/1
f 61/13/12 64/5/12 68/5/12 65/13/12
f 59/6/13 58/11/13 62/11/13 63/6/13
f 57/13/14 60/5/14 64/5/14 61/13/14
f 58/4/1 57/3/1 61/3/1 62/4/1
f 66/4/15 65/3/15 68/5/15 67/6/15
f 62/4/1 61/3/1 65/3/1 66/4/1
f 64/5/3 63/6/3 67/6/3 68/5/3
f 63/6/16 62/11/16 66/11/16 67/6/16
f 69/1/1 70/2/1 72/3/1 71/4/1
f 76/5/3 75/6/3 79/6/3 80/5/3
f 75/6/3 76/5/3 74/7/3 73/8/3
f 73/8/7 74/7/7 70/9/7 69/10/7
f 71/11/8 75/6/8 73/8/8 69/12/8
f 76/5/9 72/13/9 70/14/9 74/7/9
f 80/5/3 79/6/3 83/6/3 84/5/3
f 75/6/10 71/11/10 78/11/10 79/6/10
f 72/13/11 76/5/11 80/5/11 77/13/11
f 71/4/1 72/3/1 77/3/1 78/4/1
f 81/13/12 84/5/12 88/5/12 85/13/12
f 79/6/13 78/11/13 82/11/13 83/6/13
f 77/13/14 80/5/14 84/5/14 81/13/14
f 78/4/1 77/3/1 81/3/1 82/4/1
f 86/4/15 85/3/15 88/5/15 87/6/15
f 82/4/1 81/3/1 85/3/1 86/4/1
f 84/5/3 83/6/3 87/6/3 88/5/3
f 83/6/16 82/11/16 86/11/16 87/6/16
