# Blender 4.4.3
# www.blender.org
mtllib clothes_hook.mtl
o Cylinder.001
v -3.000000 0.040000 -19.049999
v -3.000000 2.000000 -19.049999
v -2.990246 0.040000 -19.049040
v -2.990246 2.000000 -19.049040
v -2.980866 0.040000 -19.046194
v -2.980866 2.000000 -19.046194
v -2.972221 0.040000 -19.041573
v -2.972221 2.000000 -19.041573
v -2.964645 0.040000 -19.035355
v -2.964645 2.000000 -19.035355
v -2.958426 0.040000 -19.027779
v -2.958426 2.000000 -19.027779
v -2.953806 0.040000 -19.019135
v -2.953806 2.000000 -19.019135
v -2.950961 0.040000 -19.009754
v -2.950961 2.000000 -19.009754
v -2.950000 0.040000 -19.000000
v -2.950000 2.000000 -19.000000
v -2.950961 0.040000 -18.990246
v -2.950961 2.000000 -18.990246
v -2.953806 0.040000 -18.980865
v -2.953806 2.000000 -18.980865
v -2.958426 0.040000 -18.972221
v -2.958426 2.000000 -18.972221
v -2.964645 0.040000 -18.964645
v -2.964645 2.000000 -18.964645
v -2.972221 0.040000 -18.958427
v -2.972221 2.000000 -18.958427
v -2.980866 0.040000 -18.953806
v -2.980866 2.000000 -18.953806
v -2.990246 0.040000 -18.950960
v -2.990246 2.000000 -18.950960
v -3.000000 0.040000 -18.950001
v -3.000000 2.000000 -18.950001
v -3.009754 0.040000 -18.950960
v -3.009754 2.000000 -18.950960
v -3.019134 0.040000 -18.953806
v -3.019134 2.000000 -18.953806
v -3.027779 0.040000 -18.958427
v -3.027779 2.000000 -18.958427
v -3.035355 0.040000 -18.964645
v -3.035355 2.000000 -18.964645
v -3.041574 0.040000 -18.972221
v -3.041574 2.000000 -18.972221
v -3.046194 0.040000 -18.980865
v -3.046194 2.000000 -18.980865
v -3.049039 0.040000 -18.990246
v -3.049039 2.000000 -18.990246
v -3.050000 0.040000 -19.000000
v -3.050000 2.000000 -19.000000
v -3.049039 0.040000 -19.009754
v -3.049039 2.000000 -19.009754
v -3.046194 0.040000 -19.019135
v -3.046194 2.000000 -19.019135
v -3.041574 0.040000 -19.027779
v -3.041574 2.000000 -19.027779
v -3.035355 0.040000 -19.035355
v -3.035355 2.000000 -19.035355
v -3.027779 0.040000 -19.041573
v -3.027779 2.000000 -19.041573
v -3.019134 0.040000 -19.046194
v -3.019134 2.000000 -19.046194
v -3.009754 0.040000 -19.049040
v -3.009754 2.000000 -19.049040
v -3.000000 0.005000 -19.400000
v -3.000000 0.045000 -19.400000
v -2.921964 0.005000 -19.392315
v -2.921964 0.045000 -19.392315
v -2.846927 0.005000 -19.369553
v -2.846927 0.045000 -19.369553
v -2.777772 0.005000 -19.332588
v -2.777772 0.045000 -19.332588
v -2.717157 0.005000 -19.282843
v -2.717157 0.045000 -19.282843
v -2.667412 0.005000 -19.222229
v -2.667412 0.045000 -19.222229
v -2.630448 0.005000 -19.153074
v -2.630448 0.045000 -19.153074
v -2.607686 0.005000 -19.078035
v -2.607686 0.045000 -19.078035
v -2.600000 0.005000 -19.000000
v -2.600000 0.045000 -19.000000
v -2.607686 0.005000 -18.921965
v -2.607686 0.045000 -18.921965
v -2.630448 0.005000 -18.846926
v -2.630448 0.045000 -18.846926
v -2.667412 0.005000 -18.777771
v -2.667412 0.045000 -18.777771
v -2.717157 0.005000 -18.717157
v -2.717157 0.045000 -18.717157
v -2.777772 0.005000 -18.667412
v -2.777772 0.045000 -18.667412
v -2.846927 0.005000 -18.630447
v -2.846927 0.045000 -18.630447
v -2.921964 0.005000 -18.607685
v -2.921964 0.045000 -18.607685
v -3.000000 0.005000 -18.600000
v -3.000000 0.045000 -18.600000
v -3.078036 0.005000 -18.607685
v -3.078036 0.045000 -18.607685
v -3.153073 0.005000 -18.630447
v -3.153073 0.045000 -18.630447
v -3.222228 0.005000 -18.667412
v -3.222228 0.045000 -18.667412
v -3.282843 0.005000 -18.717157
v -3.282843 0.045000 -18.717157
v -3.332588 0.005000 -18.777771
v -3.332588 0.045000 -18.777771
v -3.369552 0.005000 -18.846926
v -3.369552 0.045000 -18.846926
v -3.392314 0.005000 -18.921965
v -3.392314 0.045000 -18.921965
v -3.400000 0.005000 -19.000000
v -3.400000 0.045000 -19.000000
v -3.392314 0.005000 -19.078035
v -3.392314 0.045000 -19.078035
v -3.369552 0.005000 -19.153074
v -3.369552 0.045000 -19.153074
v -3.332588 0.005000 -19.222229
v -3.332588 0.045000 -19.222229
v -3.282843 0.005000 -19.282843
v -3.282843 0.045000 -19.282843
v -3.222228 0.005000 -19.332588
v -3.222228 0.045000 -19.332588
v -3.153073 0.005000 -19.369553
v -3.153073 0.045000 -19.369553
v -3.078036 0.005000 -19.392315
v -3.078036 0.045000 -19.392315
v -2.960000 1.800000 -19.025000
v -2.700000 1.860000 -19.025000
v -2.960000 1.795123 -19.024519
v -2.700000 1.855123 -19.024519
v -2.960000 1.790433 -19.023096
v -2.700000 1.850433 -19.023096
v -2.960000 1.786111 -19.020786
v -2.700000 1.846111 -19.020786
v -2.960000 1.782322 -19.017677
v -2.700000 1.842322 -19.017677
v -2.960000 1.779213 -19.013889
v -2.700000 1.839213 -19.013889
v -2.960000 1.776903 -19.009567
v -2.700000 1.836903 -19.009567
v -2.960000 1.775480 -19.004877
v -2.700000 1.835480 -19.004877
v -2.960000 1.775000 -19.000000
v -2.700000 1.835000 -19.000000
v -2.960000 1.775480 -18.995123
v -2.700000 1.835480 -18.995123
v -2.960000 1.776903 -18.990433
v -2.700000 1.836903 -18.990433
v -2.960000 1.779213 -18.986111
v -2.700000 1.839213 -18.986111
v -2.960000 1.782322 -18.982323
v -2.700000 1.842322 -18.982323
v -2.960000 1.786111 -18.979214
v -2.700000 1.846111 -18.979214
v -2.960000 1.790433 -18.976904
v -2.700000 1.850433 -18.976904
v -2.960000 1.795123 -18.975481
v -2.700000 1.855123 -18.975481
v -2.960000 1.800000 -18.975000
v -2.700000 1.860000 -18.975000
v -2.960000 1.804877 -18.975481
v -2.700000 1.864877 -18.975481
v -2.960000 1.809567 -18.976904
v -2.700000 1.869567 -18.976904
v -2.960000 1.813889 -18.979214
v -2.700000 1.873889 -18.979214
v -2.960000 1.817678 -18.982323
v -2.700000 1.877678 -18.982323
v -2.960000 1.820787 -18.986111
v -2.700000 1.880787 -18.986111
v -2.960000 1.823097 -18.990433
v -2.700000 1.883097 -18.990433
v -2.960000 1.824520 -18.995123
v -2.700000 1.884520 -18.995123
v -2.960000 1.825000 -19.000000
v -2.700000 1.885000 -19.000000
v -2.960000 1.824520 -19.004877
v -2.700000 1.884520 -19.004877
v -2.960000 1.823097 -19.009567
v -2.700000 1.883097 -19.009567
v -2.960000 1.820787 -19.013889
v -2.700000 1.880787 -19.013889
v -2.960000 1.817678 -19.017677
v -2.700000 1.877678 -19.017677
v -2.960000 1.813889 -19.020786
v -2.700000 1.873889 -19.020786
v -2.960000 1.809567 -19.023096
v -2.700000 1.869567 -19.023096
v -2.960000 1.804877 -19.024519
v -2.700000 1.864877 -19.024519
v -2.975000 1.700000 -18.959999
v -2.975000 1.760000 -18.700001
v -2.975480 1.695123 -18.959999
v -2.975480 1.755123 -18.700001
v -2.976903 1.690433 -18.959999
v -2.976903 1.750433 -18.700001
v -2.979213 1.686111 -18.959999
v -2.979213 1.746111 -18.700001
v -2.982322 1.682322 -18.959999
v -2.982322 1.742322 -18.700001
v -2.986111 1.679213 -18.959999
v -2.986111 1.739213 -18.700001
v -2.990433 1.676903 -18.959999
v -2.990433 1.736903 -18.700001
v -2.995123 1.675480 -18.959999
v -2.995123 1.735480 -18.700001
v -3.000000 1.675000 -18.959999
v -3.000000 1.735000 -18.700001
v -3.004877 1.675480 -18.959999
v -3.004877 1.735480 -18.700001
v -3.009567 1.676903 -18.959999
v -3.009567 1.736903 -18.700001
v -3.013889 1.679213 -18.959999
v -3.013889 1.739213 -18.700001
v -3.017678 1.682322 -18.959999
v -3.017678 1.742322 -18.700001
v -3.020787 1.686111 -18.959999
v -3.020787 1.746111 -18.700001
v -3.023097 1.690433 -18.959999
v -3.023097 1.750433 -18.700001
v -3.024520 1.695123 -18.959999
v -3.024520 1.755123 -18.700001
v -3.025000 1.700000 -18.959999
v -3.025000 1.760000 -18.700001
v -3.024520 1.704877 -18.959999
v -3.024520 1.764877 -18.700001
v -3.023097 1.709567 -18.959999
v -3.023097 1.769567 -18.700001
v -3.020787 1.713889 -18.959999
v -3.020787 1.773889 -18.700001
v -3.017678 1.717678 -18.959999
v -3.017678 1.777678 -18.700001
v -3.013889 1.720787 -18.959999
v -3.013889 1.780787 -18.700001
v -3.009567 1.723097 -18.959999
v -3.009567 1.783097 -18.700001
v -3.004877 1.724520 -18.959999
v -3.004877 1.784520 -18.700001
v -3.000000 1.725000 -18.959999
v -3.000000 1.785000 -18.700001
v -2.995123 1.724520 -18.959999
v -2.995123 1.784520 -18.700001
v -2.990433 1.723097 -18.959999
v -2.990433 1.783097 -18.700001
v -2.986111 1.720787 -18.959999
v -2.986111 1.780787 -18.700001
v -2.982322 1.717678 -18.959999
v -2.982322 1.777678 -18.700001
v -2.979213 1.713889 -18.959999
v -2.979213 1.773889 -18.700001
v -2.976903 1.709567 -18.959999
v -2.976903 1.769567 -18.700001
v -2.975480 1.704877 -18.959999
v -2.975480 1.764877 -18.700001
v -3.040000 1.800000 -18.975000
v -3.300000 1.860000 -18.975000
v -3.040000 1.795123 -18.975481
v -3.300000 1.855123 -18.975481
v -3.040000 1.790433 -18.976904
v -3.300000 1.850433 -18.976902
v -3.040000 1.786111 -18.979214
v -3.300000 1.846111 -18.979214
v -3.040000 1.782322 -18.982323
v -3.300000 1.842322 -18.982323
v -3.040000 1.779213 -18.986111
v -3.300000 1.839213 -18.986111
v -3.040000 1.776903 -18.990433
v -3.300000 1.836903 -18.990433
v -3.040000 1.775481 -18.995123
v -3.300000 1.835480 -18.995123
v -3.040000 1.775000 -19.000000
v -3.300000 1.835000 -19.000000
v -3.040000 1.775481 -19.004877
v -3.300000 1.835480 -19.004877
v -3.040000 1.776903 -19.009567
v -3.300000 1.836903 -19.009567
v -3.040000 1.779213 -19.013889
v -3.300000 1.839213 -19.013889
v -3.040000 1.782322 -19.017677
v -3.300000 1.842322 -19.017677
v -3.040000 1.786111 -19.020786
v -3.300000 1.846111 -19.020786
v -3.040000 1.790433 -19.023096
v -3.300000 1.850433 -19.023096
v -3.040000 1.795123 -19.024519
v -3.300000 1.855123 -19.024519
v -3.040000 1.800000 -19.025000
v -3.300000 1.860000 -19.025000
v -3.040000 1.804877 -19.024519
v -3.300000 1.864877 -19.024519
v -3.040000 1.809567 -19.023096
v -3.300000 1.869567 -19.023096
v -3.040000 1.813889 -19.020786
v -3.300000 1.873889 -19.020786
v -3.040000 1.817678 -19.017677
v -3.300000 1.877678 -19.017677
v -3.040000 1.820787 -19.013889
v -3.300000 1.880787 -19.013889
v -3.040000 1.823097 -19.009567
v -3.300000 1.883097 -19.009567
v -3.040000 1.824520 -19.004877
v -3.300000 1.884520 -19.004877
v -3.040000 1.825000 -19.000000
v -3.300000 1.885000 -19.000000
v -3.040000 1.824520 -18.995123
v -3.300000 1.884520 -18.995123
v -3.040000 1.823097 -18.990433
v -3.300000 1.883097 -18.990433
v -3.040000 1.820787 -18.986111
v -3.300000 1.880787 -18.986111
v -3.040000 1.817678 -18.982323
v -3.300000 1.877678 -18.982323
v -3.040000 1.813889 -18.979214
v -3.300000 1.873889 -18.979214
v -3.040000 1.809567 -18.976904
v -3.300000 1.869567 -18.976902
v -3.040000 1.804877 -18.975481
v -3.300000 1.864877 -18.975481
v -3.025000 1.700000 -19.040001
v -3.025000 1.760000 -19.299999
v -3.024520 1.695123 -19.040001
v -3.024520 1.755123 -19.299999
v -3.023097 1.690433 -19.040001
v -3.023097 1.750433 -19.299999
v -3.020787 1.686111 -19.040001
v -3.020787 1.746111 -19.299999
v -3.017678 1.682322 -19.040001
v -3.017678 1.742322 -19.299999
v -3.013889 1.679213 -19.040001
v -3.013889 1.739213 -19.299999
v -3.009567 1.676903 -19.040001
v -3.009567 1.736903 -19.299999
v -3.004877 1.675480 -19.040001
v -3.004877 1.735480 -19.299999
v -3.000000 1.675000 -19.040001
v -3.000000 1.735000 -19.299999
v -2.995123 1.675480 -19.040001
v -2.995123 1.735480 -19.299999
v -2.990433 1.676903 -19.040001
v -2.990433 1.736903 -19.299999
v -2.986111 1.679213 -19.040001
v -2.986111 1.739213 -19.299999
v -2.982322 1.682322 -19.040001
v -2.982322 1.742322 -19.299999
v -2.979213 1.686111 -19.040001
v -2.979213 1.746111 -19.299999
v -2.976903 1.690433 -19.040001
v -2.976903 1.750433 -19.299999
v -2.975480 1.695123 -19.040001
v -2.975480 1.755123 -19.299999
v -2.975000 1.700000 -19.040001
v -2.975000 1.760000 -19.299999
v -2.975480 1.704877 -19.040001
v -2.975480 1.764877 -19.299999
v -2.976903 1.709567 -19.040001
v -2.976903 1.769567 -19.299999
v -2.979213 1.713889 -19.040001
v -2.979213 1.773889 -19.299999
v -2.982322 1.717678 -19.040001
v -2.982322 1.777678 -19.299999
v -2.986111 1.720787 -19.040001
v -2.986111 1.780787 -19.299999
v -2.990433 1.723097 -19.040001
v -2.990433 1.783097 -19.299999
v -2.995123 1.724520 -19.040001
v -2.995123 1.784520 -19.299999
v -3.000000 1.725000 -19.040001
v -3.000000 1.785000 -19.299999
v -3.004877 1.724520 -19.040001
v -3.004877 1.784520 -19.299999
v -3.009567 1.723097 -19.040001
v -3.009567 1.783097 -19.299999
v -3.013889 1.720787 -19.040001
v -3.013889 1.780787 -19.299999
v -3.017678 1.717678 -19.040001
v -3.017678 1.777678 -19.299999
v -3.020787 1.713889 -19.040001
v -3.020787 1.773889 -19.299999
v -3.023097 1.709567 -19.040001
v -3.023097 1.769567 -19.299999
v -3.024520 1.704877 -19.040001
v -3.024520 1.764877 -19.299999
vn 0.0980 -0.0000 -0.9952
vn 0.2903 -0.0000 -0.9569
vn 0.4714 -0.0000 -0.8819
vn 0.6344 -0.0000 -0.7730
vn 0.7730 -0.0000 -0.6344
vn 0.8819 -0.0000 -0.4714
vn 0.9569 -0.0000 -0.2903
vn 0.9952 -0.0000 -0.0980
vn 0.9952 -0.0000 0.0980
vn 0.9569 -0.0000 0.2903
vn 0.8819 -0.0000 0.4714
vn 0.7730 -0.0000 0.6344
vn 0.6344 -0.0000 0.7730
vn 0.4714 -0.0000 0.8819
vn 0.2903 -0.0000 0.9569
vn 0.0980 -0.0000 0.9952
vn -0.0980 -0.0000 0.9952
vn -0.2903 -0.0000 0.9569
vn -0.4714 -0.0000 0.8819
vn -0.6344 -0.0000 0.7730
vn -0.7730 -0.0000 0.6344
vn -0.8819 -0.0000 0.4714
vn -0.9569 -0.0000 0.2903
vn -0.9952 -0.0000 0.0980
vn -0.9952 -0.0000 -0.0980
vn -0.9569 -0.0000 -0.2903
vn -0.8819 -0.0000 -0.4714
vn -0.7730 -0.0000 -0.6344
vn -0.6344 -0.0000 -0.7730
vn -0.4714 -0.0000 -0.8819
vn -0.0000 1.0000 -0.0000
vn -0.2903 -0.0000 -0.9569
vn -0.0980 -0.0000 -0.9952
vn -0.0000 -1.0000 -0.0000
vn 0.0226 -0.0980 -0.9949
vn 0.0668 -0.2896 -0.9548
vn 0.1081 -0.4686 -0.8768
vn 0.1449 -0.6277 -0.7649
vn 0.1756 -0.7610 -0.6245
vn 0.1994 -0.8642 -0.4619
vn 0.2156 -0.9344 -0.2835
vn 0.2238 -0.9699 -0.0955
vn 0.2238 -0.9699 0.0955
vn 0.2156 -0.9344 0.2835
vn 0.1994 -0.8642 0.4619
vn 0.1756 -0.7610 0.6245
vn 0.1449 -0.6277 0.7649
vn 0.1081 -0.4686 0.8768
vn 0.0668 -0.2896 0.9548
vn 0.0226 -0.0980 0.9949
vn -0.0226 0.0980 0.9949
vn -0.0668 0.2896 0.9548
vn -0.1081 0.4686 0.8768
vn -0.1449 0.6277 0.7649
vn -0.1756 0.7610 0.6245
vn -0.1994 0.8642 0.4619
vn -0.2156 0.9344 0.2834
vn -0.2238 0.9699 0.0955
vn -0.2238 0.9699 -0.0955
vn -0.2156 0.9344 -0.2834
vn -0.1994 0.8642 -0.4619
vn -0.1756 0.7610 -0.6245
vn -0.1449 0.6277 -0.7649
vn -0.1081 0.4686 -0.8768
vn 1.0000 -0.0000 -0.0000
vn -0.0668 0.2896 -0.9548
vn -0.0226 0.0980 -0.9949
vn -1.0000 -0.0000 -0.0000
vn 0.9949 -0.0980 0.0226
vn 0.9548 -0.2896 0.0668
vn 0.8767 -0.4686 0.1081
vn 0.7649 -0.6277 0.1449
vn 0.6245 -0.7610 0.1756
vn 0.4619 -0.8642 0.1994
vn 0.2835 -0.9344 0.2156
vn 0.0955 -0.9699 0.2238
vn -0.0955 -0.9699 0.2238
vn -0.2835 -0.9344 0.2156
vn -0.4619 -0.8642 0.1994
vn -0.6245 -0.7610 0.1756
vn -0.7649 -0.6277 0.1449
vn -0.8767 -0.4686 0.1081
vn -0.9548 -0.2896 0.0668
vn -0.9949 -0.0980 0.0226
vn -0.9949 0.0980 -0.0226
vn -0.9548 0.2896 -0.0668
vn -0.8767 0.4686 -0.1081
vn -0.7649 0.6277 -0.1449
vn -0.6245 0.7610 -0.1756
vn -0.4619 0.8642 -0.1994
vn -0.2834 0.9344 -0.2156
vn -0.0956 0.9699 -0.2238
vn 0.0956 0.9699 -0.2238
vn 0.2834 0.9344 -0.2156
vn 0.4619 0.8642 -0.1994
vn 0.6245 0.7610 -0.1756
vn 0.7649 0.6277 -0.1449
vn 0.8767 0.4686 -0.1081
vn -0.0000 -0.0000 1.0000
vn 0.9548 0.2896 -0.0668
vn 0.9949 0.0980 -0.0226
vn -0.0000 -0.0000 -1.0000
vn -0.0226 -0.0980 0.9949
vn -0.0668 -0.2896 0.9548
vn -0.1081 -0.4686 0.8768
vn -0.1449 -0.6277 0.7649
vn -0.1756 -0.7610 0.6245
vn -0.1994 -0.8642 0.4619
vn -0.2156 -0.9344 0.2834
vn -0.2238 -0.9699 0.0955
vn -0.2238 -0.9699 -0.0955
vn -0.2156 -0.9344 -0.2834
vn -0.1994 -0.8642 -0.4619
vn -0.1756 -0.7610 -0.6245
vn -0.1449 -0.6277 -0.7649
vn -0.1081 -0.4686 -0.8768
vn -0.0668 -0.2896 -0.9548
vn -0.0226 -0.0980 -0.9949
vn 0.0226 0.0980 -0.9949
vn 0.0668 0.2896 -0.9548
vn 0.1081 0.4686 -0.8767
vn 0.1449 0.6277 -0.7649
vn 0.1756 0.7610 -0.6245
vn 0.1994 0.8642 -0.4619
vn 0.2156 0.9344 -0.2835
vn 0.2238 0.9699 -0.0955
vn 0.2238 0.9699 0.0955
vn 0.2156 0.9344 0.2835
vn 0.1994 0.8642 0.4619
vn 0.1756 0.7610 0.6245
vn 0.1449 0.6277 0.7649
vn 0.1081 0.4686 0.8767
vn 0.0668 0.2896 0.9548
vn 0.0226 0.0980 0.9949
vn -0.9949 -0.0980 -0.0226
vn -0.9548 -0.2896 -0.0668
vn -0.8767 -0.4686 -0.1081
vn -0.7649 -0.6277 -0.1449
vn -0.6245 -0.7610 -0.1756
vn -0.4619 -0.8642 -0.1994
vn -0.2835 -0.9344 -0.2156
vn -0.0955 -0.9699 -0.2238
vn 0.0955 -0.9699 -0.2238
vn 0.2835 -0.9344 -0.2156
vn 0.4619 -0.8642 -0.1994
vn 0.6245 -0.7610 -0.1756
vn 0.7649 -0.6277 -0.1449
vn 0.8767 -0.4686 -0.1081
vn 0.9548 -0.2896 -0.0668
vn 0.9949 -0.0980 -0.0226
vn 0.9949 0.0980 0.0226
vn 0.9548 0.2896 0.0668
vn 0.8767 0.4686 0.1081
vn 0.7649 0.6277 0.1449
vn 0.6245 0.7610 0.1756
vn 0.4619 0.8642 0.1994
vn 0.2834 0.9344 0.2156
vn 0.0956 0.9699 0.2238
vn -0.0956 0.9699 0.2238
vn -0.2834 0.9344 0.2156
vn -0.4619 0.8642 0.1994
vn -0.6245 0.7610 0.1756
vn -0.7649 0.6277 0.1449
vn -0.8767 0.4686 0.1081
vn -0.9548 0.2896 0.0668
vn -0.9949 0.0980 0.0226
vt 1.000000 0.500000
vt 1.000000 1.000000
vt 0.968750 1.000000
vt 0.968750 0.500000
vt 0.937500 1.000000
vt 0.937500 0.500000
vt 0.906250 1.000000
vt 0.906250 0.500000
vt 0.875000 1.000000
vt 0.875000 0.500000
vt 0.843750 1.000000
vt 0.843750 0.500000
vt 0.812500 1.000000
vt 0.812500 0.500000
vt 0.781250 1.000000
vt 0.781250 0.500000
vt 0.750000 1.000000
vt 0.750000 0.500000
vt 0.718750 1.000000
vt 0.718750 0.500000
vt 0.687500 1.000000
vt 0.687500 0.500000
vt 0.656250 1.000000
vt 0.656250 0.500000
vt 0.625000 1.000000
vt 0.625000 0.500000
vt 0.593750 1.000000
vt 0.593750 0.500000
vt 0.562500 1.000000
vt 0.562500 0.500000
vt 0.531250 1.000000
vt 0.531250 0.500000
vt 0.500000 1.000000
vt 0.500000 0.500000
vt 0.468750 1.000000
vt 0.468750 0.500000
vt 0.437500 1.000000
vt 0.437500 0.500000
vt 0.406250 1.000000
vt 0.406250 0.500000
vt 0.375000 1.000000
vt 0.375000 0.500000
vt 0.343750 1.000000
vt 0.343750 0.500000
vt 0.312500 1.000000
vt 0.312500 0.500000
vt 0.281250 1.000000
vt 0.281250 0.500000
vt 0.250000 1.000000
vt 0.250000 0.500000
vt 0.218750 1.000000
vt 0.218750 0.500000
vt 0.187500 1.000000
vt 0.187500 0.500000
vt 0.156250 1.000000
vt 0.156250 0.500000
vt 0.125000 1.000000
vt 0.125000 0.500000
vt 0.093750 1.000000
vt 0.093750 0.500000
vt 0.062500 1.000000
vt 0.062500 0.500000
vt 0.296822 0.485388
vt 0.250000 0.490000
vt 0.203178 0.485388
vt 0.158156 0.471731
vt 0.116663 0.449553
vt 0.080294 0.419706
vt 0.050447 0.383337
vt 0.028269 0.341844
vt 0.014612 0.296822
vt 0.010000 0.250000
vt 0.014612 0.203178
vt 0.028269 0.158156
vt 0.050447 0.116663
vt 0.080294 0.080294
vt 0.116663 0.050447
vt 0.158156 0.028269
vt 0.203178 0.014612
vt 0.250000 0.010000
vt 0.296822 0.014612
vt 0.341844 0.028269
vt 0.383337 0.050447
vt 0.419706 0.080294
vt 0.449553 0.116663
vt 0.471731 0.158156
vt 0.485388 0.203178
vt 0.490000 0.250000
vt 0.485388 0.296822
vt 0.471731 0.341844
vt 0.449553 0.383337
vt 0.419706 0.419706
vt 0.383337 0.449553
vt 0.341844 0.471731
vt 0.031250 1.000000
vt 0.031250 0.500000
vt 0.000000 1.000000
vt 0.000000 0.500000
vt 0.750000 0.490000
vt 0.796822 0.485388
vt 0.841844 0.471731
vt 0.883337 0.449553
vt 0.919706 0.419706
vt 0.949553 0.383337
vt 0.971731 0.341844
vt 0.985388 0.296822
vt 0.990000 0.250000
vt 0.985388 0.203178
vt 0.971731 0.158156
vt 0.949553 0.116663
vt 0.919706 0.080294
vt 0.883337 0.050447
vt 0.841844 0.028269
vt 0.796822 0.014612
vt 0.750000 0.010000
vt 0.703178 0.014612
vt 0.658156 0.028269
vt 0.616663 0.050447
vt 0.580294 0.080294
vt 0.550447 0.116663
vt 0.528269 0.158156
vt 0.514612 0.203178
vt 0.510000 0.250000
vt 0.514612 0.296822
vt 0.528269 0.341844
vt 0.550447 0.383337
vt 0.580294 0.419706
vt 0.616663 0.449553
vt 0.658156 0.471731
vt 0.703178 0.485388
s 0
f 1/1/1 2/2/1 4/3/1 3/4/1
f 3/4/2 4/3/2 6/5/2 5/6/2
f 5/6/3 6/5/3 8/7/3 7/8/3
f 7/8/4 8/7/4 10/9/4 9/10/4
f 9/10/5 10/9/5 12/11/5 11/12/5
f 11/12/6 12/11/6 14/13/6 13/14/6
f 13/14/7 14/13/7 16/15/7 15/16/7
f 15/16/8 16/15/8 18/17/8 17/18/8
f 17/18/9 18/17/9 20/19/9 19/20/9
f 19/20/10 20/19/10 22/21/10 21/22/10
f 21/22/11 22/21/11 24/23/11 23/24/11
f 23/24/12 24/23/12 26/25/12 25/26/12
f 25/26/13 26/25/13 28/27/13 27/28/13
f 27/28/14 28/27/14 30/29/14 29/30/14
f 29/30/15 30/29/15 32/31/15 31/32/15
f 31/32/16 32/31/16 34/33/16 33/34/16
f 33/34/17 34/33/17 36/35/17 35/36/17
f 35/36/18 36/35/18 38/37/18 37/38/18
f 37/38/19 38/37/19 40/39/19 39/40/19
f 39/40/20 40/39/20 42/41/20 41/42/20
f 41/42/21 42/41/21 44/43/21 43/44/21
f 43/44/22 44/43/22 46/45/22 45/46/22
f 45/46/23 46/45/23 48/47/23 47/48/23
f 47/48/24 48/47/24 50/49/24 49/50/24
f 49/50/25 50/49/25 52/51/25 51/52/25
f 51/52/26 52/51/26 54/53/26 53/54/26
f 53/54/27 54/53/27 56/55/27 55/56/27
f 55/56/28 56/55/28 58/57/28 57/58/28
f 57/58/29 58/57/29 60/59/29 59/60/29
f 59/60/30 60/59/30 62/61/30 61/62/30
f 4/63/31 2/64/31 64/65/31 62/66/31 60/67/31 58/68/31 56/69/31 54/70/31 52/71/31 50/72/31 48/73/31 46/74/31 44/75/31 42/76/31 40/77/31 38/78/31 36/79/31 34/80/31 32/81/31 30/82/31 28/83/31 26/84/31 24/85/31 22/86/31 20/87/31 18/88/31 16/89/31 14/90/31 12/91/31 10/92/31 8/93/31 6/94/31
f 61/62/32 62/61/32 64/95/32 63/96/32
f 63/96/33 64/95/33 2/97/33 1/98/33
f 1/99/34 3/100/34 5/101/34 7/102/34 9/103/34 11/104/34 13/105/34 15/106/34 17/107/34 19/108/34 21/109/34 23/110/34 25/111/34 27/112/34 29/113/34 31/114/34 33/115/34 35/116/34 37/117/34 39/118/34 41/119/34 43/120/34 45/121/34 47/122/34 49/123/34 51/124/34 53/125/34 55/126/34 57/127/34 59/128/34 61/129/34 63/130/34
f 65/1/1 66/2/1 68/3/1 67/4/1
f 67/4/2 68/3/2 70/5/2 69/6/2
f 69/6/3 70/5/3 72/7/3 71/8/3
f 71/8/4 72/7/4 74/9/4 73/10/4
f 73/10/5 74/9/5 76/11/5 75/12/5
f 75/12/6 76/11/6 78/13/6 77/14/6
f 77/14/7 78/13/7 80/15/7 79/16/7
f 79/16/8 80/15/8 82/17/8 81/18/8
f 81/18/9 82/17/9 84/19/9 83/20/9
f 83/20/10 84/19/10 86/21/10 85/22/10
f 85/22/11 86/21/11 88/23/11 87/24/11
f 87/24/12 88/23/12 90/25/12 89/26/12
f 89/26/13 90/25/13 92/27/13 91/28/13
f 91/28/14 92/27/14 94/29/14 93/30/14
f 93/30/15 94/29/15 96/31/15 95/32/15
f 95/32/16 96/31/16 98/33/16 97/34/16
f 97/34/17 98/33/17 100/35/17 99/36/17
f 99/36/18 100/35/18 102/37/18 101/38/18
f 101/38/19 102/37/19 104/39/19 103/40/19
f 103/40/20 104/39/20 106/41/20 105/42/20
f 105/42/21 106/41/21 108/43/21 107/44/21
f 107/44/22 108/43/22 110/45/22 109/46/22
f 109/46/23 110/45/23 112/47/23 111/48/23
f 111/48/24 112/47/24 114/49/24 113/50/24
f 113/50/25 114/49/25 116/51/25 115/52/25
f 115/52/26 116/51/26 118/53/26 117/54/26
f 117/54/27 118/53/27 120/55/27 119/56/27
f 119/56/28 120/55/28 122/57/28 121/58/28
f 121/58/29 122/57/29 124/59/29 123/60/29
f 123/60/30 124/59/30 126/61/30 125/62/30
f 68/63/31 66/64/31 128/65/31 126/66/31 124/67/31 122/68/31 120/69/31 118/70/31 116/71/31 114/72/31 112/73/31 110/74/31 108/75/31 106/76/31 104/77/31 102/78/31 100/79/31 98/80/31 96/81/31 94/82/31 92/83/31 90/84/31 88/85/31 86/86/31 84/87/31 82/88/31 80/89/31 78/90/31 76/91/31 74/92/31 72/93/31 70/94/31
f 125/62/32 126/61/32 128/95/32 127/96/32
f 127/96/33 128/95/33 66/97/33 65/98/33
f 65/99/34 67/100/34 69/101/34 71/102/34 73/103/34 75/104/34 77/105/34 79/106/34 81/107/34 83/108/34 85/109/34 87/110/34 89/111/34 91/112/34 93/113/34 95/114/34 97/115/34 99/116/34 101/117/34 103/118/34 105/119/34 107/120/34 109/121/34 111/122/34 113/123/34 115/124/34 117/125/34 119/126/34 121/127/34 123/128/34 125/129/34 127/130/34
f 129/1/35 130/2/35 132/3/35 131/4/35
f 131/4/36 132/3/36 134/5/36 133/6/36
f 133/6/37 134/5/37 136/7/37 135/8/37
f 135/8/38 136/7/38 138/9/38 137/10/38
f 137/10/39 138/9/39 140/11/39 139/12/39
f 139/12/40 140/11/40 142/13/40 141/14/40
f 141/14/41 142/13/41 144/15/41 143/16/41
f 143/16/42 144/15/42 146/17/42 145/18/42
f 145/18/43 146/17/43 148/19/43 147/20/43
f 147/20/44 148/19/44 150/21/44 149/22/44
f 149/22/45 150/21/45 152/23/45 151/24/45
f 151/24/46 152/23/46 154/25/46 153/26/46
f 153/26/47 154/25/47 156/27/47 155/28/47
f 155/28/48 156/27/48 158/29/48 157/30/48
f 157/30/49 158/29/49 160/31/49 159/32/49
f 159/32/50 160/31/50 162/33/50 161/34/50
f 161/34/51 162/33/51 164/35/51 163/36/51
f 163/36/52 164/35/52 166/37/52 165/38/52
f 165/38/53 166/37/53 168/39/53 167/40/53
f 167/40/54 168/39/54 170/41/54 169/42/54
f 169/42/55 170/41/55 172/43/55 171/44/55
f 171/44/56 172/43/56 174/45/56 173/46/56
f 173/46/57 174/45/57 176/47/57 175/48/57
f 175/48/58 176/47/58 178/49/58 177/50/58
f 177/50/59 178/49/59 180/51/59 179/52/59
f 179/52/60 180/51/60 182/53/60 181/54/60
f 181/54/61 182/53/61 184/55/61 183/56/61
f 183/56/62 184/55/62 186/57/62 185/58/62
f 185/58/63 186/57/63 188/59/63 187/60/63
f 187/60/64 188/59/64 190/61/64 189/62/64
f 132/63/65 130/64/65 192/65/65 190/66/65 188/67/65 186/68/65 184/69/65 182/70/65 180/71/65 178/72/65 176/73/65 174/74/65 172/75/65 170/76/65 168/77/65 166/78/65 164/79/65 162/80/65 160/81/65 158/82/65 156/83/65 154/84/65 152/85/65 150/86/65 148/87/65 146/88/65 144/89/65 142/90/65 140/91/65 138/92/65 136/93/65 134/94/65
f 189/62/66 190/61/66 192/95/66 191/96/66
f 191/96/67 192/95/67 130/97/67 129/98/67
f 129/99/68 131/100/68 133/101/68 135/102/68 137/103/68 139/104/68 141/105/68 143/106/68 145/107/68 147/108/68 149/109/68 151/110/68 153/111/68 155/112/68 157/113/68 159/114/68 161/115/68 163/116/68 165/117/68 167/118/68 169/119/68 171/120/68 173/121/68 175/122/68 177/123/68 179/124/68 181/125/68 183/126/68 185/127/68 187/128/68 189/129/68 191/130/68
f 193/1/69 194/2/69 196/3/69 195/4/69
f 195/4/70 196/3/70 198/5/70 197/6/70
f 197/6/71 198/5/71 200/7/71 199/8/71
f 199/8/72 200/7/72 202/9/72 201/10/72
f 201/10/73 202/9/73 204/11/73 203/12/73
f 203/12/74 204/11/74 206/13/74 205/14/74
f 205/14/75 206/13/75 208/15/75 207/16/75
f 207/16/76 208/15/76 210/17/76 209/18/76
f 209/18/77 210/17/77 212/19/77 211/20/77
f 211/20/78 212/19/78 214/21/78 213/22/78
f 213/22/79 214/21/79 216/23/79 215/24/79
f 215/24/80 216/23/80 218/25/80 217/26/80
f 217/26/81 218/25/81 220/27/81 219/28/81
f 219/28/82 220/27/82 222/29/82 221/30/82
f 221/30/83 222/29/83 224/31/83 223/32/83
f 223/32/84 224/31/84 226/33/84 225/34/84
f 225/34/85 226/33/85 228/35/85 227/36/85
f 227/36/86 228/35/86 230/37/86 229/38/86
f 229/38/87 230/37/87 232/39/87 231/40/87
f 231/40/88 232/39/88 234/41/88 233/42/88
f 233/42/89 234/41/89 236/43/89 235/44/89
f 235/44/90 236/43/90 238/45/90 237/46/90
f 237/46/91 238/45/91 240/47/91 239/48/91
f 239/48/92 240/47/92 242/49/92 241/50/92
f 241/50/93 242/49/93 244/51/93 243/52/93
f 243/52/94 244/51/94 246/53/94 245/54/94
f 245/54/95 246/53/95 248/55/95 247/56/95
f 247/56/96 248/55/96 250/57/96 249/58/96
f 249/58/97 250/57/97 252/59/97 251/60/97
f 251/60/98 252/59/98 254/61/98 253/62/98
f 196/63/99 194/64/99 256/65/99 254/66/99 252/67/99 250/68/99 248/69/99 246/70/99 244/71/99 242/72/99 240/73/99 238/74/99 236/75/99 234/76/99 232/77/99 230/78/99 228/79/99 226/80/99 224/81/99 222/82/99 220/83/99 218/84/99 216/85/99 214/86/99 212/87/99 210/88/99 208/89/99 206/90/99 204/91/99 202/92/99 200/93/99 198/94/99
f 253/62/100 254/61/100 256/95/100 255/96/100
f 255/96/101 256/95/101 194/97/101 193/98/101
f 193/99/102 195/100/102 197/101/102 199/102/102 201/103/102 203/104/102 205/105/102 207/106/102 209/107/102 211/108/102 213/109/102 215/110/102 217/111/102 219/112/102 221/113/102 223/114/102 225/115/102 227/116/102 229/117/102 231/118/102 233/119/102 235/120/102 237/121/102 239/122/102 241/123/102 243/124/102 245/125/102 247/126/102 249/127/102 251/128/102 253/129/102 255/130/102
f 257/1/103 258/2/103 260/3/103 259/4/103
f 259/4/104 260/3/104 262/5/104 261/6/104
f 261/6/105 262/5/105 264/7/105 263/8/105
f 263/8/106 264/7/106 266/9/106 265/10/106
f 265/10/107 266/9/107 268/11/107 267/12/107
f 267/12/108 268/11/108 270/13/108 269/14/108
f 269/14/109 270/13/109 272/15/109 271/16/109
f 271/16/110 272/15/110 274/17/110 273/18/110
f 273/18/111 274/17/111 276/19/111 275/20/111
f 275/20/112 276/19/112 278/21/112 277/22/112
f 277/22/113 278/21/113 280/23/113 279/24/113
f 279/24/114 280/23/114 282/25/114 281/26/114
f 281/26/115 282/25/115 284/27/115 283/28/115
f 283/28/116 284/27/116 286/29/116 285/30/116
f 285/30/117 286/29/117 288/31/117 287/32/117
f 287/32/118 288/31/118 290/33/118 289/34/118
f 289/34/119 290/33/119 292/35/119 291/36/119
f 291/36/120 292/35/120 294/37/120 293/38/120
f 293/38/121 294/37/121 296/39/121 295/40/121
f 295/40/122 296/39/122 298/41/122 297/42/122
f 297/42/123 298/41/123 300/43/123 299/44/123
f 299/44/124 300/43/124 302/45/124 301/46/124
f 301/46/125 302/45/125 304/47/125 303/48/125
f 303/48/126 304/47/126 306/49/126 305/50/126
f 305/50/127 306/49/127 308/51/127 307/52/127
f 307/52/128 308/51/128 310/53/128 309/54/128
f 309/54/129 310/53/129 312/55/129 311/56/129
f 311/56/130 312/55/130 314/57/130 313/58/130
f 313/58/131 314/57/131 316/59/131 315/60/131
f 315/60/132 316/59/132 318/61/132 317/62/132
f 260/63/68 258/64/68 320/65/68 318/66/68 316/67/68 314/68/68 312/69/68 310/70/68 308/71/68 306/72/68 304/73/68 302/74/68 300/75/68 298/76/68 296/77/68 294/78/68 292/79/68 290/80/68 288/81/68 286/82/68 284/83/68 282/84/68 280/85/68 278/86/68 276/87/68 274/88/68 272/89/68 270/90/68 268/91/68 266/92/68 264/93/68 262/94/68
f 317/62/133 318/61/133 320/95/133 319/96/133
f 319/96/134 320/95/134 258/97/134 257/98/134
f 257/99/65 259/100/65 261/101/65 263/102/65 265/103/65 267/104/65 269/105/65 271/106/65 273/107/65 275/108/65 277/109/65 279/110/65 281/111/65 283/112/65 285/113/65 287/114/65 289/115/65 291/116/65 293/117/65 295/118/65 297/119/65 299/120/65 301/121/65 303/122/65 305/123/65 307/124/65 309/125/65 311/126/65 313/127/65 315/128/65 317/129/65 319/130/65
f 321/1/135 322/2/135 324/3/135 323/4/135
f 323/4/136 324/3/136 326/5/136 325/6/136
f 325/6/137 326/5/137 328/7/137 327/8/137
f 327/8/138 328/7/138 330/9/138 329/10/138
f 329/10/139 330/9/139 332/11/139 331/12/139
f 331/12/140 332/11/140 334/13/140 333/14/140
f 333/14/141 334/13/141 336/15/141 335/16/141
f 335/16/142 336/15/142 338/17/142 337/18/142
f 337/18/143 338/17/143 340/19/143 339/20/143
f 339/20/144 340/19/144 342/21/144 341/22/144
f 341/22/145 342/21/145 344/23/145 343/24/145
f 343/24/146 344/23/146 346/25/146 345/26/146
f 345/26/147 346/25/147 348/27/147 347/28/147
f 347/28/148 348/27/148 350/29/148 349/30/148
f 349/30/149 350/29/149 352/31/149 351/32/149
f 351/32/150 352/31/150 354/33/150 353/34/150
f 353/34/151 354/33/151 356/35/151 355/36/151
f 355/36/152 356/35/152 358/37/152 357/38/152
f 357/38/153 358/37/153 360/39/153 359/40/153
f 359/40/154 360/39/154 362/41/154 361/42/154
f 361/42/155 362/41/155 364/43/155 363/44/155
f 363/44/156 364/43/156 366/45/156 365/46/156
f 365/46/157 366/45/157 368/47/157 367/48/157
f 367/48/158 368/47/158 370/49/158 369/50/158
f 369/50/159 370/49/159 372/51/159 371/52/159
f 371/52/160 372/51/160 374/53/160 373/54/160
f 373/54/161 374/53/161 376/55/161 375/56/161
f 375/56/162 376/55/162 378/57/162 377/58/162
f 377/58/163 378/57/163 380/59/163 379/60/163
f 379/60/164 380/59/164 382/61/164 381/62/164
f 324/63/102 322/64/102 384/65/102 382/66/102 380/67/102 378/68/102 376/69/102 374/70/102 372/71/102 370/72/102 368/73/102 366/74/102 364/75/102 362/76/102 360/77/102 358/78/102 356/79/102 354/80/102 352/81/102 350/82/102 348/83/102 346/84/102 344/85/102 342/86/102 340/87/102 338/88/102 336/89/102 334/90/102 332/91/102 330/92/102 328/93/102 326/94/102
f 381/62/165 382/61/165 384/95/165 383/96/165
f 383/96/166 384/95/166 322/97/166 321/98/166
f 321/99/99 323/100/99 325/101/99 327/102/99 329/103/99 331/104/99 333/105/99 335/106/99 337/107/99 339/108/99 341/109/99 343/110/99 345/111/99 347/112/99 349/113/99 351/114/99 353/115/99 355/116/99 357/117/99 359/118/99 361/119/99 363/120/99 365/121/99 367/122/99 369/123/99 371/124/99 373/125/99 375/126/99 377/127/99 379/128/99 381/129/99 383/130/99
