# Blender 4.4.3
# www.blender.org
mtllib DoorFrame.mtl
o Plane.011
v -10.653000 0.000000 -28.089949
v -10.653000 0.000000 -27.110046
v -10.650001 1.990000 -27.109997
v -10.650001 1.990000 -28.089996
v -10.650001 2.050000 -28.149998
v -10.650001 0.000000 -27.049995
v -10.650001 2.050000 -27.049995
v -10.650001 0.000000 -28.149998
v -10.947001 0.000000 -28.089949
v -10.947001 0.000000 -27.110046
v -10.950001 1.990000 -27.109997
v -10.950001 1.990000 -28.089996
v -10.950001 2.050000 -28.149998
v -10.950001 0.000000 -27.049995
v -10.950001 2.050000 -27.049995
v -10.950001 0.000000 -28.149998
v 0.047001 0.000000 -18.489946
v 0.047001 0.000000 -17.510044
v 0.050000 1.990000 -17.509995
v 0.050000 1.990000 -18.489994
v 0.050000 2.050000 -18.549995
v 0.050000 0.000000 -17.449995
v 0.050000 2.050000 -17.449995
v 0.050000 0.000000 -18.549995
v -0.247000 0.000000 -18.489946
v -0.247000 0.000000 -17.510044
v -0.250000 1.990000 -17.509995
v -0.250000 1.990000 -18.489996
v -0.250000 2.050000 -18.549995
v -0.250000 0.000000 -17.449995
v -0.250000 2.050000 -17.449995
v -0.250000 0.000000 -18.549995
v -10.652999 0.000000 -18.489946
v -10.652999 0.000000 -17.510044
v -10.650000 1.990000 -17.509995
v -10.650000 1.990000 -18.489994
v -10.650000 2.050000 -18.549995
v -10.650000 0.000000 -17.449995
v -10.650000 2.050000 -17.449995
v -10.650000 0.000000 -18.549995
v -10.947000 0.000000 -18.489946
v -10.947000 0.000000 -17.510044
v -10.949999 1.990000 -17.509995
v -10.949999 1.990000 -18.489996
v -10.949999 2.050000 -18.549995
v -10.949999 0.000000 -17.449995
v -10.949999 2.050000 -17.449995
v -10.949999 0.000000 -18.549995
v -10.652999 0.000000 -9.489947
v -10.652999 0.000000 -8.510045
v -10.650000 1.990000 -8.509995
v -10.650000 1.990000 -9.489994
v -10.650000 2.050000 -9.549997
v -10.650000 0.000000 -8.449997
v -10.650000 2.050000 -8.449997
v -10.650000 0.000000 -9.549997
v -10.947000 0.000000 -9.489947
v -10.947000 0.000000 -8.510045
v -10.949999 1.990000 -8.509995
v -10.949999 1.990000 -9.489996
v -10.949999 2.050000 -9.549997
v -10.949999 0.000000 -8.449997
v -10.949999 2.050000 -8.449997
v -10.949999 0.000000 -9.549997
v -13.639951 0.000000 -6.146996
v -12.660048 0.000000 -6.146996
v -12.660000 1.990000 -6.149996
v -13.639998 1.990000 -6.149996
v -13.700000 2.050000 -6.149996
v -12.600000 0.000000 -6.149996
v -12.600000 2.050000 -6.149996
v -13.700000 0.000000 -6.149996
v -13.639951 0.000000 -5.852997
v -12.660048 0.000000 -5.852997
v -12.660000 1.990000 -5.849996
v -13.640000 1.990000 -5.849996
v -13.700000 2.050000 -5.849996
v -12.600000 0.000000 -5.849996
v -12.600000 2.050000 -5.849996
v -13.700000 0.000000 -5.849996
v -15.547001 0.000000 -2.310045
v -15.547001 0.000000 -3.289948
v -15.550000 1.990000 -3.289996
v -15.550000 1.990000 -2.309997
v -15.550000 2.050000 -2.249996
v -15.550000 0.000000 -3.349998
v -15.550000 2.050000 -3.349998
v -15.550000 0.000000 -2.249996
v -15.252999 0.000000 -2.310045
v -15.252999 0.000000 -3.289948
v -15.250000 1.990000 -3.289996
v -15.250000 1.990000 -2.309997
v -15.250000 2.050000 -2.249996
v -15.250000 0.000000 -3.349998
v -15.250000 2.050000 -3.349998
v -15.250000 0.000000 -2.249996
v -13.639951 0.000000 -11.946997
v -12.660048 0.000000 -11.946997
v -12.660000 1.990000 -11.949996
v -13.639998 1.990000 -11.949996
v -13.700000 2.050000 -11.949996
v -12.600000 0.000000 -11.949996
v -12.600000 2.050000 -11.949996
v -13.700000 0.000000 -11.949996
v -13.639951 0.000000 -11.652995
v -12.660048 0.000000 -11.652995
v -12.660000 1.990000 -11.649996
v -13.640000 1.990000 -11.649996
v -13.700000 2.050000 -11.649996
v -12.600000 0.000000 -11.649996
v -12.600000 2.050000 -11.649996
v -13.700000 0.000000 -11.649996
v -18.039951 0.000000 -11.946997
v -17.060049 0.000000 -11.946997
v -17.060001 1.990000 -11.949996
v -18.039999 1.990000 -11.949996
v -18.100002 2.050000 -11.949996
v -17.000002 0.000000 -11.949996
v -17.000002 2.050000 -11.949996
v -18.100002 0.000000 -11.949996
v -18.039951 0.000000 -11.652995
v -17.060049 0.000000 -11.652995
v -17.060001 1.990000 -11.649996
v -18.040001 1.990000 -11.649996
v -18.100002 2.050000 -11.649996
v -17.000002 0.000000 -11.649996
v -17.000002 2.050000 -11.649996
v -18.100002 0.000000 -11.649996
v -18.039951 0.000000 -25.946995
v -17.060049 0.000000 -25.946995
v -17.060001 1.990000 -25.949995
v -18.039999 1.990000 -25.949995
v -18.100002 2.050000 -25.949995
v -17.000002 0.000000 -25.949995
v -17.000002 2.050000 -25.949995
v -18.100002 0.000000 -25.949995
v -18.039951 0.000000 -25.652996
v -17.060049 0.000000 -25.652996
v -17.060001 1.990000 -25.649994
v -18.040001 1.990000 -25.649994
v -18.100002 2.050000 -25.649994
v -17.000002 0.000000 -25.649994
v -17.000002 2.050000 -25.649994
v -18.100002 0.000000 -25.649994
v -13.639951 0.000000 -25.946995
v -12.660048 0.000000 -25.946995
v -12.660000 1.990000 -25.949995
v -13.639998 1.990000 -25.949995
v -13.700000 2.050000 -25.949995
v -12.600000 0.000000 -25.949995
v -12.600000 2.050000 -25.949995
v -13.700000 0.000000 -25.949995
v -13.639951 0.000000 -25.652996
v -12.660048 0.000000 -25.652996
v -12.660000 1.990000 -25.649994
v -13.640000 1.990000 -25.649994
v -13.700000 2.050000 -25.649994
v -12.600000 0.000000 -25.649994
v -12.600000 2.050000 -25.649994
v -13.700000 0.000000 -25.649994
v -9.639952 0.000000 -11.946997
v -8.660050 0.000000 -11.946997
v -8.660001 1.990000 -11.949996
v -9.639999 1.990000 -11.949996
v -9.700001 2.050000 -11.949996
v -8.600001 0.000000 -11.949996
v -8.600001 2.050000 -11.949996
v -9.700001 0.000000 -11.949996
v -9.639952 0.000000 -11.652995
v -8.660050 0.000000 -11.652995
v -8.660001 1.990000 -11.649996
v -9.640001 1.990000 -11.649996
v -9.700001 2.050000 -11.649996
v -8.600001 0.000000 -11.649996
v -8.600001 2.050000 -11.649996
v -9.700001 0.000000 -11.649996
v -10.652999 0.000000 -23.689943
v -10.652999 0.000000 -22.710041
v -10.650000 1.990000 -22.709993
v -10.650000 1.990000 -23.689993
v -10.650000 2.050000 -23.749994
v -10.650000 0.000000 -22.649994
v -10.650000 2.050000 -22.649994
v -10.650000 0.000000 -23.749994
v -10.947000 0.000000 -23.689943
v -10.947000 0.000000 -22.710041
v -10.949999 1.990000 -22.709993
v -10.949999 1.990000 -23.689993
v -10.949999 2.050000 -23.749994
v -10.949999 0.000000 -22.649994
v -10.949999 2.050000 -22.649994
v -10.949999 0.000000 -23.749994
vn 0.9997 -0.0007 0.0246
vn 0.9997 -0.0007 -0.0246
vn 1.0000 -0.0000 -0.0000
vn -0.9997 -0.0007 0.0246
vn -0.9997 -0.0007 -0.0246
vn -1.0000 -0.0000 -0.0000
vn -0.0000 -0.0000 1.0000
vn -0.0000 -1.0000 -0.0000
vn -0.0000 -0.0000 -1.0000
vn -0.0000 1.0000 -0.0000
vn 0.0246 -0.0007 -0.9997
vn -0.0246 -0.0007 -0.9997
vn 0.0246 -0.0007 0.9997
vn -0.0246 -0.0007 0.9997
vt 0.000000 0.000000
s 0
f 4/1/1 1/1/1 8/1/1 5/1/1
f 3/1/2 7/1/2 6/1/2 2/1/2
f 5/1/3 7/1/3 3/1/3 4/1/3
f 12/1/4 13/1/4 16/1/4 9/1/4
f 11/1/5 10/1/5 14/1/5 15/1/5
f 13/1/6 12/1/6 11/1/6 15/1/6
f 4/1/7 12/1/7 9/1/7 1/1/7
f 6/1/8 14/1/8 10/1/8 2/1/8
f 8/1/9 16/1/9 13/1/9 5/1/9
f 2/1/9 10/1/9 11/1/9 3/1/9
f 5/1/10 13/1/10 15/1/10 7/1/10
f 3/1/8 11/1/8 12/1/8 4/1/8
f 7/1/7 15/1/7 14/1/7 6/1/7
f 1/1/8 9/1/8 16/1/8 8/1/8
f 20/1/1 17/1/1 24/1/1 21/1/1
f 19/1/2 23/1/2 22/1/2 18/1/2
f 21/1/3 23/1/3 19/1/3 20/1/3
f 28/1/4 29/1/4 32/1/4 25/1/4
f 27/1/5 26/1/5 30/1/5 31/1/5
f 29/1/6 28/1/6 27/1/6 31/1/6
f 20/1/7 28/1/7 25/1/7 17/1/7
f 22/1/8 30/1/8 26/1/8 18/1/8
f 24/1/9 32/1/9 29/1/9 21/1/9
f 18/1/9 26/1/9 27/1/9 19/1/9
f 21/1/10 29/1/10 31/1/10 23/1/10
f 19/1/8 27/1/8 28/1/8 20/1/8
f 23/1/7 31/1/7 30/1/7 22/1/7
f 17/1/8 25/1/8 32/1/8 24/1/8
f 36/1/1 33/1/1 40/1/1 37/1/1
f 35/1/2 39/1/2 38/1/2 34/1/2
f 37/1/3 39/1/3 35/1/3 36/1/3
f 44/1/4 45/1/4 48/1/4 41/1/4
f 43/1/5 42/1/5 46/1/5 47/1/5
f 45/1/6 44/1/6 43/1/6 47/1/6
f 36/1/7 44/1/7 41/1/7 33/1/7
f 38/1/8 46/1/8 42/1/8 34/1/8
f 40/1/9 48/1/9 45/1/9 37/1/9
f 34/1/9 42/1/9 43/1/9 35/1/9
f 37/1/10 45/1/10 47/1/10 39/1/10
f 35/1/8 43/1/8 44/1/8 36/1/8
f 39/1/7 47/1/7 46/1/7 38/1/7
f 33/1/8 41/1/8 48/1/8 40/1/8
f 52/1/1 49/1/1 56/1/1 53/1/1
f 51/1/2 55/1/2 54/1/2 50/1/2
f 53/1/3 55/1/3 51/1/3 52/1/3
f 60/1/4 61/1/4 64/1/4 57/1/4
f 59/1/5 58/1/5 62/1/5 63/1/5
f 61/1/6 60/1/6 59/1/6 63/1/6
f 52/1/7 60/1/7 57/1/7 49/1/7
f 54/1/8 62/1/8 58/1/8 50/1/8
f 56/1/9 64/1/9 61/1/9 53/1/9
f 50/1/9 58/1/9 59/1/9 51/1/9
f 53/1/10 61/1/10 63/1/10 55/1/10
f 51/1/8 59/1/8 60/1/8 52/1/8
f 55/1/7 63/1/7 62/1/7 54/1/7
f 49/1/8 57/1/8 64/1/8 56/1/8
f 68/1/11 65/1/11 72/1/11 69/1/11
f 67/1/12 71/1/12 70/1/12 66/1/12
f 69/1/9 71/1/9 67/1/9 68/1/9
f 76/1/13 77/1/13 80/1/13 73/1/13
f 75/1/14 74/1/14 78/1/14 79/1/14
f 77/1/7 76/1/7 75/1/7 79/1/7
f 68/1/3 76/1/3 73/1/3 65/1/3
f 70/1/8 78/1/8 74/1/8 66/1/8
f 72/1/6 80/1/6 77/1/6 69/1/6
f 66/1/6 74/1/6 75/1/6 67/1/6
f 69/1/10 77/1/10 79/1/10 71/1/10
f 67/1/8 75/1/8 76/1/8 68/1/8
f 71/1/3 79/1/3 78/1/3 70/1/3
f 65/1/8 73/1/8 80/1/8 72/1/8
f 84/1/5 81/1/5 88/1/5 85/1/5
f 83/1/4 87/1/4 86/1/4 82/1/4
f 85/1/6 87/1/6 83/1/6 84/1/6
f 92/1/2 93/1/2 96/1/2 89/1/2
f 91/1/1 90/1/1 94/1/1 95/1/1
f 93/1/3 92/1/3 91/1/3 95/1/3
f 84/1/9 92/1/9 89/1/9 81/1/9
f 86/1/8 94/1/8 90/1/8 82/1/8
f 88/1/7 96/1/7 93/1/7 85/1/7
f 82/1/7 90/1/7 91/1/7 83/1/7
f 85/1/10 93/1/10 95/1/10 87/1/10
f 83/1/8 91/1/8 92/1/8 84/1/8
f 87/1/9 95/1/9 94/1/9 86/1/9
f 81/1/8 89/1/8 96/1/8 88/1/8
f 100/1/11 97/1/11 104/1/11 101/1/11
f 99/1/12 103/1/12 102/1/12 98/1/12
f 101/1/9 103/1/9 99/1/9 100/1/9
f 108/1/13 109/1/13 112/1/13 105/1/13
f 107/1/14 106/1/14 110/1/14 111/1/14
f 109/1/7 108/1/7 107/1/7 111/1/7
f 100/1/3 108/1/3 105/1/3 97/1/3
f 102/1/8 110/1/8 106/1/8 98/1/8
f 104/1/6 112/1/6 109/1/6 101/1/6
f 98/1/6 106/1/6 107/1/6 99/1/6
f 101/1/10 109/1/10 111/1/10 103/1/10
f 99/1/8 107/1/8 108/1/8 100/1/8
f 103/1/3 111/1/3 110/1/3 102/1/3
f 97/1/8 105/1/8 112/1/8 104/1/8
f 116/1/11 113/1/11 120/1/11 117/1/11
f 115/1/12 119/1/12 118/1/12 114/1/12
f 117/1/9 119/1/9 115/1/9 116/1/9
f 124/1/13 125/1/13 128/1/13 121/1/13
f 123/1/14 122/1/14 126/1/14 127/1/14
f 125/1/7 124/1/7 123/1/7 127/1/7
f 116/1/3 124/1/3 121/1/3 113/1/3
f 118/1/8 126/1/8 122/1/8 114/1/8
f 120/1/6 128/1/6 125/1/6 117/1/6
f 114/1/6 122/1/6 123/1/6 115/1/6
f 117/1/10 125/1/10 127/1/10 119/1/10
f 115/1/8 123/1/8 124/1/8 116/1/8
f 119/1/3 127/1/3 126/1/3 118/1/3
f 113/1/8 121/1/8 128/1/8 120/1/8
f 132/1/11 129/1/11 136/1/11 133/1/11
f 131/1/12 135/1/12 134/1/12 130/1/12
f 133/1/9 135/1/9 131/1/9 132/1/9
f 140/1/13 141/1/13 144/1/13 137/1/13
f 139/1/14 138/1/14 142/1/14 143/1/14
f 141/1/7 140/1/7 139/1/7 143/1/7
f 132/1/3 140/1/3 137/1/3 129/1/3
f 134/1/8 142/1/8 138/1/8 130/1/8
f 136/1/6 144/1/6 141/1/6 133/1/6
f 130/1/6 138/1/6 139/1/6 131/1/6
f 133/1/10 141/1/10 143/1/10 135/1/10
f 131/1/8 139/1/8 140/1/8 132/1/8
f 135/1/3 143/1/3 142/1/3 134/1/3
f 129/1/8 137/1/8 144/1/8 136/1/8
f 148/1/11 145/1/11 152/1/11 149/1/11
f 147/1/12 151/1/12 150/1/12 146/1/12
f 149/1/9 151/1/9 147/1/9 148/1/9
f 156/1/13 157/1/13 160/1/13 153/1/13
f 155/1/14 154/1/14 158/1/14 159/1/14
f 157/1/7 156/1/7 155/1/7 159/1/7
f 148/1/3 156/1/3 153/1/3 145/1/3
f 150/1/8 158/1/8 154/1/8 146/1/8
f 152/1/6 160/1/6 157/1/6 149/1/6
f 146/1/6 154/1/6 155/1/6 147/1/6
f 149/1/10 157/1/10 159/1/10 151/1/10
f 147/1/8 155/1/8 156/1/8 148/1/8
f 151/1/3 159/1/3 158/1/3 150/1/3
f 145/1/8 153/1/8 160/1/8 152/1/8
f 164/1/11 161/1/11 168/1/11 165/1/11
f 163/1/12 167/1/12 166/1/12 162/1/12
f 165/1/9 167/1/9 163/1/9 164/1/9
f 172/1/13 173/1/13 176/1/13 169/1/13
f 171/1/14 170/1/14 174/1/14 175/1/14
f 173/1/7 172/1/7 171/1/7 175/1/7
f 164/1/3 172/1/3 169/1/3 161/1/3
f 166/1/8 174/1/8 170/1/8 162/1/8
f 168/1/6 176/1/6 173/1/6 165/1/6
f 162/1/6 170/1/6 171/1/6 163/1/6
f 165/1/10 173/1/10 175/1/10 167/1/10
f 163/1/8 171/1/8 172/1/8 164/1/8
f 167/1/3 175/1/3 174/1/3 166/1/3
f 161/1/8 169/1/8 176/1/8 168/1/8
f 180/1/1 177/1/1 184/1/1 181/1/1
f 179/1/2 183/1/2 182/1/2 178/1/2
f 181/1/3 183/1/3 179/1/3 180/1/3
f 188/1/4 189/1/4 192/1/4 185/1/4
f 187/1/5 186/1/5 190/1/5 191/1/5
f 189/1/6 188/1/6 187/1/6 191/1/6
f 180/1/7 188/1/7 185/1/7 177/1/7
f 182/1/8 190/1/8 186/1/8 178/1/8
f 184/1/9 192/1/9 189/1/9 181/1/9
f 178/1/9 186/1/9 187/1/9 179/1/9
f 181/1/10 189/1/10 191/1/10 183/1/10
f 179/1/8 187/1/8 188/1/8 180/1/8
f 183/1/7 191/1/7 190/1/7 182/1/7
f 177/1/8 185/1/8 192/1/8 184/1/8
