o Extruded.003
v -10.899999618530273 27.100000381469727 -0.10000000149011612
v -10.899999618530273 27.100000381469727 0
v -10.899999618530273 28.100000381469727 0
v -10.899999618530273 28.100000381469727 -0.10000000149011612
v -10.699999809265137 28.100000381469727 0
v -10.699999809265137 28.100000381469727 -0.10000000149011612
v -10.699999809265137 27.100000381469727 0
v -10.699999809265137 27.100000381469727 -0.10000000149011612
vn -1 0 0
vn -1 0 0
vn -1 0 0
vn -1 0 0
vn 0 1 0
vn 0 1 0
vn 0 1 0
vn 0 1 0
vn 1 0 0
vn 1 0 0
vn 1 0 0
vn 1 0 0
vn 0 -1 0
vn 0 -1 0
vn 0 -1 0
vn 0 -1 0
vn 0 0 -1
vn 0 0 -1
vn 0 0 -1
vn 0 0 -1
vn 0 0 1
vn 0 0 1
vn 0 0 1
vn 0 0 1
f 1//1 2//2 3//3
f 3//3 4//4 1//1
f 4//5 3//6 5//7
f 5//7 6//8 4//5
f 6//9 5//10 7//11
f 7//11 8//12 6//9
f 8//13 7//14 2//15
f 2//15 1//16 8//13
f 8//17 1//18 4//19
f 4//19 6//20 8//17
f 5//21 3//22 2//23
f 2//23 7//24 5//21
o Extruded.002
v -15.300000190734863 3.299999952316284 -0.10000000149011612
v -15.300000190734863 3.299999952316284 0
v -15.300000190734863 2.299999952316284 0
v -15.300000190734863 2.299999952316284 -0.10000000149011612
v -15.5 2.299999952316284 0
v -15.5 2.299999952316284 -0.10000000149011612
v -15.5 3.299999952316284 0
v -15.5 3.299999952316284 -0.10000000149011612
vn 1 0 0
vn 1 0 0
vn 1 0 0
vn 1 0 0
vn -2.220446049250313e-15 -1 0
vn -2.220446049250313e-15 -1 0
vn -2.220446049250313e-15 -1 0
vn -2.220446049250313e-15 -1 0
vn -1 0 0
vn -1 0 0
vn -1 0 0
vn -1 0 0
vn 0 1 0
vn 0 1 0
vn 0 1 0
vn 0 1 0
vn 0 0 -1
vn 0 0 -1
vn 0 0 -1
vn 0 0 -1
vn 0 0 1
vn 0 0 1
vn 0 0 1
vn 0 0 1
f 9//25 10//26 11//27
f 11//27 12//28 9//25
f 12//29 11//30 13//31
f 13//31 14//32 12//29
f 14//33 13//34 15//35
f 15//35 16//36 14//33
f 16//37 15//38 10//39
f 10//39 9//40 16//37
f 9//41 12//42 14//43
f 14//43 16//44 9//41
f 10//45 15//46 13//47
f 13//47 11//48 10//45
o Extruded.001
v -15.5 0.20000000298023224 -0.10000000149011612
v -15.5 0.20000000298023224 0
v -19.799999237060547 0.20000000298023224 0
v -19.799999237060547 0.20000000298023224 -0.10000000149011612
v -19.799999237060547 11.699999809265137 0
v -19.799999237060547 11.699999809265137 -0.10000000149011612
v -18.049999237060547 11.699999809265137 0
v -18.049999237060547 11.699999809265137 -0.10000000149011612
v -18.049999237060547 11.899999618530273 0
v -18.049999237060547 11.899999618530273 -0.10000000149011612
v -19.799999237060547 11.899999618530273 0
v -19.799999237060547 11.899999618530273 -0.10000000149011612
v -19.799999237060547 25.700000762939453 0
v -19.799999237060547 25.700000762939453 -0.10000000149011612
v -18.049999237060547 25.700000762939453 0
v -18.049999237060547 25.700000762939453 -0.10000000149011612
v -18.049999237060547 25.899999618530273 0
v -18.049999237060547 25.899999618530273 -0.10000000149011612
v -19.799999237060547 25.899999618530273 0
v -19.799999237060547 25.899999618530273 -0.10000000149011612
v -19.799999237060547 36.400001525878906 0
v -19.799999237060547 36.400001525878906 -0.10000000149011612
v -15.5 36.400001525878906 0
v -15.5 36.400001525878906 -0.10000000149011612
v -15.5 25.899999618530273 0
v -15.5 25.899999618530273 -0.10000000149011612
v -17.049999237060547 25.899999618530273 0
v -17.049999237060547 25.899999618530273 -0.10000000149011612
v -17.049999237060547 25.700000762939453 0
v -17.049999237060547 25.700000762939453 -0.10000000149011612
v -13.649999618530273 25.700000762939453 0
v -13.649999618530273 25.700000762939453 -0.10000000149011612
v -13.649999618530273 25.899999618530273 0
v -13.649999618530273 25.899999618530273 -0.10000000149011612
v -15.300000190734863 25.899999618530273 0
v -15.300000190734863 25.899999618530273 -0.10000000149011612
v -15.300000190734863 36.400001525878906 0
v -15.300000190734863 36.400001525878906 -0.10000000149011612
v -10.899999618530273 36.400001525878906 0
v -10.899999618530273 36.400001525878906 -0.10000000149011612
v -10.899999618530273 25.899999618530273 0
v -10.899999618530273 25.899999618530273 -0.10000000149011612
v -12.649999618530273 25.899999618530273 0
v -12.649999618530273 25.899999618530273 -0.10000000149011612
v -12.649999618530273 25.700000762939453 0
v -12.649999618530273 25.700000762939453 -0.10000000149011612
v -10.899999618530273 25.700000762939453 0
v -10.899999618530273 25.700000762939453 -0.10000000149011612
v -10.899999618530273 23.700000762939453 0
v -10.899999618530273 23.700000762939453 -0.10000000149011612
v -10.699999809265137 23.700000762939453 0
v -10.699999809265137 23.700000762939453 -0.10000000149011612
v -10.699999809265137 36.400001525878906 0
v -10.699999809265137 36.400001525878906 -0.10000000149011612
v -4.099999904632568 36.400001525878906 0
v -4.099999904632568 36.400001525878906 -0.10000000149011612
v -4.099999904632568 20.5 0
v -4.099999904632568 20.5 -0.10000000149011612
v -10.699999809265137 20.5 0
v -10.699999809265137 20.5 -0.10000000149011612
v -10.699999809265137 22.700000762939453 0
v -10.699999809265137 22.700000762939453 -0.10000000149011612
v -10.899999618530273 22.700000762939453 0
v -10.899999618530273 22.700000762939453 -0.10000000149011612
v -10.899999618530273 18.5 0
v -10.899999618530273 18.5 -0.10000000149011612
v -10.699999809265137 18.5 0
v -10.699999809265137 18.5 -0.10000000149011612
v -10.699999809265137 20.299999237060547 0
v -10.699999809265137 20.299999237060547 -0.10000000149011612
v -0.20000000298023224 20.299999237060547 0
v -0.20000000298023224 20.299999237060547 -0.10000000149011612
v -0.20000000298023224 18.5 0
v -0.20000000298023224 18.5 -0.10000000149011612
v 0 18.5 0
v 0 18.5 -0.10000000149011612
v 0 17.5 0
v 0 17.5 -0.10000000149011612
v -0.20000000298023224 17.5 0
v -0.20000000298023224 17.5 -0.10000000149011612
v -0.20000000298023224 15.600000381469727 0
v -0.20000000298023224 15.600000381469727 -0.10000000149011612
v -10.699999809265137 15.600000381469727 0
v -10.699999809265137 15.600000381469727 -0.10000000149011612
v -10.699999809265137 17.5 0
v -10.699999809265137 17.5 -0.10000000149011612
v -10.899999618530273 17.5 0
v -10.899999618530273 17.5 -0.10000000149011612
v -10.899999618530273 11.899999618530273 0
v -10.899999618530273 11.899999618530273 -0.10000000149011612
v -12.649999618530273 11.899999618530273 0
v -12.649999618530273 11.899999618530273 -0.10000000149011612
v -12.649999618530273 11.699999809265137 0
v -12.649999618530273 11.699999809265137 -0.10000000149011612
v -10.899999618530273 11.699999809265137 0
v -10.899999618530273 11.699999809265137 -0.10000000149011612
v -10.899999618530273 9.5 0
v -10.899999618530273 9.5 -0.10000000149011612
v -10.699999809265137 9.5 0
v -10.699999809265137 9.5 -0.10000000149011612
v -10.699999809265137 11.699999809265137 0
v -10.699999809265137 11.699999809265137 -0.10000000149011612
v -9.649999618530273 11.699999809265137 0
v -9.649999618530273 11.699999809265137 -0.10000000149011612
v -9.649999618530273 11.899999618530273 0
v -9.649999618530273 11.899999618530273 -0.10000000149011612
v -10.699999809265137 11.899999618530273 0
v -10.699999809265137 11.899999618530273 -0.10000000149011612
v -10.699999809265137 15.399999618530273 0
v -10.699999809265137 15.399999618530273 -0.10000000149011612
v -7.5 15.399999618530273 0
v -7.5 15.399999618530273 -0.10000000149011612
v -7.5 11.899999618530273 0
v -7.5 11.899999618530273 -0.10000000149011612
v -8.649999618530273 11.899999618530273 0
v -8.649999618530273 11.899999618530273 -0.10000000149011612
v -8.649999618530273 11.699999809265137 0
v -8.649999618530273 11.699999809265137 -0.10000000149011612
v -7.300000190734863 11.699999809265137 0
v -7.300000190734863 11.699999809265137 -0.10000000149011612
v -7.300000190734863 15.399999618530273 0
v -7.300000190734863 15.399999618530273 -0.10000000149011612
v -0.20000000298023224 15.399999618530273 0
v -0.20000000298023224 15.399999618530273 -0.10000000149011612
v -0.20000000298023224 0.20000000298023224 0
v -0.20000000298023224 0.20000000298023224 -0.10000000149011612
v -10.699999809265137 0.20000000298023224 0
v -10.699999809265137 0.20000000298023224 -0.10000000149011612
v -10.699999809265137 8.5 0
v -10.699999809265137 8.5 -0.10000000149011612
v -10.899999618530273 8.5 0
v -10.899999618530273 8.5 -0.10000000149011612
v -10.899999618530273 6.099999904632568 0
v -10.899999618530273 6.099999904632568 -0.10000000149011612
v -12.649999618530273 6.099999904632568 0
v -12.649999618530273 6.099999904632568 -0.10000000149011612
v -12.649999618530273 5.900000095367432 0
v -12.649999618530273 5.900000095367432 -0.10000000149011612
v -10.899999618530273 5.900000095367432 0
v -10.899999618530273 5.900000095367432 -0.10000000149011612
v -10.899999618530273 0.20000000298023224 0
v -10.899999618530273 0.20000000298023224 -0.10000000149011612
v -15.300000190734863 0.20000000298023224 0
v -15.300000190734863 0.20000000298023224 -0.10000000149011612
v -15.300000190734863 5.900000095367432 0
v -15.300000190734863 5.900000095367432 -0.10000000149011612
v -13.649999618530273 5.900000095367432 0
v -13.649999618530273 5.900000095367432 -0.10000000149011612
v -13.649999618530273 6.099999904632568 0
v -13.649999618530273 6.099999904632568 -0.10000000149011612
v -15.300000190734863 6.099999904632568 0
v -15.300000190734863 6.099999904632568 -0.10000000149011612
v -15.300000190734863 11.699999809265137 0
v -15.300000190734863 11.699999809265137 -0.10000000149011612
v -13.649999618530273 11.699999809265137 0
v -13.649999618530273 11.699999809265137 -0.10000000149011612
v -13.649999618530273 11.899999618530273 0
v -13.649999618530273 11.899999618530273 -0.10000000149011612
v -17.049999237060547 11.899999618530273 0
v -17.049999237060547 11.899999618530273 -0.10000000149011612
v -17.049999237060547 11.699999809265137 -0.10000000149011612
v -15.5 11.699999809265137 -0.10000000149011612
v -17.049999237060547 11.699999809265137 0
v -15.5 11.699999809265137 0
vn 2.7110096805151734e-16 -1 0
vn 2.7110096805151734e-16 -1 0
vn 2.7110096805151734e-16 -1 0
vn 2.7110096805151734e-16 -1 0
vn -1 0 0
vn -1 0 0
vn -1 0 0
vn -1 0 0
vn 0 1 0
vn 0 1 0
vn 0 1 0
vn 0 1 0
vn -1 0 0
vn -1 0 0
vn -1 0 0
vn -1 0 0
vn 0 -1 0
vn 0 -1 0
vn 0 -1 0
vn 0 -1 0
vn -1 0 0
vn -1 0 0
vn -1 0 0
vn -1 0 0
vn 0 1 0
vn 0 1 0
vn 0 1 0
vn 0 1 0
vn -1 0 0
vn -1 0 0
vn -1 0 0
vn -1 0 0
vn 0 -1 0
vn 0 -1 0
vn 0 -1 0
vn 0 -1 0
vn -1 0 0
vn -1 0 0
vn -1 0 0
vn -1 0 0
vn 0 1 0
vn 0 1 0
vn 0 1 0
vn 0 1 0
vn 1 0 0
vn 1 0 0
vn 1 0 0
vn 1 0 0
vn 0 -1 0
vn 0 -1 0
vn 0 -1 0
vn 0 -1 0
vn 1 0 0
vn 1 0 0
vn 1 0 0
vn 1 0 0
vn 0 1 0
vn 0 1 0
vn 0 1 0
vn 0 1 0
vn -1 0 0
vn -1 0 0
vn -1 0 0
vn -1 0 0
vn 0 -1 0
vn 0 -1 0
vn 0 -1 0
vn 0 -1 0
vn -1 0 0
vn -1 0 0
vn -1 0 0
vn -1 0 0
vn 0 1 0
vn 0 1 0
vn 0 1 0
vn 0 1 0
vn 1 0 0
vn 1 0 0
vn 1 0 0
vn 1 0 0
vn 0 -1 0
vn 0 -1 0
vn 0 -1 0
vn 0 -1 0
vn 1 0 0
vn 1 0 0
vn 1 0 0
vn 1 0 0
vn 0 1 0
vn 0 1 0
vn 0 1 0
vn 0 1 0
vn 1 0 0
vn 1 0 0
vn 1 0 0
vn 1 0 0
vn 0 1 0
vn 0 1 0
vn 0 1 0
vn 0 1 0
vn -1 0 0
vn -1 0 0
vn -1 0 0
vn -1 0 0
vn 0 1 0
vn 0 1 0
vn 0 1 0
vn 0 1 0
vn 1 0 0
vn 1 0 0
vn 1 0 0
vn 1 0 0
vn 0 -1 0
vn 0 -1 0
vn 0 -1 0
vn 0 -1 0
vn -1 0 0
vn -1 0 0
vn -1 0 0
vn -1 0 0
vn 0 -1 0
vn 0 -1 0
vn 0 -1 0
vn 0 -1 0
vn 1 0 0
vn 1 0 0
vn 1 0 0
vn 1 0 0
vn 0 1 0
vn 0 1 0
vn 0 1 0
vn 0 1 0
vn -1 0 0
vn -1 0 0
vn -1 0 0
vn -1 0 0
vn 0 1 0
vn 0 1 0
vn 0 1 0
vn 0 1 0
vn 1 2.00456937942851e-16 0
vn 1 2.00456937942851e-16 0
vn 1 2.00456937942851e-16 0
vn 1 2.00456937942851e-16 0
vn 0 1 0
vn 0 1 0
vn 0 1 0
vn 0 1 0
vn 1 2.00456937942851e-16 0
vn 1 2.00456937942851e-16 0
vn 1 2.00456937942851e-16 0
vn 1 2.00456937942851e-16 0
vn 0 -1 0
vn 0 -1 0
vn 0 -1 0
vn 0 -1 0
vn 1 0 0
vn 1 0 0
vn 1 0 0
vn 1 0 0
vn 0 -1 0
vn 0 -1 0
vn 0 -1 0
vn 0 -1 0
vn -1 0 0
vn -1 0 0
vn -1 0 0
vn -1 0 0
vn 0 -1 0
vn 0 -1 0
vn 0 -1 0
vn 0 -1 0
vn 1 0 0
vn 1 0 0
vn 1 0 0
vn 1 0 0
vn 0 -1 0
vn 0 -1 0
vn 0 -1 0
vn 0 -1 0
vn 1 0 0
vn 1 0 0
vn 1 0 0
vn 1 0 0
vn -1.0150610964626224e-15 1 0
vn -1.0150610964626224e-15 1 0
vn -1.0150610964626224e-15 1 0
vn -1.0150610964626224e-15 1 0
vn 1 0 0
vn 1 0 0
vn 1 0 0
vn 1 0 0
vn -1.0150610964626224e-15 1 0
vn -1.0150610964626224e-15 1 0
vn -1.0150610964626224e-15 1 0
vn -1.0150610964626224e-15 1 0
vn -1 0 0
vn -1 0 0
vn -1 0 0
vn -1 0 0
vn -1.0150610964626224e-15 1 0
vn -1.0150610964626224e-15 1 0
vn -1.0150610964626224e-15 1 0
vn -1.0150610964626224e-15 1 0
vn -1 0 0
vn -1 0 0
vn -1 0 0
vn -1 0 0
vn 0 -1 0
vn 0 -1 0
vn 0 -1 0
vn 0 -1 0
vn -1 0 0
vn -1 0 0
vn -1 0 0
vn -1 0 0
vn 0 1 0
vn 0 1 0
vn 0 1 0
vn 0 1 0
vn 1 0 0
vn 1 0 0
vn 1 0 0
vn 1 0 0
vn 0 -1 0
vn 0 -1 0
vn 0 -1 0
vn 0 -1 0
vn 1 0 0
vn 1 0 0
vn 1 0 0
vn 1 0 0
vn 0 1 0
vn 0 1 0
vn 0 1 0
vn 0 1 0
vn -1 0 0
vn -1 0 0
vn -1 0 0
vn -1 0 0
vn 0 1 0
vn 0 1 0
vn 0 1 0
vn 0 1 0
vn 1 0 0
vn 1 0 0
vn 1 0 0
vn 1 0 0
vn 3.436404726076816e-17 -1 0
vn 3.436404726076816e-17 -1 0
vn 3.436404726076816e-17 -1 0
vn 3.436404726076816e-17 -1 0
vn -1 0 0
vn -1 0 0
vn -1 0 0
vn -1 0 0
vn 3.436404726076816e-17 -1 0
vn 3.436404726076816e-17 -1 0
vn 3.436404726076816e-17 -1 0
vn 3.436404726076816e-17 -1 0
vn 1 0 0
vn 1 0 0
vn 1 0 0
vn 1 0 0
vn -5.075305482313112e-16 -1 0
vn -5.075305482313112e-16 -1 0
vn -5.075305482313112e-16 -1 0
vn -5.075305482313112e-16 -1 0
vn 1 0 0
vn 1 0 0
vn 1 0 0
vn 1 0 0
vn 5.075305482313112e-16 1 0
vn 5.075305482313112e-16 1 0
vn 5.075305482313112e-16 1 0
vn 5.075305482313112e-16 1 0
vn 1 0 0
vn 1 0 0
vn 1 0 0
vn 1 0 0
vn 1.8924256251961643e-17 -1 0
vn 1.8924256251961643e-17 -1 0
vn 1.8924256251961643e-17 -1 0
vn 1.8924256251961643e-17 -1 0
vn -1 0 0
vn -1 0 0
vn -1 0 0
vn -1 0 0
vn 0 1 0
vn 0 1 0
vn 0 1 0
vn 0 1 0
vn -1 0 0
vn -1 0 0
vn -1 0 0
vn -1 0 0
vn 5.382899673756999e-16 -1 0
vn 5.382899673756999e-16 -1 0
vn 5.382899673756999e-16 -1 0
vn 5.382899673756999e-16 -1 0
vn -1 0 0
vn -1 0 0
vn -1 0 0
vn -1 0 0
vn 0 1 0
vn 0 1 0
vn 0 1 0
vn 0 1 0
vn -1 0 0
vn -1 0 0
vn -1 0 0
vn -1 0 0
vn 0 -1 0
vn 0 -1 0
vn 0 -1 0
vn 0 -1 0
vn 0 0 -1
vn 0 0 -1
vn 0 0 -1
vn 0 0 -1
vn 0 0 -1
vn 0 0 -1
vn 0 0 -1
vn 0 0 -1
vn 0 0 -1
vn 0 0 -1
vn 0 0 -1
vn 0 0 -1
vn 0 0 -1
vn 0 0 -1
vn 0 0 -1
vn 0 0 -1
vn 0 0 -1
vn 0 0 -1
vn 0 0 -1
vn 0 0 -1
vn 0 0 -1
vn 0 0 -1
vn 0 0 -1
vn 0 0 -1
vn 0 0 -1
vn 0 0 -1
vn 0 0 -1
vn 0 0 -1
vn 0 0 -1
vn 0 0 -1
vn 0 0 -1
vn 0 0 -1
vn 0 0 -1
vn 0 0 -1
vn 0 0 -1
vn 0 0 -1
vn 0 0 -1
vn 0 0 -1
vn 0 0 -1
vn 0 0 -1
vn 0 0 -1
vn 0 0 -1
vn 0 0 -1
vn 0 0 -1
vn 0 0 -1
vn 0 0 -1
vn 0 0 -1
vn 0 0 -1
vn 0 0 -1
vn 0 0 -1
vn 0 0 -1
vn 0 0 -1
vn 0 0 -1
vn 0 0 -1
vn 0 0 -1
vn 0 0 -1
vn 0 0 -1
vn 0 0 -1
vn 0 0 -1
vn 0 0 -1
vn 0 0 -1
vn 0 0 -1
vn 0 0 -1
vn 0 0 -1
vn 0 0 -1
vn 0 0 -1
vn 0 0 -1
vn 0 0 -1
vn 0 0 -1
vn 0 0 -1
vn 0 0 -1
vn 0 0 -1
vn 0 0 -1
vn 0 0 -1
vn 0 0 -1
vn 0 0 -1
vn 0 0 -1
vn 0 0 -1
vn 0 0 -1
vn 0 0 -1
vn 0 0 -1
vn 0 0 -1
vn 0 0 1
vn 0 0 1
vn 0 0 1
vn 0 0 1
vn 0 0 1
vn 0 0 1
vn 0 0 1
vn 0 0 1
vn 0 0 1
vn 0 0 1
vn 0 0 1
vn 0 0 1
vn 0 0 1
vn 0 0 1
vn 0 0 1
vn 0 0 1
vn 0 0 1
vn 0 0 1
vn 0 0 1
vn 0 0 1
vn 0 0 1
vn 0 0 1
vn 0 0 1
vn 0 0 1
vn 0 0 1
vn 0 0 1
vn 0 0 1
vn 0 0 1
vn 0 0 1
vn 0 0 1
vn 0 0 1
vn 0 0 1
vn 0 0 1
vn 0 0 1
vn 0 0 1
vn 0 0 1
vn 0 0 1
vn 0 0 1
vn 0 0 1
vn 0 0 1
vn 0 0 1
vn 0 0 1
vn 0 0 1
vn 0 0 1
vn 0 0 1
vn 0 0 1
vn 0 0 1
vn 0 0 1
vn 0 0 1
vn 0 0 1
vn 0 0 1
vn 0 0 1
vn 0 0 1
vn 0 0 1
vn 0 0 1
vn 0 0 1
vn 0 0 1
vn 0 0 1
vn 0 0 1
vn 0 0 1
vn 0 0 1
vn 0 0 1
vn 0 0 1
vn 0 0 1
vn 0 0 1
vn 0 0 1
vn 0 0 1
vn 0 0 1
vn 0 0 1
vn 0 0 1
vn 0 0 1
vn 0 0 1
vn 0 0 1
vn 0 0 1
vn 0 0 1
vn 0 0 1
vn 0 0 1
vn 0 0 1
vn 0 0 1
vn 0 0 1
vn 0 0 1
vn 0 0 1
vn 1 0 0
vn 1 0 0
vn 1 0 0
vn 1 0 0
vn -1.1460366364262524e-15 1 0
vn -1.1460366364262524e-15 1 0
vn -1.1460366364262524e-15 1 0
vn -1.1460366364262524e-15 1 0
vn 1 0 0
vn 1 0 0
vn 1 0 0
vn 1 0 0
f 17//49 18//50 19//51
f 19//51 20//52 17//49
f 20//53 19//54 21//55
f 21//55 22//56 20//53
f 22//57 21//58 23//59
f 23//59 24//60 22//57
f 24//61 23//62 25//63
f 25//63 26//64 24//61
f 26//65 25//66 27//67
f 27//67 28//68 26//65
f 28//69 27//70 29//71
f 29//71 30//72 28//69
f 30//73 29//74 31//75
f 31//75 32//76 30//73
f 32//77 31//78 33//79
f 33//79 34//80 32//77
f 34//81 33//82 35//83
f 35//83 36//84 34//81
f 36//85 35//86 37//87
f 37//87 38//88 36//85
f 38//89 37//90 39//91
f 39//91 40//92 38//89
f 40//93 39//94 41//95
f 41//95 42//96 40//93
f 42//97 41//98 43//99
f 43//99 44//100 42//97
f 44//101 43//102 45//103
f 45//103 46//104 44//101
f 46//105 45//106 47//107
f 47//107 48//108 46//105
f 48//109 47//110 49//111
f 49//111 50//112 48//109
f 50//113 49//114 51//115
f 51//115 52//116 50//113
f 52//117 51//118 53//119
f 53//119 54//120 52//117
f 54//121 53//122 55//123
f 55//123 56//124 54//121
f 56//125 55//126 57//127
f 57//127 58//128 56//125
f 58//129 57//130 59//131
f 59//131 60//132 58//129
f 60//133 59//134 61//135
f 61//135 62//136 60//133
f 62//137 61//138 63//139
f 63//139 64//140 62//137
f 64//141 63//142 65//143
f 65//143 66//144 64//141
f 66//145 65//146 67//147
f 67//147 68//148 66//145
f 68//149 67//150 69//151
f 69//151 70//152 68//149
f 70//153 69//154 71//155
f 71//155 72//156 70//153
f 72//157 71//158 73//159
f 73//159 74//160 72//157
f 74//161 73//162 75//163
f 75//163 76//164 74//161
f 76//165 75//166 77//167
f 77//167 78//168 76//165
f 78//169 77//170 79//171
f 79//171 80//172 78//169
f 80//173 79//174 81//175
f 81//175 82//176 80//173
f 82//177 81//178 83//179
f 83//179 84//180 82//177
f 84//181 83//182 85//183
f 85//183 86//184 84//181
f 86//185 85//186 87//187
f 87//187 88//188 86//185
f 88//189 87//190 89//191
f 89//191 90//192 88//189
f 90//193 89//194 91//195
f 91//195 92//196 90//193
f 92//197 91//198 93//199
f 93//199 94//200 92//197
f 94//201 93//202 95//203
f 95//203 96//204 94//201
f 96//205 95//206 97//207
f 97//207 98//208 96//205
f 98//209 97//210 99//211
f 99//211 100//212 98//209
f 100//213 99//214 101//215
f 101//215 102//216 100//213
f 102//217 101//218 103//219
f 103//219 104//220 102//217
f 104//221 103//222 105//223
f 105//223 106//224 104//221
f 106//225 105//226 107//227
f 107//227 108//228 106//225
f 108//229 107//230 109//231
f 109//231 110//232 108//229
f 110//233 109//234 111//235
f 111//235 112//236 110//233
f 112//237 111//238 113//239
f 113//239 114//240 112//237
f 114//241 113//242 115//243
f 115//243 116//244 114//241
f 116//245 115//246 117//247
f 117//247 118//248 116//245
f 118//249 117//250 119//251
f 119//251 120//252 118//249
f 120//253 119//254 121//255
f 121//255 122//256 120//253
f 122//257 121//258 123//259
f 123//259 124//260 122//257
f 124//261 123//262 125//263
f 125//263 126//264 124//261
f 126//265 125//266 127//267
f 127//267 128//268 126//265
f 128//269 127//270 129//271
f 129//271 130//272 128//269
f 130//273 129//274 131//275
f 131//275 132//276 130//273
f 132//277 131//278 133//279
f 133//279 134//280 132//277
f 134//281 133//282 135//283
f 135//283 136//284 134//281
f 136//285 135//286 137//287
f 137//287 138//288 136//285
f 138//289 137//290 139//291
f 139//291 140//292 138//289
f 140//293 139//294 141//295
f 141//295 142//296 140//293
f 142//297 141//298 143//299
f 143//299 144//300 142//297
f 144//301 143//302 145//303
f 145//303 146//304 144//301
f 146//305 145//306 147//307
f 147//307 148//308 146//305
f 148//309 147//310 149//311
f 149//311 150//312 148//309
f 150//313 149//314 151//315
f 151//315 152//316 150//313
f 152//317 151//318 153//319
f 153//319 154//320 152//317
f 154//321 153//322 155//323
f 155//323 156//324 154//321
f 156//325 155//326 157//327
f 157//327 158//328 156//325
f 158//329 157//330 159//331
f 159//331 160//332 158//329
f 160//333 159//334 161//335
f 161//335 162//336 160//333
f 162//337 161//338 163//339
f 163//339 164//340 162//337
f 164//341 163//342 165//343
f 165//343 166//344 164//341
f 166//345 165//346 167//347
f 167//347 168//348 166//345
f 168//349 167//350 169//351
f 169//351 170//352 168//349
f 170//353 169//354 171//355
f 171//355 172//356 170//353
f 172//357 171//358 173//359
f 173//359 174//360 172//357
f 174//361 173//362 175//363
f 175//363 176//364 174//361
f 78//365 66//366 68//367
f 72//368 74//369 68//367
f 74//369 76//370 78//365
f 66//366 48//371 62//372
f 54//373 56//374 60//375
f 68//367 74//369 78//365
f 62//372 64//376 66//366
f 104//377 108//378 174//379
f 56//374 58//380 60//375
f 66//366 78//365 48//371
f 60//375 62//372 48//371
f 46//381 48//371 80//382
f 104//377 106//383 108//378
f 60//375 50//384 54//373
f 48//371 50//384 60//375
f 82//385 32//386 46//381
f 26//387 82//385 176//388
f 176//388 82//385 104//377
f 126//389 128//390 132//391
f 140//392 142//393 136//394
f 142//393 120//395 134//396
f 40//397 44//398 34//399
f 68//367 70//400 72//368
f 48//371 78//365 80//382
f 84//401 86//402 88//403
f 172//404 174//379 108//378
f 174//379 176//388 104//377
f 128//390 130//405 132//391
f 134//396 136//394 142//393
f 132//391 134//396 120//395
f 40//397 42//406 44//398
f 80//382 82//385 46//381
f 44//398 46//381 32//386
f 88//403 90//407 84//401
f 176//388 24//408 26//387
f 102//409 104//377 82//385
f 132//391 122//410 126//389
f 120//395 122//410 132//391
f 152//411 114//412 148//413
f 146//414 148//413 114//412
f 34//399 38//415 40//397
f 32//386 34//399 44//398
f 26//387 30//416 32//386
f 92//417 94//418 96//419
f 90//407 96//419 84//401
f 82//385 84//401 102//409
f 98//420 100//421 102//409
f 158//422 164//423 154//424
f 152//411 154//424 164//423
f 136//394 138//425 140//392
f 120//395 142//393 116//426
f 114//412 116//426 146//414
f 142//393 144//427 146//414
f 50//384 52//428 54//373
f 32//386 82//385 26//387
f 96//419 98//420 84//401
f 102//409 84//401 98//420
f 170//429 152//411 166//430
f 164//423 166//430 152//411
f 116//426 118//431 120//395
f 146//414 116//426 142//393
f 110//432 112//433 114//412
f 152//411 170//429 172//404
f 26//387 28//434 30//416
f 108//378 110//432 172//404
f 24//408 176//388 177//435
f 154//424 156//436 158//422
f 160//437 162//438 164//423
f 148//413 150//439 152//411
f 172//404 110//432 152//411
f 96//419 90//407 92//417
f 20//440 22//441 24//408
f 164//423 158//422 160//437
f 114//412 152//411 110//432
f 17//442 20//440 177//435
f 177//435 20//440 24//408
f 122//410 124//443 126//389
f 34//399 36//444 38//415
f 177//435 178//445 17//442
f 166//430 168//446 170//429
f 61//447 59//448 49//449
f 53//450 51//451 49//449
f 55//452 53//450 59//448
f 49//449 59//448 53//450
f 65//453 63//454 61//447
f 49//449 47//455 61//447
f 47//455 79//456 65//453
f 109//457 147//458 113//459
f 61//447 47//455 65//453
f 67//460 65//453 79//456
f 33//461 45//462 43//463
f 45//462 81//464 79//456
f 113//459 111//465 109//457
f 115//466 133//467 119//468
f 79//456 77//469 67//460
f 71//470 69//471 67//460
f 39//472 37//473 43//463
f 37//473 35//474 33//461
f 45//462 103//475 81//464
f 147//458 115//466 113//459
f 119//468 117//476 115//466
f 97//477 95//478 101//479
f 73//480 71//470 77//469
f 67//460 77//469 71//470
f 43//463 37//473 33//461
f 79//456 47//455 45//462
f 115//466 147//458 133//467
f 121//481 119//468 133//467
f 85//482 95//478 89//483
f 91//484 89//483 95//478
f 95//478 83//485 101//479
f 59//448 57//486 55//452
f 45//462 33//461 103//475
f 133//467 131//487 121//481
f 125//488 123//489 121//481
f 95//478 93//490 91//484
f 95//478 85//482 83//485
f 43//463 41//491 39//472
f 83//485 81//464 103//475
f 107//492 103//475 31//493
f 29//494 25//495 175//496
f 127//497 125//488 131//487
f 121//481 131//487 125//488
f 101//479 99//498 97//477
f 103//475 101//479 83//485
f 107//492 105//499 103//475
f 19//500 179//501 23//502
f 25//495 23//502 179//501
f 173//503 109//457 107//492
f 29//494 27//504 25//495
f 141//505 135//506 145//507
f 139//508 137//509 135//506
f 109//457 173//503 147//458
f 133//467 147//458 145//507
f 153//510 171//511 165//512
f 157//513 155//514 153//510
f 77//469 75//515 73//480
f 103//475 33//461 31//493
f 179//501 175//496 25//495
f 175//496 173//503 29//494
f 135//506 141//505 139//508
f 145//507 135//506 133//467
f 159//516 157//513 163//517
f 153//510 163//517 157//513
f 31//493 29//494 107//492
f 107//492 29//494 173//503
f 131//487 129//518 127//497
f 151//519 149//520 147//458
f 165//512 163//517 153//510
f 167//521 165//512 171//511
f 23//502 21//522 19//500
f 147//458 173//503 151//519
f 171//511 169//523 167//521
f 171//511 153//510 151//519
f 145//507 143//524 141//505
f 151//519 173//503 171//511
f 163//517 161//525 159//516
f 18//526 180//527 179//501
f 179//501 19//500 18//526
f 89//483 87//528 85//482
f 176//529 175//530 179//531
f 179//531 177//532 176//529
f 177//533 179//534 180//535
f 180//535 178//536 177//533
f 178//537 180//538 18//539
f 18//539 17//540 178//537
