# Blender 4.4.0
# www.blender.org
mtllib Floor_rotated.mtl
o Extruded.001
v -15.500000 -0.100000 -0.200000
v -15.500000 -0.000000 -0.200000
v -19.799999 -0.000000 -0.200000
v -19.799999 -0.100000 -0.200000
v -19.799999 -0.000001 -11.700000
v -19.799999 -0.100001 -11.700000
v -18.049999 -0.000001 -11.700000
v -18.049999 -0.100001 -11.700000
v -18.049999 -0.000001 -11.900000
v -18.049999 -0.100001 -11.900000
v -19.799999 -0.000001 -11.900000
v -19.799999 -0.100001 -11.900000
v -19.799999 -0.000003 -25.700001
v -19.799999 -0.100003 -25.700001
v -18.049999 -0.000003 -25.700001
v -18.049999 -0.100003 -25.700001
v -18.049999 -0.000003 -25.900000
v -18.049999 -0.100003 -25.900000
v -19.799999 -0.000003 -25.900000
v -19.799999 -0.100003 -25.900000
v -19.799999 -0.000004 -36.400002
v -19.799999 -0.100004 -36.400002
v -15.500000 -0.000004 -36.400002
v -15.500000 -0.100004 -36.400002
v -15.500000 -0.000003 -25.900000
v -15.500000 -0.100003 -25.900000
v -17.049999 -0.000003 -25.900000
v -17.049999 -0.100003 -25.900000
v -17.049999 -0.000003 -25.700001
v -17.049999 -0.100003 -25.700001
v -13.650000 -0.000003 -25.700001
v -13.650000 -0.100003 -25.700001
v -13.650000 -0.000003 -25.900000
v -13.650000 -0.100003 -25.900000
v -15.300000 -0.000003 -25.900000
v -15.300000 -0.100003 -25.900000
v -15.300000 -0.000004 -36.400002
v -15.300000 -0.100004 -36.400002
v -10.900000 -0.000004 -36.400002
v -10.900000 -0.100004 -36.400002
v -10.900000 -0.000003 -25.900000
v -10.900000 -0.100003 -25.900000
v -12.650000 -0.000003 -25.900000
v -12.650000 -0.100003 -25.900000
v -12.650000 -0.000003 -25.700001
v -12.650000 -0.100003 -25.700001
v -10.900000 -0.000003 -25.700001
v -10.900000 -0.100003 -25.700001
v -10.900000 -0.000003 -23.700001
v -10.900000 -0.100003 -23.700001
v -10.700000 -0.000003 -23.700001
v -10.700000 -0.100003 -23.700001
v -10.700000 -0.000004 -36.400002
v -10.700000 -0.100004 -36.400002
v -4.100000 -0.000004 -36.400002
v -4.100000 -0.100004 -36.400002
v -4.100000 -0.000002 -20.500000
v -4.100000 -0.100002 -20.500000
v -10.700000 -0.000002 -20.500000
v -10.700000 -0.100002 -20.500000
v -10.700000 -0.000003 -22.700001
v -10.700000 -0.100003 -22.700001
v -10.900000 -0.000003 -22.700001
v -10.900000 -0.100003 -22.700001
v -10.900000 -0.000002 -18.500000
v -10.900000 -0.100002 -18.500000
v -10.700000 -0.000002 -18.500000
v -10.700000 -0.100002 -18.500000
v -10.700000 -0.000002 -20.299999
v -10.700000 -0.100002 -20.299999
v -0.200000 -0.000002 -20.299999
v -0.200000 -0.100002 -20.299999
v -0.200000 -0.000002 -18.500000
v -0.200000 -0.100002 -18.500000
v 0.000000 -0.000002 -18.500000
v 0.000000 -0.100002 -18.500000
v 0.000000 -0.000002 -17.500000
v 0.000000 -0.100002 -17.500000
v -0.200000 -0.000002 -17.500000
v -0.200000 -0.100002 -17.500000
v -0.200000 -0.000002 -15.600000
v -0.200000 -0.100002 -15.600000
v -10.700000 -0.000002 -15.600000
v -10.700000 -0.100002 -15.600000
v -10.700000 -0.000002 -17.500000
v -10.700000 -0.100002 -17.500000
v -10.900000 -0.000002 -17.500000
v -10.900000 -0.100002 -17.500000
v -10.900000 -0.000001 -11.900000
v -10.900000 -0.100001 -11.900000
v -12.650000 -0.000001 -11.900000
v -12.650000 -0.100001 -11.900000
v -12.650000 -0.000001 -11.700000
v -12.650000 -0.100001 -11.700000
v -10.900000 -0.000001 -11.700000
v -10.900000 -0.100001 -11.700000
v -10.900000 -0.000001 -9.500000
v -10.900000 -0.100001 -9.500000
v -10.700000 -0.000001 -9.500000
v -10.700000 -0.100001 -9.500000
v -10.700000 -0.000001 -11.700000
v -10.700000 -0.100001 -11.700000
v -9.650000 -0.000001 -11.700000
v -9.650000 -0.100001 -11.700000
v -9.650000 -0.000001 -11.900000
v -9.650000 -0.100001 -11.900000
v -10.700000 -0.000001 -11.900000
v -10.700000 -0.100001 -11.900000
v -10.700000 -0.000002 -15.400000
v -10.700000 -0.100002 -15.400000
v -7.500000 -0.000002 -15.400000
v -7.500000 -0.100002 -15.400000
v -7.500000 -0.000001 -11.900000
v -7.500000 -0.100001 -11.900000
v -8.650000 -0.000001 -11.900000
v -8.650000 -0.100001 -11.900000
v -8.650000 -0.000001 -11.700000
v -8.650000 -0.100001 -11.700000
v -7.300000 -0.000001 -11.700000
v -7.300000 -0.100001 -11.700000
v -7.300000 -0.000002 -15.400000
v -7.300000 -0.100002 -15.400000
v -0.200000 -0.000002 -15.400000
v -0.200000 -0.100002 -15.400000
v -0.200000 -0.000000 -0.200000
v -0.200000 -0.100000 -0.200000
v -10.700000 -0.000000 -0.200000
v -10.700000 -0.100000 -0.200000
v -10.700000 -0.000001 -8.500000
v -10.700000 -0.100001 -8.500000
v -10.900000 -0.000001 -8.500000
v -10.900000 -0.100001 -8.500000
v -10.900000 -0.000001 -6.100000
v -10.900000 -0.100001 -6.100000
v -12.650000 -0.000001 -6.100000
v -12.650000 -0.100001 -6.100000
v -12.650000 -0.000001 -5.900000
v -12.650000 -0.100001 -5.900000
v -10.900000 -0.000001 -5.900000
v -10.900000 -0.100001 -5.900000
v -10.900000 -0.000000 -0.200000
v -10.900000 -0.100000 -0.200000
v -15.300000 -0.000000 -0.200000
v -15.300000 -0.100000 -0.200000
v -15.300000 -0.000001 -5.900000
v -15.300000 -0.100001 -5.900000
v -13.650000 -0.000001 -5.900000
v -13.650000 -0.100001 -5.900000
v -13.650000 -0.000001 -6.100000
v -13.650000 -0.100001 -6.100000
v -15.300000 -0.000001 -6.100000
v -15.300000 -0.100001 -6.100000
v -15.300000 -0.000001 -11.700000
v -15.300000 -0.100001 -11.700000
v -13.650000 -0.000001 -11.700000
v -13.650000 -0.100001 -11.700000
v -13.650000 -0.000001 -11.900000
v -13.650000 -0.100001 -11.900000
v -17.049999 -0.000001 -11.900000
v -17.049999 -0.100001 -11.900000
v -17.049999 -0.100001 -11.700000
v -15.500000 -0.100001 -11.700000
v -17.049999 -0.000001 -11.700000
v -15.500000 -0.000001 -11.700000
v -15.300000 -0.100000 -3.300000
v -15.300000 -0.000000 -3.300000
v -15.300000 -0.000000 -2.300000
v -15.300000 -0.100000 -2.300000
v -15.500000 -0.000000 -2.300000
v -15.500000 -0.100000 -2.300000
v -15.500000 -0.000000 -3.300000
v -15.500000 -0.100000 -3.300000
v -10.900000 -0.100003 -27.100000
v -10.900000 -0.000003 -27.100000
v -10.900000 -0.000003 -28.100000
v -10.900000 -0.100003 -28.100000
v -10.700000 -0.000003 -28.100000
v -10.700000 -0.100003 -28.100000
v -10.700000 -0.000003 -27.100000
v -10.700000 -0.100003 -27.100000
vn -0.0000 -0.0000 1.0000
vn -1.0000 -0.0000 -0.0000
vn -0.0000 -0.0000 -1.0000
vn 1.0000 -0.0000 -0.0000
vn -0.0000 -1.0000 -0.0000
vn -0.0000 1.0000 -0.0000
s 1
f 1//1 2//1 3//1
f 3//1 4//1 1//1
f 4//2 3//2 5//2
f 5//2 6//2 4//2
f 6//3 5//3 7//3
f 7//3 8//3 6//3
f 8//2 7//2 9//2
f 9//2 10//2 8//2
f 10//1 9//1 11//1
f 11//1 12//1 10//1
f 12//2 11//2 13//2
f 13//2 14//2 12//2
f 14//3 13//3 15//3
f 15//3 16//3 14//3
f 16//2 15//2 17//2
f 17//2 18//2 16//2
f 18//1 17//1 19//1
f 19//1 20//1 18//1
f 20//2 19//2 21//2
f 21//2 22//2 20//2
f 22//3 21//3 23//3
f 23//3 24//3 22//3
f 24//4 23//4 25//4
f 25//4 26//4 24//4
f 26//1 25//1 27//1
f 27//1 28//1 26//1
f 28//4 27//4 29//4
f 29//4 30//4 28//4
f 30//3 29//3 31//3
f 31//3 32//3 30//3
f 32//2 31//2 33//2
f 33//2 34//2 32//2
f 34//1 33//1 35//1
f 35//1 36//1 34//1
f 36//2 35//2 37//2
f 37//2 38//2 36//2
f 38//3 37//3 39//3
f 39//3 40//3 38//3
f 40//4 39//4 41//4
f 41//4 42//4 40//4
f 42//1 41//1 43//1
f 43//1 44//1 42//1
f 44//4 43//4 45//4
f 45//4 46//4 44//4
f 46//3 45//3 47//3
f 47//3 48//3 46//3
f 48//4 47//4 49//4
f 49//4 50//4 48//4
f 50//3 49//3 51//3
f 51//3 52//3 50//3
f 52//2 51//2 53//2
f 53//2 54//2 52//2
f 54//3 53//3 55//3
f 55//3 56//3 54//3
f 56//4 55//4 57//4
f 57//4 58//4 56//4
f 58//1 57//1 59//1
f 59//1 60//1 58//1
f 60//2 59//2 61//2
f 61//2 62//2 60//2
f 62//1 61//1 63//1
f 63//1 64//1 62//1
f 64//4 63//4 65//4
f 65//4 66//4 64//4
f 66//3 65//3 67//3
f 67//3 68//3 66//3
f 68//2 67//2 69//2
f 69//2 70//2 68//2
f 70//3 69//3 71//3
f 71//3 72//3 70//3
f 72//4 71//4 73//4
f 73//4 74//4 72//4
f 74//3 73//3 75//3
f 75//3 76//3 74//3
f 76//4 75//4 77//4
f 77//4 78//4 76//4
f 78//1 77//1 79//1
f 79//1 80//1 78//1
f 80//4 79//4 81//4
f 81//4 82//4 80//4
f 82//1 81//1 83//1
f 83//1 84//1 82//1
f 84//2 83//2 85//2
f 85//2 86//2 84//2
f 86//1 85//1 87//1
f 87//1 88//1 86//1
f 88//4 87//4 89//4
f 89//4 90//4 88//4
f 90//1 89//1 91//1
f 91//1 92//1 90//1
f 92//4 91//4 93//4
f 93//4 94//4 92//4
f 94//3 93//3 95//3
f 95//3 96//3 94//3
f 96//4 95//4 97//4
f 97//4 98//4 96//4
f 98//3 97//3 99//3
f 99//3 100//3 98//3
f 100//2 99//2 101//2
f 101//2 102//2 100//2
f 102//3 101//3 103//3
f 103//3 104//3 102//3
f 104//2 103//2 105//2
f 105//2 106//2 104//2
f 106//1 105//1 107//1
f 107//1 108//1 106//1
f 108//2 107//2 109//2
f 109//2 110//2 108//2
f 110//3 109//3 111//3
f 111//3 112//3 110//3
f 112//4 111//4 113//4
f 113//4 114//4 112//4
f 114//1 113//1 115//1
f 115//1 116//1 114//1
f 116//4 115//4 117//4
f 117//4 118//4 116//4
f 118//3 117//3 119//3
f 119//3 120//3 118//3
f 120//2 119//2 121//2
f 121//2 122//2 120//2
f 122//3 121//3 123//3
f 123//3 124//3 122//3
f 124//4 123//4 125//4
f 125//4 126//4 124//4
f 126//1 125//1 127//1
f 127//1 128//1 126//1
f 128//2 127//2 129//2
f 129//2 130//2 128//2
f 130//1 129//1 131//1
f 131//1 132//1 130//1
f 132//4 131//4 133//4
f 133//4 134//4 132//4
f 134//1 133//1 135//1
f 135//1 136//1 134//1
f 136//4 135//4 137//4
f 137//4 138//4 136//4
f 138//3 137//3 139//3
f 139//3 140//3 138//3
f 140//4 139//4 141//4
f 141//4 142//4 140//4
f 142//1 141//1 143//1
f 143//1 144//1 142//1
f 144//2 143//2 145//2
f 145//2 146//2 144//2
f 146//3 145//3 147//3
f 147//3 148//3 146//3
f 148//2 147//2 149//2
f 149//2 150//2 148//2
f 150//1 149//1 151//1
f 151//1 152//1 150//1
f 152//2 151//2 153//2
f 153//2 154//2 152//2
f 154//3 153//3 155//3
f 155//3 156//3 154//3
f 156//2 155//2 157//2
f 157//2 158//2 156//2
f 158//1 157//1 159//1
f 159//1 160//1 158//1
f 62//5 50//5 52//5
f 56//5 58//5 52//5
f 58//5 60//5 62//5
f 50//5 32//5 46//5
f 38//5 40//5 44//5
f 52//5 58//5 62//5
f 46//5 48//5 50//5
f 88//5 92//5 158//5
f 40//5 42//5 44//5
f 50//5 62//5 32//5
f 44//5 46//5 32//5
f 30//5 32//5 64//5
f 88//5 90//5 92//5
f 44//5 34//5 38//5
f 32//5 34//5 44//5
f 66//5 16//5 30//5
f 10//5 66//5 160//5
f 160//5 66//5 88//5
f 110//5 112//5 116//5
f 124//5 126//5 120//5
f 126//5 104//5 118//5
f 24//5 28//5 18//5
f 52//5 54//5 56//5
f 32//5 62//5 64//5
f 68//5 70//5 72//5
f 156//5 158//5 92//5
f 158//5 160//5 88//5
f 112//5 114//5 116//5
f 118//5 120//5 126//5
f 116//5 118//5 104//5
f 24//5 26//5 28//5
f 64//5 66//5 30//5
f 28//5 30//5 16//5
f 72//5 74//5 68//5
f 160//5 8//5 10//5
f 86//5 88//5 66//5
f 116//5 106//5 110//5
f 104//5 106//5 116//5
f 136//5 98//5 132//5
f 130//5 132//5 98//5
f 18//5 22//5 24//5
f 16//5 18//5 28//5
f 10//5 14//5 16//5
f 76//5 78//5 80//5
f 74//5 80//5 68//5
f 66//5 68//5 86//5
f 82//5 84//5 86//5
f 142//5 148//5 138//5
f 136//5 138//5 148//5
f 120//5 122//5 124//5
f 104//5 126//5 100//5
f 98//5 100//5 130//5
f 126//5 128//5 130//5
f 34//5 36//5 38//5
f 16//5 66//5 10//5
f 80//5 82//5 68//5
f 86//5 68//5 82//5
f 154//5 136//5 150//5
f 148//5 150//5 136//5
f 100//5 102//5 104//5
f 130//5 100//5 126//5
f 94//5 96//5 98//5
f 136//5 154//5 156//5
f 10//5 12//5 14//5
f 92//5 94//5 156//5
f 8//5 160//5 161//5
f 138//5 140//5 142//5
f 144//5 146//5 148//5
f 132//5 134//5 136//5
f 156//5 94//5 136//5
f 80//5 74//5 76//5
f 4//5 6//5 8//5
f 148//5 142//5 144//5
f 98//5 136//5 94//5
f 1//5 4//5 161//5
f 161//5 4//5 8//5
f 106//5 108//5 110//5
f 18//5 20//5 22//5
f 161//5 162//5 1//5
f 150//5 152//5 154//5
f 45//6 43//6 33//6
f 37//6 35//6 33//6
f 39//6 37//6 43//6
f 33//6 43//6 37//6
f 49//6 47//6 45//6
f 33//6 31//6 45//6
f 31//6 63//6 49//6
f 93//6 131//6 97//6
f 45//6 31//6 49//6
f 51//6 49//6 63//6
f 17//6 29//6 27//6
f 29//6 65//6 63//6
f 97//6 95//6 93//6
f 99//6 117//6 103//6
f 63//6 61//6 51//6
f 55//6 53//6 51//6
f 23//6 21//6 27//6
f 21//6 19//6 17//6
f 29//6 87//6 65//6
f 131//6 99//6 97//6
f 103//6 101//6 99//6
f 81//6 79//6 85//6
f 57//6 55//6 61//6
f 51//6 61//6 55//6
f 27//6 21//6 17//6
f 63//6 31//6 29//6
f 99//6 131//6 117//6
f 105//6 103//6 117//6
f 69//6 79//6 73//6
f 75//6 73//6 79//6
f 79//6 67//6 85//6
f 43//6 41//6 39//6
f 29//6 17//6 87//6
f 117//6 115//6 105//6
f 109//6 107//6 105//6
f 79//6 77//6 75//6
f 79//6 69//6 67//6
f 27//6 25//6 23//6
f 67//6 65//6 87//6
f 91//6 87//6 15//6
f 13//6 9//6 159//6
f 111//6 109//6 115//6
f 105//6 115//6 109//6
f 85//6 83//6 81//6
f 87//6 85//6 67//6
f 91//6 89//6 87//6
f 3//6 163//6 7//6
f 9//6 7//6 163//6
f 157//6 93//6 91//6
f 13//6 11//6 9//6
f 125//6 119//6 129//6
f 123//6 121//6 119//6
f 93//6 157//6 131//6
f 117//6 131//6 129//6
f 137//6 155//6 149//6
f 141//6 139//6 137//6
f 61//6 59//6 57//6
f 87//6 17//6 15//6
f 163//6 159//6 9//6
f 159//6 157//6 13//6
f 119//6 125//6 123//6
f 129//6 119//6 117//6
f 143//6 141//6 147//6
f 137//6 147//6 141//6
f 15//6 13//6 91//6
f 91//6 13//6 157//6
f 115//6 113//6 111//6
f 135//6 133//6 131//6
f 149//6 147//6 137//6
f 151//6 149//6 155//6
f 7//6 5//6 3//6
f 131//6 157//6 135//6
f 155//6 153//6 151//6
f 155//6 137//6 135//6
f 129//6 127//6 125//6
f 135//6 157//6 155//6
f 147//6 145//6 143//6
f 2//6 164//6 163//6
f 163//6 3//6 2//6
f 73//6 71//6 69//6
f 160//4 159//4 163//4
f 163//4 161//4 160//4
f 161//3 163//3 164//3
f 164//3 162//3 161//3
f 162//4 164//4 2//4
f 2//4 1//4 162//4
f 165//4 166//4 167//4
f 167//4 168//4 165//4
f 168//1 167//1 169//1
f 169//1 170//1 168//1
f 170//2 169//2 171//2
f 171//2 172//2 170//2
f 172//3 171//3 166//3
f 166//3 165//3 172//3
f 165//5 168//5 170//5
f 170//5 172//5 165//5
f 166//6 171//6 169//6
f 169//6 167//6 166//6
f 173//2 174//2 175//2
f 175//2 176//2 173//2
f 176//3 175//3 177//3
f 177//3 178//3 176//3
f 178//4 177//4 179//4
f 179//4 180//4 178//4
f 180//1 179//1 174//1
f 174//1 173//1 180//1
f 180//5 173//5 176//5
f 176//5 178//5 180//5
f 177//6 175//6 174//6
f 174//6 179//6 177//6
