# Blender 4.4.3
# www.blender.org
mtllib fridge.mtl
o Куб.001
v -0.199885 0.005277 -0.081661
v -0.199885 0.032666 -0.081661
v -0.172139 0.005277 -0.081661
v -0.172139 0.032666 -0.081661
v -0.199885 0.005277 0.003695
v -0.199885 0.032666 0.003695
v -0.172139 0.005277 0.003695
v -0.172139 0.032666 0.003695
v 0.160888 0.005275 -0.109408
v 0.160888 0.032665 -0.109408
v 0.160888 0.005275 -0.081661
v 0.160888 0.032665 -0.081661
v -0.199885 0.005275 -0.109408
v -0.199885 0.032665 -0.109408
v -0.199885 0.005275 -0.081661
v -0.199885 0.032665 -0.081661
v 0.133141 0.005272 -0.081662
v 0.133141 0.032661 -0.081662
v 0.160888 0.005272 -0.081662
v 0.160888 0.032661 -0.081662
v 0.133141 0.005272 0.003694
v 0.133141 0.032661 0.003694
v 0.160888 0.005272 0.003694
v 0.160888 0.032661 0.003694
v -0.288784 -1.529430 0.756784
v -0.288784 0.569888 0.756784
v -0.288784 -1.529430 -0.039539
v -0.288784 0.569888 -0.039539
v 0.523286 -1.529430 0.756784
v 0.523286 0.569888 0.756784
v 0.523286 -1.529430 -0.039539
v 0.523286 0.569888 -0.039539
v -0.199972 0.127261 -0.085534
v -0.199972 0.154651 -0.085534
v -0.172225 0.127261 -0.085534
v -0.172225 0.154651 -0.085534
v -0.199972 0.127261 -0.000178
v -0.199972 0.154651 -0.000178
v -0.172225 0.127261 -0.000178
v -0.172225 0.154651 -0.000178
v 0.160801 0.127260 -0.113281
v 0.160801 0.154650 -0.113281
v 0.160801 0.127260 -0.085534
v 0.160801 0.154650 -0.085534
v -0.199972 0.127260 -0.113281
v -0.199972 0.154650 -0.113281
v -0.199972 0.127260 -0.085534
v -0.199972 0.154650 -0.085534
v 0.133055 0.127257 -0.085535
v 0.133055 0.154646 -0.085535
v 0.160802 0.127257 -0.085535
v 0.160802 0.154646 -0.085535
v 0.133055 0.127257 -0.000179
v 0.133055 0.154646 -0.000179
v 0.160802 0.127257 -0.000179
v 0.160802 0.154646 -0.000179
vn -0.0000 -0.0000 -1.0000
vn 1.0000 -0.0000 -0.0000
vn -0.0000 -0.0000 1.0000
vn -1.0000 -0.0000 -0.0000
vn -0.0000 -1.0000 -0.0000
vn -0.0000 1.0000 -0.0000
vt 0.173365 0.897419
vt 0.173365 0.885862
vt 0.184923 0.885862
vt 0.184923 0.897419
vt 0.150250 0.897419
vt 0.138692 0.897419
vt 0.138692 0.885862
vt 0.150250 0.885862
vt 0.196480 0.885862
vt 0.196480 0.897419
vt 0.208038 0.885862
vt 0.208038 0.897419
vt 0.219596 0.885862
vt 0.219596 0.897419
vt 0.231153 0.885862
vt 0.231153 0.897419
vt 0.219596 0.897419
vt 0.892174 0.838356
vt 0.892174 0.826798
vt 0.895931 0.826798
vt 0.895931 0.838356
vt 0.915289 0.826799
vt 0.903732 0.826799
vt 0.903732 0.676521
vt 0.915289 0.676521
vt 0.892174 0.849914
vt 0.892174 0.838356
vt 0.895931 0.838356
vt 0.895931 0.849914
vt 0.903732 0.826798
vt 0.892174 0.826798
vt 0.892174 0.676521
vt 0.903732 0.676521
vt 0.938405 0.826799
vt 0.938405 0.676521
vt 0.942162 0.676521
vt 0.942162 0.826799
vt 0.945919 0.676521
vt 0.945919 0.826799
vt 0.942162 0.826799
vt 0.942162 0.676521
vt 0.150250 0.897419
vt 0.161807 0.885862
vt 0.161807 0.897419
vt 0.011558 0.897419
vt 0.000000 0.897419
vt 0.000000 0.885862
vt 0.011558 0.885862
vt 0.023115 0.897419
vt 0.011558 0.885862
vt 0.023115 0.885862
vt 0.104019 0.885862
vt 0.104019 0.897419
vt 0.092461 0.897419
vt 0.092461 0.885862
vt 0.115577 0.885862
vt 0.115577 0.897419
vt 0.676521 0.885862
vt 0.676521 0.000000
vt 0.784348 0.000000
vt 0.784348 0.885862
vt 0.000000 0.885862
vt 0.000000 0.000000
vt 0.338261 0.000000
vt 0.338261 0.885862
vt 0.892174 0.000000
vt 0.892174 0.885862
vt 1.000000 0.000000
vt 1.000000 0.338261
vt 0.892174 0.338261
vt 0.892174 0.000000
vt 0.892174 0.676521
vt 0.892174 0.338261
vt 1.000000 0.676521
vt 0.242711 0.897419
vt 0.231153 0.897419
vt 0.231153 0.885862
vt 0.242711 0.885862
vt 0.127134 0.897419
vt 0.115577 0.897419
vt 0.115577 0.885862
vt 0.127134 0.885862
vt 0.254269 0.897419
vt 0.242711 0.897419
vt 0.242711 0.885862
vt 0.254269 0.885862
vt 0.034673 0.897419
vt 0.023115 0.885862
vt 0.034673 0.885862
vt 0.046231 0.885862
vt 0.046231 0.897419
vt 0.034673 0.897419
vt 0.034673 0.885862
vt 0.138692 0.885862
vt 0.138692 0.897419
vt 0.892174 0.861472
vt 0.895931 0.861472
vt 0.926847 0.826798
vt 0.915289 0.826798
vt 0.915289 0.676521
vt 0.926847 0.676521
vt 0.892174 0.873029
vt 0.892174 0.861472
vt 0.895931 0.861472
vt 0.895931 0.873029
vt 0.938405 0.826798
vt 0.938405 0.676521
vt 0.945919 0.826798
vt 0.945919 0.676521
vt 0.949676 0.676521
vt 0.949676 0.826798
vt 0.953433 0.676521
vt 0.953433 0.826798
vt 0.949676 0.826798
vt 0.949676 0.676521
vt 0.265826 0.897419
vt 0.254269 0.885862
vt 0.265826 0.885862
vt 0.057788 0.897419
vt 0.046231 0.897419
vt 0.046231 0.885862
vt 0.057788 0.885862
vt 0.277384 0.897419
vt 0.265826 0.897419
vt 0.265826 0.885862
vt 0.277384 0.885862
vt 0.069346 0.897419
vt 0.057788 0.897419
vt 0.057788 0.885862
vt 0.069346 0.885862
vt 0.080904 0.885862
vt 0.080904 0.897419
vt 0.092461 0.885862
vt 0.092461 0.897419
vt 0.080904 0.897419
vt 0.080904 0.885862
s 0
f 1/1/1 2/2/1 4/3/1 3/4/1
f 3/5/2 4/6/2 8/7/2 7/8/2
f 7/4/3 8/3/3 6/9/3 5/10/3
f 5/10/4 6/9/4 2/11/4 1/12/4
f 3/13/5 7/14/5 5/12/5 1/11/5
f 8/15/6 4/16/6 2/17/6 6/13/6
f 9/18/2 10/19/2 12/20/2 11/21/2
f 11/22/3 12/23/3 16/24/3 15/25/3
f 15/26/4 16/27/4 14/28/4 13/29/4
f 13/30/1 14/31/1 10/32/1 9/33/1
f 11/34/5 15/35/5 13/36/5 9/37/5
f 16/38/6 12/39/6 10/40/6 14/41/6
f 17/42/1 18/8/1 20/43/1 19/44/1
f 19/45/2 20/46/2 24/47/2 23/48/2
f 23/44/3 24/43/3 22/2/3 21/1/3
f 21/49/4 22/45/4 18/50/4 17/51/4
f 19/52/5 23/53/5 21/54/5 17/55/5
f 24/56/6 20/57/6 18/53/6 22/52/6
f 25/58/4 26/59/4 28/60/4 27/61/4
f 27/62/1 28/63/1 32/64/1 31/65/1
f 31/61/2 32/60/2 30/66/2 29/67/2
f 29/65/3 30/64/3 26/59/3 25/58/3
f 27/68/5 31/69/5 29/70/5 25/71/5
f 32/72/6 28/73/6 26/69/6 30/74/6
f 33/75/1 34/76/1 36/77/1 35/78/1
f 35/79/2 36/80/2 40/81/2 39/82/2
f 39/83/3 40/84/3 38/85/3 37/86/3
f 37/87/4 38/49/4 34/88/4 33/89/4
f 35/90/5 39/91/5 37/92/5 33/93/5
f 40/94/6 36/95/6 34/79/6 38/82/6
f 41/96/2 42/26/2 44/29/2 43/97/2
f 43/98/3 44/99/3 48/100/3 47/101/3
f 47/102/4 48/103/4 46/104/4 45/105/4
f 45/106/1 46/98/1 42/101/1 41/107/1
f 43/108/5 47/109/5 45/110/5 41/111/5
f 48/112/6 44/113/6 42/114/6 46/115/6
f 49/116/1 50/83/1 52/117/1 51/118/1
f 51/119/2 52/120/2 56/121/2 55/122/2
f 55/123/3 56/124/3 54/125/3 53/126/3
f 53/127/4 54/128/4 50/129/4 49/130/4
f 51/131/5 55/132/5 53/127/5 49/130/5
f 56/133/6 52/134/6 50/135/6 54/136/6
