# Blender 4.4.0
# www.blender.org
mtllib IP_sticker.mtl
o Plane
v -0.025000 0.000000 0.025000
v 0.025000 0.000000 0.025000
v -0.025000 0.000000 -0.025000
v 0.025000 0.000000 -0.025000
v -0.025000 0.000000 -0.025000
v -0.025000 0.000000 0.025000
v 0.025000 0.000000 0.025000
v 0.025000 0.000000 -0.025000
vn -0.0000 -1.0000 -0.0000
vn -0.0000 1.0000 -0.0000
vt 0.000000 1.000000
vt 1.000000 1.000000
vt 1.000000 0.000000
vt 0.000000 0.000000
s 0
usemtl Material.001
f 1/1/1 3/2/1 4/3/1 2/4/1
f 6/1/2 7/4/2 8/3/2 5/2/2
f 4/3/2 3/2/2 5/2/2 8/3/2
f 1/1/2 2/4/2 7/4/2 6/1/2
f 2/4/2 4/3/2 8/3/2 7/4/2
f 3/2/2 1/1/2 6/1/2 5/2/2
