# Blender 4.4.0
# www.blender.org
mtllib Monitor.mtl
o Plane.002
v -0.099975 -0.000053 0.000000
v -0.099975 -0.000053 -0.500000
v -0.399975 0.049947 -0.050000
v -0.399975 0.049947 -0.450000
v -0.099970 0.399948 -0.500000
v -0.099970 0.399949 0.000000
v -0.399970 0.349948 -0.450000
v -0.399970 0.349949 -0.050000
v 0.000025 0.084781 -0.054707
v 0.000025 0.084781 -0.445293
v 0.000029 0.349301 -0.445293
v 0.000029 0.349301 -0.054707
v -0.340000 0.000000 -0.060000
v -0.340000 0.040000 -0.060000
v -0.340000 0.000000 -0.440000
v -0.340000 0.040000 -0.440000
v -0.300000 0.000000 -0.060000
v -0.299900 0.033500 -0.060000
v -0.300000 0.000000 -0.440000
v -0.299900 0.033500 -0.440000
v 0.000025 -0.000053 0.000000
v 0.000025 -0.000053 -0.500000
v 0.000030 0.399948 -0.500000
v 0.000030 0.399949 0.000000
v -0.014505 0.084781 -0.054707
v -0.014505 0.084781 -0.445293
v -0.014501 0.349301 -0.445293
v -0.014501 0.349301 -0.054707
vn -0.0000 -1.0000 -0.0000
vn -0.1644 -0.9864 -0.0000
vn -0.0000 1.0000 -0.0000
vn -0.1644 0.9864 -0.0000
vn -0.1644 -0.0000 -0.9864
vn -0.1644 -0.0000 0.9864
vn -1.0000 -0.0000 -0.0000
vn -0.0000 -0.0000 -1.0000
vn 1.0000 -0.0030 -0.0000
vn -0.0000 -0.0000 1.0000
vn 0.1600 0.9871 -0.0000
vn 1.0000 -0.0000 -0.0000
vt 0.077315 0.000000
vt 0.077315 0.386905
vt 0.000000 0.386905
vt 0.000000 -0.000000
vt 0.310856 0.038690
vt 0.310856 0.348215
vt 0.543041 0.386905
vt 0.543041 -0.000000
vt 0.620422 -0.000000
vt 0.620422 0.386905
vt 0.310856 0.348215
vt 0.310856 0.038691
vt 0.619051 0.620446
vt 0.657739 0.386905
vt 0.889882 0.386906
vt 0.928576 0.620446
vt 0.580364 0.386905
vt 0.619051 0.620446
vt 0.309526 0.620446
vt 0.348220 0.386906
vt 0.620422 0.309524
vt 0.620422 0.000000
vt 0.852566 0.000000
vt 0.852566 0.309524
vt 0.883590 0.000000
vt 0.914543 -0.000000
vt 0.914543 0.294048
vt 0.883590 0.294048
vt 0.620422 0.309524
vt 0.651375 0.309524
vt 0.646345 0.340528
vt 0.620422 0.340450
vt 0.954500 0.680953
vt 0.928577 0.680953
vt 0.928577 0.386905
vt 0.954500 0.386905
vt 0.620422 0.340605
vt 0.646345 0.340528
vt 0.651374 0.371531
vt 0.620422 0.371531
vt 0.945469 0.294048
vt 0.914543 0.294048
vt 0.914543 0.000000
vt 0.945469 0.000000
vt 0.883590 0.294048
vt 0.852566 0.294048
vt 0.852566 0.000000
vt 0.883590 0.000000
vt 0.619052 0.697761
vt 0.928577 0.697761
vt 0.619050 0.697761
vt 0.309525 0.697761
vt 0.525448 0.697761
vt 0.525448 0.902450
vt 0.514214 0.902450
vt 0.514214 0.697761
vt 0.065645 0.429238
vt 0.065645 0.731477
vt -0.000000 0.773810
vt 0.000000 0.386905
vt 0.270334 0.731477
vt 0.270333 0.429238
vt 0.309525 0.386905
vt 0.309525 0.773810
vt 0.514214 0.697761
vt 0.514214 1.000000
vt 0.309525 1.000000
vt 0.309525 0.697761
vt 0.956712 0.000000
vt 0.956712 0.302239
vt 0.945469 0.302239
vt 0.945469 0.000000
vt 0.525448 0.902450
vt 0.525448 0.697761
vt 0.536682 0.697761
vt 0.536682 0.902450
vt 0.954500 0.689144
vt 0.965734 0.386905
vt 0.965734 0.689144
s 0
f 1/1/1 2/2/1 22/3/1 21/4/1
f 1/1/2 3/5/2 4/6/2 2/2/2
f 5/7/3 6/8/3 24/9/3 23/10/3
f 5/7/4 7/11/4 8/12/4 6/8/4
f 2/13/5 4/14/5 7/15/5 5/16/5
f 3/17/6 1/18/6 6/19/6 8/20/6
f 4/21/7 3/22/7 8/23/7 7/24/7
f 13/25/7 14/26/7 16/27/7 15/28/7
f 15/29/8 16/30/8 20/31/8 19/32/8
f 19/33/9 20/34/9 18/35/9 17/36/9
f 17/37/10 18/38/10 14/39/10 13/40/10
f 15/41/1 19/42/1 17/43/1 13/44/1
f 20/45/11 16/46/11 14/47/11 18/48/11
f 22/49/8 2/13/8 5/16/8 23/50/8
f 1/18/10 21/51/10 24/52/10 6/19/10
f 12/53/8 9/54/8 25/55/8 28/56/8
f 10/57/12 9/58/12 21/59/12 22/60/12
f 12/61/12 11/62/12 23/63/12 24/64/12
f 9/58/12 12/61/12 24/64/12 21/59/12
f 11/62/12 10/57/12 22/60/12 23/63/12
f 25/65/12 26/66/12 27/67/12 28/68/12
f 9/69/3 10/70/3 26/71/3 25/72/3
f 10/73/10 11/74/10 27/75/10 26/76/10
f 11/77/1 12/36/1 28/78/1 27/79/1
