# Blender 4.4.3
# www.blender.org
mtllib PaintingShort.mtl
o Plane.001
v -0.000000 0.330000 0.330000
v 0.000000 -0.330000 0.330000
v -0.000000 0.330000 -0.330000
v 0.000000 -0.330000 -0.330000
v 0.020000 0.330000 0.330000
v 0.020000 -0.330000 0.330000
v 0.020000 0.330000 -0.330000
v 0.020000 -0.330000 -0.330000
v 0.020000 0.305700 -0.305700
v 0.020000 0.305700 0.305700
v 0.020000 -0.305700 0.305700
v 0.020000 -0.305700 -0.305700
v 0.013000 0.305700 -0.305700
v 0.013000 0.305700 0.305700
v 0.013000 -0.305700 0.305700
v 0.013000 -0.305700 -0.305700
vn -1.0000 -0.0000 -0.0000
vn 1.0000 -0.0000 -0.0000
vn -0.0000 -0.0000 1.0000
vn -0.0000 -1.0000 -0.0000
vn -0.0000 1.0000 -0.0000
vn -0.0000 -0.0000 -1.0000
vt 0.000000 0.000000
vt 0.000000 1.000000
vt 1.000000 1.000000
vt 1.000000 0.000000
s 0
f 1/1/1 3/2/1 4/3/1 2/4/1
f 6/4/2 8/3/2 12/3/2 11/4/2
f 1/1/3 2/4/3 6/4/3 5/1/3
f 2/4/4 4/3/4 8/3/4 6/4/4
f 3/2/5 1/1/5 5/1/5 7/2/5
f 4/3/6 3/2/6 7/2/6 8/3/6
f 12/3/3 9/2/3 13/2/3 16/3/3
f 7/2/2 5/1/2 10/1/2 9/2/2
f 8/3/2 7/2/2 9/2/2 12/3/2
f 5/1/2 6/4/2 11/4/2 10/1/2
f 14/1/2 15/4/2 16/3/2 13/2/2
f 10/1/6 11/4/6 15/4/6 14/1/6
f 11/4/5 12/3/5 16/3/5 15/4/5
f 9/2/4 10/1/4 14/1/4 13/2/4
