o Solid_203
v 0.05000000074505806 0.3400000035762787 0.03999999910593033
v 0.44999998807907104 0.3400000035762787 0.03999999910593033
v 0.44999998807907104 0.3400000035762787 0.004999999888241291
v 0.05000000074505806 0.3400000035762787 0.004999999888241291
v 0.44999998807907104 0.3100000023841858 0.004999999888241291
v 0.05000000074505806 0.3100000023841858 0.004999999888241291
v 0.44999998807907104 0.3100000023841858 0.03500000014901161
v 0.05000000074505806 0.3100000023841858 0.03500000014901161
vn 0 1 0
vn 0 1 0
vn 0 1 0
vn 0 1 0
vn 0 0 -1
vn 0 0 -1
vn 0 0 -1
vn 0 0 -1
vn 0 -1 0
vn 0 -1 0
vn 0 -1 0
vn 0 -1 0
vn 0 -0.16439898312091827 0.986393928527832
vn 0 -0.16439898312091827 0.986393928527832
vn 0 -0.16439898312091827 0.986393928527832
vn 0 -0.16439898312091827 0.986393928527832
vn 1 0 0
vn 1 0 0
vn 1 0 0
vn 1 0 0
vn -1 0 0
vn -1 0 0
vn -1 0 0
vn -1 0 0
f 1//1 2//2 3//3 4//4
f 4//5 3//6 5//7 6//8
f 6//9 5//10 7//11 8//12
f 8//13 7//14 2//15 1//16
f 2//17 7//18 5//19 3//20
f 4//21 6//22 8//23 1//24
o Sheet_180
v 0 0.10000000149011612 0.4000000059604645
v 0 0 0.4000000059604645
v 0 0 0
v 0 0.10000000149011612 0
vn 1 0 0
vn 1 0 0
vn 1 0 0
vn 1 0 0
f 9//25 10//26 11//27 12//28
o Sheet_181
v 0.5 0.10000000149011612 0
v 0.5 0 0
v 0.5 0 0.4000000059604645
v 0.5 0.10000000149011612 0.4000000059604645
vn -1 0 0
vn -1 0 0
vn -1 0 0
vn -1 0 0
f 13//29 14//30 15//31 16//32
o Sheet_182
v 0.5 0.10000000149011612 -1.1102230246251565e-16
v 0.5 0 -1.1102230246251565e-16
v 0 0 -1.1102230246251565e-16
v 0 0.10000000149011612 -1.1102230246251565e-16
vn 0 0 -1
vn 0 0 -1
vn 0 0 -1
vn 0 0 -1
f 17//33 18//34 19//35 20//36
o Sheet_183
v 0.5 0.10000000149011612 0.4000000059604645
v 0.44999998807907104 0.4000000059604645 0.3499999940395355
v 0.44999998807907104 0.4000000059604645 0.05000000074505806
v 0.5 0.10000000149011612 0
vn -0.986393928527832 -0.16439898312091827 1.1407471638248331e-17
vn -0.986393928527832 -0.16439898312091827 1.1407471638248331e-17
vn -0.986393928527832 -0.16439898312091827 1.1407471638248331e-17
vn -0.986393928527832 -0.16439898312091827 1.1407471638248331e-17
f 21//37 22//38 23//39 24//40
o Sheet_184
v 0.44999998807907104 0.4000000059604645 0.3499999940395355
v 0.44999998807907104 0.4000000059604645 0.05000000074505806
v 0.05000000074505806 0.4000000059604645 0.05000000074505806
v 0.05000000074505806 0.4000000059604645 0.3499999940395355
vn 0 1 0
vn 0 1 0
vn 0 1 0
vn 0 1 0
f 25//41 26//42 27//43 28//44
o Sheet_185
v 0 0.10000000149011612 -5.427340117602533e-17
v 0.05000000074505806 0.4000000059604645 0.05000000074505806
v 0.44999998807907104 0.4000000059604645 0.05000000074505806
v 0.5 0.10000000149011612 -5.5304859003932e-17
vn -9.125976814290297e-18 0.16439898312091827 -0.986393928527832
vn -9.125976814290297e-18 0.16439898312091827 -0.986393928527832
vn -9.125976814290297e-18 0.16439898312091827 -0.986393928527832
vn -9.125976814290297e-18 0.16439898312091827 -0.986393928527832
f 29//45 30//46 31//47 32//48
o Sheet_186
v -2.7535219994400707e-16 0.10000000149011612 0
v 0.05000000074505806 0.4000000059604645 0.05000000074505806
v 0.05000000074505806 0.4000000059604645 0.3499999940395355
v -2.7432072557248815e-16 0.10000000149011612 0.4000000059604645
vn 0.986393928527832 -0.16439898312091827 -1.1407471638248331e-17
vn 0.986393928527832 -0.16439898312091827 -1.1407471638248331e-17
vn 0.986393928527832 -0.16439898312091827 -1.1407471638248331e-17
vn 0.986393928527832 -0.16439898312091827 -1.1407471638248331e-17
f 33//49 34//50 35//51 36//52
o Sheet_187
v 0.5 0.10000000149011612 0.4000000059604645
v 0.44999998807907104 0.4000000059604645 0.3499999940395355
v 0.05000000074505806 0.4000000059604645 0.3499999940395355
v 1.1102230246251565e-16 0.10000000149011612 0.4000000059604645
vn -4.2892091440754703e-16 0.16439898312091827 0.986393928527832
vn -4.2892091440754703e-16 0.16439898312091827 0.986393928527832
vn -4.2892091440754703e-16 0.16439898312091827 0.986393928527832
vn -4.2892091440754703e-16 0.16439898312091827 0.986393928527832
f 37//53 38//54 39//55 40//56
o Sheet_188
v 0.5 0.10000000149011612 0.4000000059604645
v 0.5 0 0.4000000059604645
v 0 0 0.4000000059604645
v 0 0.10000000149011612 0.4000000059604645
vn 0 0 -1
vn 0 0 -1
vn 0 0 -1
vn 0 0 -1
f 41//57 42//58 43//59 44//60
o Sheet_189
v 0.5 0 0.4000000059604645
v 0.5 0 0
v 0.44999998807907104 0 0.09000000357627869
v 0.44999998807907104 0 0.36000001430511475
v 0 0 0
v 0.05000000074505806 0 0.09000000357627869
v 0 0 0.4000000059604645
v 0.05000000074505806 0 0.36000001430511475
vn 0 1 0
vn 0 1 0
vn 0 1 0
vn 0 1 0
vn 0 1 0
vn 0 1 0
vn 0 1 0
vn 0 1 0
f 45//61 46//62 47//63 48//64
f 46//62 49//65 50//66 47//63
f 49//65 51//67 52//68 50//66
f 48//64 52//68 51//67 45//61
o Sheet_192
v 0.44999998807907104 0.004999999888241291 0.36000001430511475
v 0.44999998807907104 0.004999999888241291 0.09000000357627869
v 0.05000000074505806 0.004999999888241291 0.09000000357627869
v 0.05000000074505806 0.004999999888241291 0.36000001430511475
vn 0 1 0
vn 0 1 0
vn 0 1 0
vn 0 1 0
f 53//69 54//70 55//71 56//72
o Sheet_197
v 0.44999998807907104 0.004999999888241291 0.09000000357627869
v 0.44999998807907104 0 0.09000000357627869
v 0.44999998807907104 0 0.36000001430511475
v 0.44999998807907104 0.004999999888241291 0.36000001430511475
vn -1 0 0
vn -1 0 0
vn -1 0 0
vn -1 0 0
f 57//73 58//74 59//75 60//76
o Sheet_198
v 0.44999998807907104 0 0.36000001430511475
v 0.44999998807907104 0.004999999888241291 0.36000001430511475
v 0.05000000074505806 0.004999999888241291 0.36000001430511475
v 0.05000000074505806 0 0.36000001430511475
vn 0 0 1
vn 0 0 1
vn 0 0 1
vn 0 0 1
f 61//77 62//78 63//79 64//80
o Sheet_199
v 0.05000000074505806 0.004999999888241291 0.09000000357627869
v 0.05000000074505806 0 0.09000000357627869
v 0.05000000074505806 0 0.36000001430511475
v 0.05000000074505806 0.004999999888241291 0.36000001430511475
vn -1 0 0
vn -1 0 0
vn -1 0 0
vn -1 0 0
f 65//81 66//82 67//83 68//84
o Sheet_200
v 0.44999998807907104 0.004999999888241291 0.09000000357627869
v 0.44999998807907104 0 0.09000000357627869
v 0.05000000074505806 0 0.09000000357627869
v 0.05000000074505806 0.004999999888241291 0.09000000357627869
vn 0 0 -1
vn 0 0 -1
vn 0 0 -1
vn 0 0 -1
f 69//85 70//86 71//87 72//88
