# Blender 4.4.3
# www.blender.org
mtllib pot.mtl
o Cylinder.001
v 0.000000 -0.128296 -0.080000
v -0.000000 0.031705 -0.090588
v 0.015607 -0.128296 -0.078463
v 0.017673 0.031705 -0.088848
v 0.030615 -0.128296 -0.073910
v 0.034667 0.031705 -0.083693
v 0.044446 -0.128296 -0.066518
v 0.050328 0.031705 -0.075321
v 0.056569 -0.128296 -0.056569
v 0.064056 0.031705 -0.064056
v 0.066518 -0.128296 -0.044446
v 0.075321 0.031705 -0.050328
v 0.073910 -0.128296 -0.030615
v 0.083693 0.031705 -0.034667
v 0.078463 -0.128296 -0.015607
v 0.088848 0.031705 -0.017673
v 0.080000 -0.128296 -0.000000
v 0.090588 0.031705 0.000000
v 0.078463 -0.128296 0.015607
v 0.088848 0.031705 0.017673
v 0.073910 -0.128296 0.030615
v 0.083693 0.031705 0.034667
v 0.066518 -0.128296 0.044446
v 0.075321 0.031705 0.050328
v 0.056569 -0.128296 0.056569
v 0.064056 0.031705 0.064056
v 0.044446 -0.128296 0.066518
v 0.050328 0.031705 0.075321
v 0.030615 -0.128296 0.073910
v 0.034667 0.031705 0.083693
v 0.015607 -0.128296 0.078463
v 0.017673 0.031705 0.088848
v 0.000000 -0.128296 0.080000
v -0.000000 0.031705 0.090588
v -0.015607 -0.128296 0.078463
v -0.017673 0.031705 0.088848
v -0.030615 -0.128296 0.073910
v -0.034667 0.031705 0.083693
v -0.044446 -0.128296 0.066518
v -0.050328 0.031705 0.075321
v -0.056569 -0.128296 0.056569
v -0.064056 0.031705 0.064056
v -0.066518 -0.128296 0.044446
v -0.075321 0.031705 0.050328
v -0.073910 -0.128296 0.030615
v -0.083693 0.031705 0.034667
v -0.078463 -0.128296 0.015607
v -0.088848 0.031705 0.017673
v -0.080000 -0.128296 -0.000000
v -0.090588 0.031705 0.000000
v -0.078463 -0.128296 -0.015607
v -0.088848 0.031705 -0.017673
v -0.073910 -0.128296 -0.030615
v -0.083693 0.031705 -0.034667
v -0.066518 -0.128296 -0.044446
v -0.075321 0.031705 -0.050328
v -0.056569 -0.128296 -0.056569
v -0.064056 0.031705 -0.064056
v -0.044446 -0.128296 -0.066518
v -0.050328 0.031705 -0.075321
v -0.030615 -0.128296 -0.073910
v -0.034667 0.031705 -0.083693
v -0.015607 -0.128296 -0.078463
v -0.017673 0.031705 -0.088848
v 0.021850 0.031705 -0.109848
v -0.000000 0.031705 -0.112000
v 0.042861 0.031705 -0.103475
v 0.062224 0.031705 -0.093125
v 0.079196 0.031705 -0.079196
v 0.093125 0.031705 -0.062224
v 0.103475 0.031705 -0.042861
v 0.109848 0.031705 -0.021850
v 0.112000 0.031705 0.000000
v 0.109848 0.031705 0.021850
v 0.103475 0.031705 0.042861
v 0.093125 0.031705 0.062224
v 0.079196 0.031705 0.079196
v 0.062224 0.031705 0.093125
v 0.042861 0.031705 0.103475
v 0.021850 0.031705 0.109848
v -0.000000 0.031705 0.112000
v -0.021850 0.031705 0.109848
v -0.042861 0.031705 0.103475
v -0.062224 0.031705 0.093125
v -0.079196 0.031705 0.079196
v -0.093125 0.031705 0.062224
v -0.103475 0.031705 0.042861
v -0.109848 0.031705 0.021850
v -0.112000 0.031705 0.000000
v -0.109848 0.031705 -0.021850
v -0.103475 0.031705 -0.042861
v -0.093125 0.031705 -0.062224
v -0.079196 0.031705 -0.079196
v -0.062224 0.031705 -0.093125
v -0.042861 0.031705 -0.103475
v -0.021850 0.031705 -0.109848
v 0.017673 0.017774 -0.088848
v 0.000000 0.017774 -0.090588
v 0.034667 0.017774 -0.083693
v 0.050328 0.017774 -0.075321
v 0.064056 0.017774 -0.064056
v 0.075321 0.017774 -0.050328
v 0.083693 0.017774 -0.034667
v 0.088848 0.017774 -0.017673
v 0.090588 0.017774 0.000000
v 0.088848 0.017774 0.017673
v 0.083693 0.017774 0.034667
v 0.075321 0.017774 0.050328
v 0.064056 0.017774 0.064056
v 0.050328 0.017774 0.075321
v 0.034667 0.017774 0.083693
v 0.017673 0.017774 0.088848
v 0.000000 0.017774 0.090588
v -0.017673 0.017774 0.088848
v -0.034667 0.017774 0.083693
v -0.050328 0.017774 0.075321
v -0.064056 0.017774 0.064056
v -0.075321 0.017774 0.050328
v -0.083693 0.017774 0.034667
v -0.088848 0.017774 0.017673
v -0.090588 0.017774 0.000000
v -0.088848 0.017774 -0.017673
v -0.083693 0.017774 -0.034667
v -0.075321 0.017774 -0.050328
v -0.064056 0.017774 -0.064056
v -0.050328 0.017774 -0.075321
v -0.034667 0.017774 -0.083693
v -0.017673 0.017774 -0.088848
v 0.023662 0.031705 -0.118957
v -0.000000 0.031705 -0.121287
v 0.046415 0.031705 -0.112055
v 0.067384 0.031705 -0.100847
v 0.085763 0.031705 -0.085763
v 0.100847 0.031705 -0.067384
v 0.112055 0.031705 -0.046415
v 0.118957 0.031705 -0.023662
v 0.121287 0.031705 -0.000000
v 0.118957 0.031705 0.023662
v 0.112055 0.031705 0.046415
v 0.100847 0.031705 0.067384
v 0.085763 0.031705 0.085763
v 0.067384 0.031705 0.100847
v 0.046415 0.031705 0.112055
v 0.023662 0.031705 0.118957
v -0.000000 0.031705 0.121287
v -0.023662 0.031705 0.118957
v -0.046415 0.031705 0.112055
v -0.067384 0.031705 0.100847
v -0.085763 0.031705 0.085763
v -0.100847 0.031705 0.067384
v -0.112055 0.031705 0.046415
v -0.118957 0.031705 0.023662
v -0.121287 0.031705 -0.000000
v -0.118957 0.031705 -0.023662
v -0.112055 0.031705 -0.046415
v -0.100847 0.031705 -0.067384
v -0.085763 0.031705 -0.085763
v -0.067384 0.031705 -0.100847
v -0.046415 0.031705 -0.112055
v -0.023662 0.031705 -0.118957
v 0.023662 0.007704 -0.118957
v -0.000000 0.007704 -0.121287
v 0.046415 0.007704 -0.112055
v 0.067384 0.007704 -0.100847
v 0.085763 0.007704 -0.085763
v 0.100847 0.007704 -0.067384
v 0.112055 0.007704 -0.046415
v 0.118957 0.007704 -0.023662
v 0.121287 0.007704 -0.000000
v 0.118957 0.007704 0.023662
v 0.112055 0.007704 0.046415
v 0.100847 0.007704 0.067384
v 0.085763 0.007704 0.085763
v 0.067384 0.007704 0.100847
v 0.046415 0.007704 0.112055
v 0.023662 0.007704 0.118957
v -0.000000 0.007704 0.121287
v -0.023662 0.007704 0.118957
v -0.046415 0.007704 0.112055
v -0.067384 0.007704 0.100847
v -0.085763 0.007704 0.085763
v -0.100847 0.007704 0.067384
v -0.112055 0.007704 0.046415
v -0.118957 0.007704 0.023662
v -0.121287 0.007704 -0.000000
v -0.118957 0.007704 -0.023662
v -0.112055 0.007704 -0.046415
v -0.100847 0.007704 -0.067384
v -0.085763 0.007704 -0.085763
v -0.067384 0.007704 -0.100847
v -0.046415 0.007704 -0.112055
v -0.023662 0.007704 -0.118957
v 0.020297 0.007704 -0.102042
v -0.000000 0.007704 -0.104041
v 0.039815 0.007704 -0.096121
v 0.057802 0.007704 -0.086507
v 0.073568 0.007704 -0.073568
v 0.086507 0.007704 -0.057802
v 0.096121 0.007704 -0.039815
v 0.102042 0.007704 -0.020297
v 0.104041 0.007704 0.000000
v 0.102042 0.007704 0.020297
v 0.096121 0.007704 0.039815
v 0.086507 0.007704 0.057802
v 0.073568 0.007704 0.073568
v 0.057802 0.007704 0.086507
v 0.039815 0.007704 0.096121
v 0.020297 0.007704 0.102042
v -0.000000 0.007704 0.104041
v -0.020297 0.007704 0.102042
v -0.039815 0.007704 0.096121
v -0.057802 0.007704 0.086507
v -0.073568 0.007704 0.073568
v -0.086507 0.007704 0.057802
v -0.096121 0.007704 0.039815
v -0.102042 0.007704 0.020297
v -0.104041 0.007704 0.000000
v -0.102042 0.007704 -0.020297
v -0.096121 0.007704 -0.039815
v -0.086507 0.007704 -0.057802
v -0.073568 0.007704 -0.073568
v -0.057802 0.007704 -0.086507
v -0.039815 0.007704 -0.096121
v -0.020297 0.007704 -0.102042
vn 0.0961 -0.1952 -0.9760
vn 0.2847 -0.1952 -0.9385
vn 0.4623 -0.1952 -0.8650
vn 0.6222 -0.1952 -0.7581
vn 0.7581 -0.1952 -0.6222
vn 0.8650 -0.1952 -0.4623
vn 0.9385 -0.1952 -0.2847
vn 0.9760 -0.1952 -0.0961
vn 0.9760 -0.1952 0.0961
vn 0.9385 -0.1952 0.2847
vn 0.8650 -0.1952 0.4623
vn 0.7581 -0.1952 0.6222
vn 0.6222 -0.1952 0.7581
vn 0.4623 -0.1952 0.8650
vn 0.2847 -0.1952 0.9385
vn 0.0961 -0.1952 0.9760
vn -0.0961 -0.1952 0.9760
vn -0.2847 -0.1952 0.9385
vn -0.4623 -0.1952 0.8650
vn -0.6222 -0.1952 0.7581
vn -0.7581 -0.1952 0.6222
vn -0.8650 -0.1952 0.4623
vn -0.9385 -0.1952 0.2847
vn -0.9760 -0.1952 0.0961
vn -0.9760 -0.1952 -0.0961
vn -0.9385 -0.1952 -0.2847
vn -0.8650 -0.1952 -0.4623
vn -0.7581 -0.1952 -0.6222
vn -0.6222 -0.1952 -0.7581
vn -0.4623 -0.1952 -0.8650
vn -0.2903 -0.0000 -0.9569
vn -0.2847 -0.1952 -0.9385
vn -0.0961 -0.1952 -0.9760
vn -0.0000 -1.0000 -0.0000
vn -0.0000 1.0000 -0.0000
vn -0.2903 -0.0000 0.9569
vn 0.6344 -0.0000 0.7730
vn -0.0980 -0.0000 -0.9952
vn -0.4714 -0.0000 0.8819
vn 0.4714 -0.0000 0.8819
vn 0.0980 -0.0000 -0.9952
vn -0.6344 -0.0000 0.7730
vn 0.2903 -0.0000 0.9569
vn 0.2903 -0.0000 -0.9569
vn -0.7730 -0.0000 0.6344
vn 0.0980 -0.0000 0.9952
vn 0.4714 -0.0000 -0.8819
vn -0.8819 -0.0000 0.4714
vn 0.6344 -0.0000 -0.7730
vn -0.9569 -0.0000 0.2903
vn 0.7730 -0.0000 -0.6344
vn -0.9952 -0.0000 0.0980
vn 0.8819 -0.0000 -0.4714
vn -0.9952 -0.0000 -0.0980
vn 0.9569 -0.0000 -0.2903
vn -0.9569 -0.0000 -0.2903
vn 0.9952 -0.0000 -0.0980
vn -0.8819 -0.0000 -0.4714
vn 0.9952 -0.0000 0.0980
vn -0.7730 -0.0000 -0.6344
vn 0.9569 -0.0000 0.2903
vn -0.6344 -0.0000 -0.7730
vn 0.8819 -0.0000 0.4714
vn -0.4714 -0.0000 -0.8819
vn -0.0980 -0.0000 0.9952
vn 0.7730 -0.0000 0.6344
vt 1.000000 0.500000
vt 1.000000 1.000000
vt 0.968750 1.000000
vt 0.968750 0.500000
vt 0.937500 1.000000
vt 0.937500 0.500000
vt 0.906250 1.000000
vt 0.906250 0.500000
vt 0.875000 1.000000
vt 0.875000 0.500000
vt 0.843750 1.000000
vt 0.843750 0.500000
vt 0.812500 1.000000
vt 0.812500 0.500000
vt 0.781250 1.000000
vt 0.781250 0.500000
vt 0.750000 1.000000
vt 0.750000 0.500000
vt 0.718750 1.000000
vt 0.718750 0.500000
vt 0.687500 1.000000
vt 0.687500 0.500000
vt 0.656250 1.000000
vt 0.656250 0.500000
vt 0.625000 1.000000
vt 0.625000 0.500000
vt 0.593750 1.000000
vt 0.593750 0.500000
vt 0.562500 1.000000
vt 0.562500 0.500000
vt 0.531250 1.000000
vt 0.531250 0.500000
vt 0.500000 1.000000
vt 0.500000 0.500000
vt 0.468750 1.000000
vt 0.468750 0.500000
vt 0.437500 1.000000
vt 0.437500 0.500000
vt 0.406250 1.000000
vt 0.406250 0.500000
vt 0.375000 1.000000
vt 0.375000 0.500000
vt 0.343750 1.000000
vt 0.343750 0.500000
vt 0.312500 1.000000
vt 0.312500 0.500000
vt 0.281250 1.000000
vt 0.281250 0.500000
vt 0.250000 1.000000
vt 0.250000 0.500000
vt 0.218750 1.000000
vt 0.218750 0.500000
vt 0.187500 1.000000
vt 0.187500 0.500000
vt 0.156250 1.000000
vt 0.156250 0.500000
vt 0.125000 1.000000
vt 0.125000 0.500000
vt 0.093750 1.000000
vt 0.093750 0.500000
vt 0.062500 1.000000
vt 0.062500 0.500000
vt 0.287870 0.059612
vt 0.324286 0.070659
vt 0.031250 1.000000
vt 0.031250 0.500000
vt 0.000000 1.000000
vt 0.000000 0.500000
vt 0.750000 0.490000
vt 0.796822 0.485388
vt 0.841844 0.471731
vt 0.883337 0.449553
vt 0.919706 0.419706
vt 0.949553 0.383337
vt 0.971731 0.341844
vt 0.985388 0.296822
vt 0.990000 0.250000
vt 0.985388 0.203178
vt 0.971731 0.158156
vt 0.949553 0.116663
vt 0.919706 0.080294
vt 0.883337 0.050447
vt 0.841844 0.028269
vt 0.796822 0.014612
vt 0.750000 0.010000
vt 0.703178 0.014612
vt 0.658156 0.028269
vt 0.616663 0.050447
vt 0.580294 0.080294
vt 0.550447 0.116663
vt 0.528269 0.158156
vt 0.514612 0.203178
vt 0.510000 0.250000
vt 0.514612 0.296822
vt 0.528269 0.341844
vt 0.550447 0.383337
vt 0.580294 0.419706
vt 0.616663 0.449553
vt 0.658156 0.471731
vt 0.703178 0.485388
vt 0.250000 0.444118
vt 0.287871 0.440388
vt 0.296822 0.485388
vt 0.250000 0.490000
vt 0.324286 0.429341
vt 0.341844 0.471731
vt 0.357846 0.411403
vt 0.383337 0.449553
vt 0.387262 0.387262
vt 0.419706 0.419706
vt 0.411403 0.357846
vt 0.449553 0.383337
vt 0.429341 0.324286
vt 0.471731 0.341844
vt 0.440388 0.287870
vt 0.485388 0.296822
vt 0.444118 0.250000
vt 0.490000 0.250000
vt 0.440388 0.212129
vt 0.485388 0.203178
vt 0.429341 0.175714
vt 0.471731 0.158156
vt 0.411403 0.142154
vt 0.449553 0.116663
vt 0.387262 0.112738
vt 0.419706 0.080294
vt 0.357846 0.088597
vt 0.383337 0.050447
vt 0.341844 0.028269
vt 0.296822 0.014612
vt 0.250000 0.055882
vt 0.250000 0.010000
vt 0.212129 0.059612
vt 0.203178 0.014612
vt 0.175714 0.070659
vt 0.158156 0.028269
vt 0.142154 0.088597
vt 0.116663 0.050447
vt 0.112738 0.112738
vt 0.080294 0.080294
vt 0.088597 0.142154
vt 0.050447 0.116663
vt 0.070659 0.175714
vt 0.028269 0.158156
vt 0.059612 0.212130
vt 0.014612 0.203178
vt 0.055882 0.250000
vt 0.010000 0.250000
vt 0.059612 0.287870
vt 0.014612 0.296822
vt 0.070659 0.324286
vt 0.028269 0.341844
vt 0.088597 0.357846
vt 0.050447 0.383337
vt 0.112738 0.387262
vt 0.080294 0.419706
vt 0.142154 0.411403
vt 0.116663 0.449553
vt 0.175714 0.429342
vt 0.158156 0.471731
vt 0.212130 0.440388
vt 0.203178 0.485388
s 0
f 1/1/1 66/2/1 65/3/1 3/4/1
f 3/4/2 65/3/2 67/5/2 5/6/2
f 5/6/3 67/5/3 68/7/3 7/8/3
f 7/8/4 68/7/4 69/9/4 9/10/4
f 9/10/5 69/9/5 70/11/5 11/12/5
f 11/12/6 70/11/6 71/13/6 13/14/6
f 13/14/7 71/13/7 72/15/7 15/16/7
f 15/16/8 72/15/8 73/17/8 17/18/8
f 17/18/9 73/17/9 74/19/9 19/20/9
f 19/20/10 74/19/10 75/21/10 21/22/10
f 21/22/11 75/21/11 76/23/11 23/24/11
f 23/24/12 76/23/12 77/25/12 25/26/12
f 25/26/13 77/25/13 78/27/13 27/28/13
f 27/28/14 78/27/14 79/29/14 29/30/14
f 29/30/15 79/29/15 80/31/15 31/32/15
f 31/32/16 80/31/16 81/33/16 33/34/16
f 33/34/17 81/33/17 82/35/17 35/36/17
f 35/36/18 82/35/18 83/37/18 37/38/18
f 37/38/19 83/37/19 84/39/19 39/40/19
f 39/40/20 84/39/20 85/41/20 41/42/20
f 41/42/21 85/41/21 86/43/21 43/44/21
f 43/44/22 86/43/22 87/45/22 45/46/22
f 45/46/23 87/45/23 88/47/23 47/48/23
f 47/48/24 88/47/24 89/49/24 49/50/24
f 49/50/25 89/49/25 90/51/25 51/52/25
f 51/52/26 90/51/26 91/53/26 53/54/26
f 53/54/27 91/53/27 92/55/27 55/56/27
f 55/56/28 92/55/28 93/57/28 57/58/28
f 57/58/29 93/57/29 94/59/29 59/60/29
f 59/60/30 94/59/30 95/61/30 61/62/30
f 32/63/31 30/64/31 111/64/31 112/63/31
f 61/62/32 95/61/32 96/65/32 63/66/32
f 63/66/33 96/65/33 66/67/33 1/68/33
f 1/69/34 3/70/34 5/71/34 7/72/34 9/73/34 11/74/34 13/75/34 15/76/34 17/77/34 19/78/34 21/79/34 23/80/34 25/81/34 27/82/34 29/83/34 31/84/34 33/85/34 35/86/34 37/87/34 39/88/34 41/89/34 43/90/34 45/91/34 47/92/34 49/93/34 51/94/34 53/95/34 55/96/34 57/97/34 59/98/34 61/99/34 63/100/34
f 2/101/35 4/102/35 65/103/35 66/104/35
f 4/102/35 6/105/35 67/106/35 65/103/35
f 6/105/35 8/107/35 68/108/35 67/106/35
f 8/107/35 10/109/35 69/110/35 68/108/35
f 10/109/35 12/111/35 70/112/35 69/110/35
f 12/111/35 14/113/35 71/114/35 70/112/35
f 14/113/35 16/115/35 72/116/35 71/114/35
f 16/115/35 18/117/35 73/118/35 72/116/35
f 18/117/35 20/119/35 74/120/35 73/118/35
f 20/119/35 22/121/35 75/122/35 74/120/35
f 22/121/35 24/123/35 76/124/35 75/122/35
f 24/123/35 26/125/35 77/126/35 76/124/35
f 26/125/35 28/127/35 78/128/35 77/126/35
f 28/127/35 30/64/35 79/129/35 78/128/35
f 30/64/35 32/63/35 80/130/35 79/129/35
f 32/63/35 34/131/35 81/132/35 80/130/35
f 34/131/35 36/133/35 82/134/35 81/132/35
f 36/133/35 38/135/35 83/136/35 82/134/35
f 38/135/35 40/137/35 84/138/35 83/136/35
f 40/137/35 42/139/35 85/140/35 84/138/35
f 42/139/35 44/141/35 86/142/35 85/140/35
f 44/141/35 46/143/35 87/144/35 86/142/35
f 46/143/35 48/145/35 88/146/35 87/144/35
f 48/145/35 50/147/35 89/148/35 88/146/35
f 50/147/35 52/149/35 90/150/35 89/148/35
f 52/149/35 54/151/35 91/152/35 90/150/35
f 54/151/35 56/153/35 92/154/35 91/152/35
f 56/153/35 58/155/35 93/156/35 92/154/35
f 58/155/35 60/157/35 94/158/35 93/156/35
f 60/157/35 62/159/35 95/160/35 94/158/35
f 62/159/35 64/161/35 96/162/35 95/160/35
f 64/161/35 2/101/35 66/104/35 96/162/35
f 97/102/35 98/101/35 128/161/35 127/159/35 126/157/35 125/155/35 124/153/35 123/151/35 122/149/35 121/147/35 120/145/35 119/143/35 118/141/35 117/139/35 116/137/35 115/135/35 114/133/35 113/131/35 112/63/35 111/64/35 110/127/35 109/125/35 108/123/35 107/121/35 106/119/35 105/117/35 104/115/35 103/113/35 102/111/35 101/109/35 100/107/35 99/105/35
f 6/105/36 4/102/36 97/102/36 99/105/36
f 60/157/37 58/155/37 125/155/37 126/157/37
f 34/131/38 32/63/38 112/63/38 113/131/38
f 8/107/39 6/105/39 99/105/39 100/107/39
f 62/159/40 60/157/40 126/157/40 127/159/40
f 36/133/41 34/131/41 113/131/41 114/133/41
f 10/109/42 8/107/42 100/107/42 101/109/42
f 64/161/43 62/159/43 127/159/43 128/161/43
f 38/135/44 36/133/44 114/133/44 115/135/44
f 12/111/45 10/109/45 101/109/45 102/111/45
f 2/101/46 64/161/46 128/161/46 98/101/46
f 40/137/47 38/135/47 115/135/47 116/137/47
f 14/113/48 12/111/48 102/111/48 103/113/48
f 42/139/49 40/137/49 116/137/49 117/139/49
f 16/115/50 14/113/50 103/113/50 104/115/50
f 44/141/51 42/139/51 117/139/51 118/141/51
f 18/117/52 16/115/52 104/115/52 105/117/52
f 46/143/53 44/141/53 118/141/53 119/143/53
f 20/119/54 18/117/54 105/117/54 106/119/54
f 48/145/55 46/143/55 119/143/55 120/145/55
f 22/121/56 20/119/56 106/119/56 107/121/56
f 50/147/57 48/145/57 120/145/57 121/147/57
f 24/123/58 22/121/58 107/121/58 108/123/58
f 52/149/59 50/147/59 121/147/59 122/149/59
f 26/125/60 24/123/60 108/123/60 109/125/60
f 54/151/61 52/149/61 122/149/61 123/151/61
f 28/127/62 26/125/62 109/125/62 110/127/62
f 56/153/63 54/151/63 123/151/63 124/153/63
f 30/64/64 28/127/64 110/127/64 111/64/64
f 4/102/65 2/101/65 98/101/65 97/102/65
f 58/155/66 56/153/66 124/153/66 125/155/66
f 70/11/35 71/13/35 135/13/35 134/11/35
f 79/29/35 80/31/35 144/31/35 143/29/35
f 88/47/35 89/49/35 153/49/35 152/47/35
f 65/3/35 67/5/35 131/5/35 129/3/35
f 75/21/35 76/23/35 140/23/35 139/21/35
f 84/39/35 85/41/35 149/41/35 148/39/35
f 93/57/35 94/59/35 158/59/35 157/57/35
f 71/13/35 72/15/35 136/15/35 135/13/35
f 80/31/35 81/33/35 145/33/35 144/31/35
f 89/49/35 90/51/35 154/51/35 153/49/35
f 67/5/35 68/7/35 132/7/35 131/5/35
f 76/23/35 77/25/35 141/25/35 140/23/35
f 85/41/35 86/43/35 150/43/35 149/41/35
f 94/59/35 95/61/35 159/61/35 158/59/35
f 72/15/35 73/17/35 137/17/35 136/15/35
f 81/33/35 82/35/35 146/35/35 145/33/35
f 90/51/35 91/53/35 155/53/35 154/51/35
f 68/7/35 69/9/35 133/9/35 132/7/35
f 77/25/35 78/27/35 142/27/35 141/25/35
f 86/43/35 87/45/35 151/45/35 150/43/35
f 95/61/35 96/65/35 160/65/35 159/61/35
f 73/17/35 74/19/35 138/19/35 137/17/35
f 82/35/35 83/37/35 147/37/35 146/35/35
f 91/53/35 92/55/35 156/55/35 155/53/35
f 69/9/35 70/11/35 134/11/35 133/9/35
f 78/27/35 79/29/35 143/29/35 142/27/35
f 87/45/35 88/47/35 152/47/35 151/45/35
f 66/2/35 65/3/35 129/3/35 130/2/35
f 96/65/35 66/67/35 130/67/35 160/65/35
f 74/19/35 75/21/35 139/21/35 138/19/35
f 83/37/35 84/39/35 148/39/35 147/37/35
f 92/55/35 93/57/35 157/57/35 156/55/35
f 149/41/45 150/43/45 182/43/45 181/41/45
f 136/15/57 137/17/57 169/17/57 168/15/57
f 150/43/48 151/45/48 183/45/48 182/43/48
f 137/17/59 138/19/59 170/19/59 169/17/59
f 151/45/50 152/47/50 184/47/50 183/45/50
f 138/19/61 139/21/61 171/21/61 170/19/61
f 152/47/52 153/49/52 185/49/52 184/47/52
f 139/21/63 140/23/63 172/23/63 171/21/63
f 153/49/54 154/51/54 186/51/54 185/49/54
f 140/23/66 141/25/66 173/25/66 172/23/66
f 154/51/56 155/53/56 187/53/56 186/51/56
f 141/25/37 142/27/37 174/27/37 173/25/37
f 155/53/58 156/55/58 188/55/58 187/53/58
f 142/27/40 143/29/40 175/29/40 174/27/40
f 130/2/41 129/3/41 161/3/41 162/2/41
f 156/55/60 157/57/60 189/57/60 188/55/60
f 143/29/43 144/31/43 176/31/43 175/29/43
f 129/3/44 131/5/44 163/5/44 161/3/44
f 157/57/62 158/59/62 190/59/62 189/57/62
f 144/31/46 145/33/46 177/33/46 176/31/46
f 131/5/47 132/7/47 164/7/47 163/5/47
f 158/59/64 159/61/64 191/61/64 190/59/64
f 145/33/65 146/35/65 178/35/65 177/33/65
f 132/7/49 133/9/49 165/9/49 164/7/49
f 159/61/31 160/65/31 192/65/31 191/61/31
f 146/35/36 147/37/36 179/37/36 178/35/36
f 133/9/51 134/11/51 166/11/51 165/9/51
f 160/65/38 130/67/38 162/67/38 192/65/38
f 147/37/39 148/39/39 180/39/39 179/37/39
f 134/11/53 135/13/53 167/13/53 166/11/53
f 148/39/42 149/41/42 181/41/42 180/39/42
f 135/13/55 136/15/55 168/15/55 167/13/55
f 191/61/34 192/65/34 224/65/34 223/61/34
f 178/35/34 179/37/34 211/37/34 210/35/34
f 165/9/34 166/11/34 198/11/34 197/9/34
f 192/65/34 162/67/34 194/67/34 224/65/34
f 179/37/34 180/39/34 212/39/34 211/37/34
f 166/11/34 167/13/34 199/13/34 198/11/34
f 180/39/34 181/41/34 213/41/34 212/39/34
f 167/13/34 168/15/34 200/15/34 199/13/34
f 181/41/34 182/43/34 214/43/34 213/41/34
f 168/15/34 169/17/34 201/17/34 200/15/34
f 182/43/34 183/45/34 215/45/34 214/43/34
f 169/17/34 170/19/34 202/19/34 201/17/34
f 183/45/34 184/47/34 216/47/34 215/45/34
f 170/19/34 171/21/34 203/21/34 202/19/34
f 184/47/34 185/49/34 217/49/34 216/47/34
f 171/21/34 172/23/34 204/23/34 203/21/34
f 185/49/34 186/51/34 218/51/34 217/49/34
f 172/23/34 173/25/34 205/25/34 204/23/34
f 186/51/34 187/53/34 219/53/34 218/51/34
f 173/25/34 174/27/34 206/27/34 205/25/34
f 187/53/34 188/55/34 220/55/34 219/53/34
f 174/27/34 175/29/34 207/29/34 206/27/34
f 162/2/34 161/3/34 193/3/34 194/2/34
f 188/55/34 189/57/34 221/57/34 220/55/34
f 175/29/34 176/31/34 208/31/34 207/29/34
f 161/3/34 163/5/34 195/5/34 193/3/34
f 189/57/34 190/59/34 222/59/34 221/57/34
f 176/31/34 177/33/34 209/33/34 208/31/34
f 163/5/34 164/7/34 196/7/34 195/5/34
f 190/59/34 191/61/34 223/61/34 222/59/34
f 177/33/34 178/35/34 210/35/34 209/33/34
f 164/7/34 165/9/34 197/9/34 196/7/34
