# Blender 4.4.3
# www.blender.org
mtllib pot_cactus.mtl
o Cylinder
v 0.000000 -0.128296 -0.080000
v -0.000000 0.031705 -0.090588
v 0.015607 -0.128296 -0.078463
v 0.017673 0.031705 -0.088848
v 0.030615 -0.128296 -0.073910
v 0.034667 0.031705 -0.083693
v 0.044446 -0.128296 -0.066518
v 0.050328 0.031705 -0.075321
v 0.056569 -0.128296 -0.056569
v 0.064056 0.031705 -0.064056
v 0.066518 -0.128296 -0.044446
v 0.075321 0.031705 -0.050328
v 0.073910 -0.128296 -0.030615
v 0.083693 0.031705 -0.034667
v 0.078463 -0.128296 -0.015607
v 0.088848 0.031705 -0.017673
v 0.080000 -0.128296 -0.000000
v 0.090588 0.031705 0.000000
v 0.078463 -0.128296 0.015607
v 0.088848 0.031705 0.017673
v 0.073910 -0.128296 0.030615
v 0.083693 0.031705 0.034667
v 0.066518 -0.128296 0.044446
v 0.075321 0.031705 0.050328
v 0.056569 -0.128296 0.056569
v 0.064056 0.031705 0.064056
v 0.044446 -0.128296 0.066518
v 0.050328 0.031705 0.075321
v 0.030615 -0.128296 0.073910
v 0.034667 0.031705 0.083693
v 0.015607 -0.128296 0.078463
v 0.017673 0.031705 0.088848
v 0.000000 -0.128296 0.080000
v -0.000000 0.031705 0.090588
v -0.015607 -0.128296 0.078463
v -0.017673 0.031705 0.088848
v -0.030615 -0.128296 0.073910
v -0.034667 0.031705 0.083693
v -0.044446 -0.128296 0.066518
v -0.050328 0.031705 0.075321
v -0.056569 -0.128296 0.056569
v -0.064056 0.031705 0.064056
v -0.066518 -0.128296 0.044446
v -0.075321 0.031705 0.050328
v -0.073910 -0.128296 0.030615
v -0.083693 0.031705 0.034667
v -0.078463 -0.128296 0.015607
v -0.088848 0.031705 0.017673
v -0.080000 -0.128296 -0.000000
v -0.090588 0.031705 0.000000
v -0.078463 -0.128296 -0.015607
v -0.088848 0.031705 -0.017673
v -0.073910 -0.128296 -0.030615
v -0.083693 0.031705 -0.034667
v -0.066518 -0.128296 -0.044446
v -0.075321 0.031705 -0.050328
v -0.056569 -0.128296 -0.056569
v -0.064056 0.031705 -0.064056
v -0.044446 -0.128296 -0.066518
v -0.050328 0.031705 -0.075321
v -0.030615 -0.128296 -0.073910
v -0.034667 0.031705 -0.083693
v -0.015607 -0.128296 -0.078463
v -0.017673 0.031705 -0.088848
v 0.021850 0.031705 -0.109848
v -0.000000 0.031705 -0.112000
v 0.042861 0.031705 -0.103475
v 0.062224 0.031705 -0.093125
v 0.079196 0.031705 -0.079196
v 0.093125 0.031705 -0.062224
v 0.103475 0.031705 -0.042861
v 0.109848 0.031705 -0.021850
v 0.112000 0.031705 0.000000
v 0.109848 0.031705 0.021850
v 0.103475 0.031705 0.042861
v 0.093125 0.031705 0.062224
v 0.079196 0.031705 0.079196
v 0.062224 0.031705 0.093125
v 0.042861 0.031705 0.103475
v 0.021850 0.031705 0.109848
v -0.000000 0.031705 0.112000
v -0.021850 0.031705 0.109848
v -0.042861 0.031705 0.103475
v -0.062224 0.031705 0.093125
v -0.079196 0.031705 0.079196
v -0.093125 0.031705 0.062224
v -0.103475 0.031705 0.042861
v -0.109848 0.031705 0.021850
v -0.112000 0.031705 0.000000
v -0.109848 0.031705 -0.021850
v -0.103475 0.031705 -0.042861
v -0.093125 0.031705 -0.062224
v -0.079196 0.031705 -0.079196
v -0.062224 0.031705 -0.093125
v -0.042861 0.031705 -0.103475
v -0.021850 0.031705 -0.109848
v 0.017673 0.017774 -0.088848
v 0.000000 0.017774 -0.090588
v 0.034667 0.017774 -0.083693
v 0.050328 0.017774 -0.075321
v 0.064056 0.017774 -0.064056
v 0.075321 0.017774 -0.050328
v 0.083693 0.017774 -0.034667
v 0.088848 0.017774 -0.017673
v 0.090588 0.017774 0.000000
v 0.088848 0.017774 0.017673
v 0.083693 0.017774 0.034667
v 0.075321 0.017774 0.050328
v 0.064056 0.017774 0.064056
v 0.050328 0.017774 0.075321
v 0.034667 0.017774 0.083693
v 0.017673 0.017774 0.088848
v 0.000000 0.017774 0.090588
v -0.017673 0.017774 0.088848
v -0.034667 0.017774 0.083693
v -0.050328 0.017774 0.075321
v -0.064056 0.017774 0.064056
v -0.075321 0.017774 0.050328
v -0.083693 0.017774 0.034667
v -0.088848 0.017774 0.017673
v -0.090588 0.017774 0.000000
v -0.088848 0.017774 -0.017673
v -0.083693 0.017774 -0.034667
v -0.075321 0.017774 -0.050328
v -0.064056 0.017774 -0.064056
v -0.050328 0.017774 -0.075321
v -0.034667 0.017774 -0.083693
v -0.017673 0.017774 -0.088848
v 0.023662 0.031705 -0.118957
v -0.000000 0.031705 -0.121287
v 0.046415 0.031705 -0.112055
v 0.067384 0.031705 -0.100847
v 0.085763 0.031705 -0.085763
v 0.100847 0.031705 -0.067384
v 0.112055 0.031705 -0.046415
v 0.118957 0.031705 -0.023662
v 0.121287 0.031705 -0.000000
v 0.118957 0.031705 0.023662
v 0.112055 0.031705 0.046415
v 0.100847 0.031705 0.067384
v 0.085763 0.031705 0.085763
v 0.067384 0.031705 0.100847
v 0.046415 0.031705 0.112055
v 0.023662 0.031705 0.118957
v -0.000000 0.031705 0.121287
v -0.023662 0.031705 0.118957
v -0.046415 0.031705 0.112055
v -0.067384 0.031705 0.100847
v -0.085763 0.031705 0.085763
v -0.100847 0.031705 0.067384
v -0.112055 0.031705 0.046415
v -0.118957 0.031705 0.023662
v -0.121287 0.031705 -0.000000
v -0.118957 0.031705 -0.023662
v -0.112055 0.031705 -0.046415
v -0.100847 0.031705 -0.067384
v -0.085763 0.031705 -0.085763
v -0.067384 0.031705 -0.100847
v -0.046415 0.031705 -0.112055
v -0.023662 0.031705 -0.118957
v 0.023662 0.007704 -0.118957
v -0.000000 0.007704 -0.121287
v 0.046415 0.007704 -0.112055
v 0.067384 0.007704 -0.100847
v 0.085763 0.007704 -0.085763
v 0.100847 0.007704 -0.067384
v 0.112055 0.007704 -0.046415
v 0.118957 0.007704 -0.023662
v 0.121287 0.007704 -0.000000
v 0.118957 0.007704 0.023662
v 0.112055 0.007704 0.046415
v 0.100847 0.007704 0.067384
v 0.085763 0.007704 0.085763
v 0.067384 0.007704 0.100847
v 0.046415 0.007704 0.112055
v 0.023662 0.007704 0.118957
v -0.000000 0.007704 0.121287
v -0.023662 0.007704 0.118957
v -0.046415 0.007704 0.112055
v -0.067384 0.007704 0.100847
v -0.085763 0.007704 0.085763
v -0.100847 0.007704 0.067384
v -0.112055 0.007704 0.046415
v -0.118957 0.007704 0.023662
v -0.121287 0.007704 -0.000000
v -0.118957 0.007704 -0.023662
v -0.112055 0.007704 -0.046415
v -0.100847 0.007704 -0.067384
v -0.085763 0.007704 -0.085763
v -0.067384 0.007704 -0.100847
v -0.046415 0.007704 -0.112055
v -0.023662 0.007704 -0.118957
v 0.020297 0.007704 -0.102042
v -0.000000 0.007704 -0.104041
v 0.039815 0.007704 -0.096121
v 0.057802 0.007704 -0.086507
v 0.073568 0.007704 -0.073568
v 0.086507 0.007704 -0.057802
v 0.096121 0.007704 -0.039815
v 0.102042 0.007704 -0.020297
v 0.104041 0.007704 0.000000
v 0.102042 0.007704 0.020297
v 0.096121 0.007704 0.039815
v 0.086507 0.007704 0.057802
v 0.073568 0.007704 0.073568
v 0.057802 0.007704 0.086507
v 0.039815 0.007704 0.096121
v 0.020297 0.007704 0.102042
v -0.000000 0.007704 0.104041
v -0.020297 0.007704 0.102042
v -0.039815 0.007704 0.096121
v -0.057802 0.007704 0.086507
v -0.073568 0.007704 0.073568
v -0.086507 0.007704 0.057802
v -0.096121 0.007704 0.039815
v -0.102042 0.007704 0.020297
v -0.104041 0.007704 0.000000
v -0.102042 0.007704 -0.020297
v -0.096121 0.007704 -0.039815
v -0.086507 0.007704 -0.057802
v -0.073568 0.007704 -0.073568
v -0.057802 0.007704 -0.086507
v -0.039815 0.007704 -0.096121
v -0.020297 0.007704 -0.102042
v -0.136000 0.222842 -0.018667
v -0.136000 0.213572 -0.027937
v -0.136000 0.201460 -0.032954
v -0.136000 0.194905 -0.033600
v -0.142555 0.138265 -0.032954
v -0.134721 0.227859 -0.006429
v -0.133492 0.225947 -0.012611
v -0.132358 0.222842 -0.018308
v -0.131365 0.218663 -0.023302
v -0.130550 0.213572 -0.027401
v -0.129944 0.207763 -0.030446
v -0.129571 0.201460 -0.032321
v -0.129445 0.194905 -0.032954
v -0.148858 0.138265 -0.031042
v -0.133492 0.227859 -0.006056
v -0.131079 0.225947 -0.011879
v -0.128856 0.222842 -0.017246
v -0.126908 0.218663 -0.021950
v -0.125309 0.213572 -0.025811
v -0.124121 0.207763 -0.028679
v -0.123389 0.201460 -0.030446
v -0.123142 0.194905 -0.031042
v -0.154667 0.138265 -0.027937
v -0.132358 0.227859 -0.005450
v -0.128856 0.225947 -0.010691
v -0.125629 0.222842 -0.015521
v -0.122800 0.218663 -0.019755
v -0.120479 0.213572 -0.023229
v -0.118754 0.207763 -0.025811
v -0.117692 0.201460 -0.027401
v -0.117333 0.194905 -0.027937
v -0.159759 0.138265 -0.023759
v -0.131365 0.227859 -0.004635
v -0.126908 0.225947 -0.009092
v -0.122800 0.222842 -0.013200
v -0.119200 0.218663 -0.016800
v -0.116245 0.213572 -0.019755
v -0.114050 0.207763 -0.021950
v -0.112698 0.201460 -0.023302
v -0.112241 0.194905 -0.023759
v -0.163937 0.138265 -0.018667
v -0.130550 0.227859 -0.003642
v -0.125309 0.225947 -0.007144
v -0.120479 0.222842 -0.010371
v -0.116245 0.218663 -0.013200
v -0.112771 0.213572 -0.015521
v -0.110189 0.207763 -0.017246
v -0.108599 0.201460 -0.018308
v -0.108063 0.194905 -0.018667
v -0.167042 0.138265 -0.012858
v -0.136000 0.228505 -0.000000
v -0.129944 0.227859 -0.002509
v -0.124121 0.225947 -0.004921
v -0.118754 0.222842 -0.007144
v -0.114050 0.218663 -0.009092
v -0.110189 0.213572 -0.010691
v -0.107321 0.207763 -0.011879
v -0.105554 0.201460 -0.012611
v -0.104958 0.194905 -0.012858
v -0.168954 0.138265 -0.006555
v -0.129571 0.227859 -0.001279
v -0.123389 0.225947 -0.002509
v -0.117692 0.222842 -0.003642
v -0.112698 0.218663 -0.004635
v -0.108599 0.213572 -0.005450
v -0.105554 0.207763 -0.006056
v -0.103679 0.201460 -0.006429
v -0.103046 0.194905 -0.006555
v -0.169600 0.138265 -0.000000
v -0.129445 0.227859 -0.000000
v -0.123142 0.225947 0.000000
v -0.117333 0.222842 0.000000
v -0.112241 0.218663 -0.000000
v -0.108063 0.213572 0.000000
v -0.104958 0.207763 -0.000000
v -0.103046 0.201460 0.000000
v -0.102400 0.194905 0.000000
v -0.168954 0.138265 0.006555
v -0.129571 0.227859 0.001279
v -0.123389 0.225947 0.002509
v -0.117692 0.222842 0.003642
v -0.112698 0.218663 0.004635
v -0.108599 0.213572 0.005450
v -0.105554 0.207763 0.006056
v -0.103679 0.201460 0.006429
v -0.103046 0.194905 0.006555
v -0.167042 0.138265 0.012858
v -0.129944 0.227859 0.002509
v -0.124121 0.225947 0.004921
v -0.118754 0.222842 0.007144
v -0.114050 0.218663 0.009092
v -0.110189 0.213572 0.010691
v -0.107321 0.207763 0.011879
v -0.105554 0.201460 0.012611
v -0.104958 0.194905 0.012858
v -0.163937 0.138265 0.018667
v -0.130550 0.227859 0.003642
v -0.125309 0.225947 0.007144
v -0.120479 0.222842 0.010371
v -0.116245 0.218663 0.013200
v -0.112771 0.213572 0.015521
v -0.110189 0.207763 0.017246
v -0.108599 0.201460 0.018308
v -0.108063 0.194905 0.018667
v -0.159759 0.138265 0.023759
v -0.131365 0.227859 0.004635
v -0.126908 0.225947 0.009092
v -0.122800 0.222842 0.013200
v -0.119200 0.218663 0.016800
v -0.116245 0.213572 0.019755
v -0.114050 0.207763 0.021950
v -0.112698 0.201460 0.023302
v -0.112241 0.194905 0.023759
v -0.154667 0.138265 0.027937
v -0.132358 0.227859 0.005450
v -0.128856 0.225947 0.010691
v -0.125629 0.222842 0.015521
v -0.122800 0.218663 0.019755
v -0.120479 0.213572 0.023229
v -0.118754 0.207763 0.025811
v -0.117692 0.201460 0.027401
v -0.117333 0.194905 0.027937
v -0.148858 0.138265 0.031042
v -0.133492 0.227859 0.006056
v -0.131079 0.225947 0.011879
v -0.128856 0.222842 0.017246
v -0.126908 0.218663 0.021950
v -0.125309 0.213572 0.025811
v -0.124121 0.207763 0.028679
v -0.123389 0.201460 0.030446
v -0.123142 0.194905 0.031042
v -0.142555 0.138265 0.032954
v -0.134721 0.227859 0.006429
v -0.133492 0.225947 0.012611
v -0.132358 0.222842 0.018308
v -0.131365 0.218663 0.023302
v -0.130550 0.213572 0.027401
v -0.129944 0.207763 0.030446
v -0.129571 0.201460 0.032321
v -0.129445 0.194905 0.032954
v -0.136000 0.138265 0.033600
v -0.136000 0.227859 0.006555
v -0.136000 0.225947 0.012858
v -0.136000 0.222842 0.018667
v -0.136000 0.218663 0.023759
v -0.136000 0.213572 0.027937
v -0.136000 0.207763 0.031042
v -0.136000 0.201460 0.032954
v -0.136000 0.194905 0.033600
v -0.129445 0.138265 0.032954
v -0.137279 0.227859 0.006429
v -0.138509 0.225947 0.012611
v -0.139642 0.222842 0.018308
v -0.140635 0.218663 0.023302
v -0.141450 0.213572 0.027401
v -0.142056 0.207763 0.030446
v -0.142429 0.201460 0.032321
v -0.142555 0.194905 0.032954
v -0.123142 0.138265 0.031042
v -0.138509 0.227859 0.006056
v -0.140921 0.225947 0.011879
v -0.143144 0.222842 0.017246
v -0.145092 0.218663 0.021950
v -0.146691 0.213572 0.025811
v -0.147879 0.207763 0.028679
v -0.148611 0.201460 0.030446
v -0.148858 0.194905 0.031042
v -0.117333 0.138265 0.027937
v -0.139642 0.227859 0.005450
v -0.143144 0.225947 0.010691
v -0.146371 0.222842 0.015521
v -0.149200 0.218663 0.019755
v -0.151521 0.213572 0.023229
v -0.153246 0.207763 0.025811
v -0.154308 0.201460 0.027401
v -0.154667 0.194905 0.027937
v -0.112241 0.138265 0.023759
v -0.140635 0.227859 0.004635
v -0.145092 0.225947 0.009092
v -0.149200 0.222842 0.013200
v -0.152800 0.218663 0.016800
v -0.155755 0.213572 0.019755
v -0.157950 0.207763 0.021950
v -0.159302 0.201460 0.023302
v -0.159759 0.194905 0.023759
v -0.108063 0.138265 0.018667
v -0.141450 0.227859 0.003642
v -0.146691 0.225947 0.007144
v -0.151521 0.222842 0.010371
v -0.155755 0.218663 0.013200
v -0.159229 0.213572 0.015521
v -0.161811 0.207763 0.017246
v -0.163401 0.201460 0.018308
v -0.163937 0.194905 0.018667
v -0.104958 0.138265 0.012858
v -0.142056 0.227859 0.002509
v -0.147879 0.225947 0.004921
v -0.153246 0.222842 0.007144
v -0.157950 0.218663 0.009092
v -0.161811 0.213572 0.010691
v -0.164679 0.207763 0.011879
v -0.166446 0.201460 0.012611
v -0.167042 0.194905 0.012858
v -0.103046 0.138265 0.006555
v -0.142429 0.227859 0.001279
v -0.148611 0.225947 0.002509
v -0.154308 0.222842 0.003642
v -0.159302 0.218663 0.004635
v -0.163401 0.213572 0.005450
v -0.166446 0.207763 0.006056
v -0.168321 0.201460 0.006429
v -0.168954 0.194905 0.006555
v -0.102400 0.138265 0.000000
v -0.142555 0.227859 -0.000000
v -0.148858 0.225947 -0.000000
v -0.154667 0.222842 -0.000000
v -0.159759 0.218663 -0.000000
v -0.163937 0.213572 -0.000000
v -0.167042 0.207763 -0.000000
v -0.168954 0.201460 -0.000000
v -0.169600 0.194905 -0.000000
v -0.103046 0.138265 -0.006555
v -0.142429 0.227859 -0.001279
v -0.148611 0.225947 -0.002509
v -0.154308 0.222842 -0.003642
v -0.159302 0.218663 -0.004635
v -0.163401 0.213572 -0.005450
v -0.166446 0.207763 -0.006056
v -0.168321 0.201460 -0.006429
v -0.168954 0.194905 -0.006555
v -0.104958 0.138265 -0.012858
v -0.142056 0.227859 -0.002509
v -0.147879 0.225947 -0.004921
v -0.153246 0.222842 -0.007144
v -0.157950 0.218663 -0.009092
v -0.161811 0.213572 -0.010691
v -0.164679 0.207763 -0.011879
v -0.166446 0.201460 -0.012611
v -0.167042 0.194905 -0.012858
v -0.108063 0.138265 -0.018667
v -0.141450 0.227859 -0.003642
v -0.146691 0.225947 -0.007144
v -0.151521 0.222842 -0.010371
v -0.155755 0.218663 -0.013200
v -0.159229 0.213572 -0.015521
v -0.161811 0.207763 -0.017246
v -0.163401 0.201460 -0.018308
v -0.163937 0.194905 -0.018667
v -0.112241 0.138265 -0.023759
v -0.140635 0.227859 -0.004635
v -0.145092 0.225947 -0.009092
v -0.149200 0.222842 -0.013200
v -0.152800 0.218663 -0.016800
v -0.155755 0.213572 -0.019755
v -0.157950 0.207763 -0.021950
v -0.159302 0.201460 -0.023302
v -0.159759 0.194905 -0.023759
v -0.117333 0.138265 -0.027937
v -0.139642 0.227859 -0.005450
v -0.143144 0.225947 -0.010691
v -0.146371 0.222842 -0.015521
v -0.149200 0.218663 -0.019755
v -0.151521 0.213572 -0.023229
v -0.153246 0.207763 -0.025811
v -0.154308 0.201460 -0.027401
v -0.154667 0.194905 -0.027937
v -0.123142 0.138265 -0.031042
v -0.138509 0.227859 -0.006056
v -0.140921 0.225947 -0.011879
v -0.143144 0.222842 -0.017246
v -0.145092 0.218663 -0.021950
v -0.146691 0.213572 -0.025811
v -0.147879 0.207763 -0.028679
v -0.148611 0.201460 -0.030446
v -0.148858 0.194905 -0.031042
v -0.129445 0.138265 -0.032954
v -0.137279 0.227859 -0.006429
v -0.138509 0.225947 -0.012611
v -0.139642 0.222842 -0.018308
v -0.140635 0.218663 -0.023302
v -0.141450 0.213572 -0.027401
v -0.142056 0.207763 -0.030446
v -0.142429 0.201460 -0.032321
v -0.142555 0.194905 -0.032954
v -0.136000 0.138265 -0.033600
v -0.136000 0.227859 -0.006555
v -0.136000 0.225947 -0.012858
v -0.136000 0.218663 -0.023759
v -0.136000 0.207763 -0.031042
v -0.136341 0.101894 -0.032954
v -0.142053 0.099230 -0.031042
v -0.147318 0.096775 -0.027937
v -0.151933 0.094624 -0.023759
v -0.155720 0.092858 -0.018667
v -0.158534 0.091545 -0.012858
v -0.160267 0.090737 -0.006555
v -0.160852 0.090465 -0.000000
v -0.160267 0.090737 0.006555
v -0.158534 0.091545 0.012858
v -0.155720 0.092858 0.018667
v -0.151933 0.094624 0.023759
v -0.147318 0.096775 0.027937
v -0.142053 0.099230 0.031042
v -0.136341 0.101894 0.032954
v -0.130400 0.104665 0.033600
v -0.124459 0.107435 0.032954
v -0.118747 0.110099 0.031042
v -0.113482 0.112554 0.027937
v -0.108867 0.114705 0.023759
v -0.105080 0.116471 0.018667
v -0.102266 0.117784 0.012858
v -0.100533 0.118592 0.006555
v -0.099948 0.118865 0.000000
v -0.100533 0.118592 -0.006555
v -0.102266 0.117784 -0.012858
v -0.105080 0.116471 -0.018667
v -0.108867 0.114705 -0.023759
v -0.113482 0.112554 -0.027937
v -0.118747 0.110099 -0.031042
v -0.124459 0.107435 -0.032954
v -0.130400 0.104665 -0.033600
v -0.064800 0.075710 -0.032954
v -0.064800 0.069406 -0.031042
v -0.064800 0.063597 -0.027937
v -0.064800 0.058506 -0.023759
v -0.064800 0.054327 -0.018667
v -0.064800 0.051222 -0.012858
v -0.064800 0.049310 -0.006555
v -0.064800 0.048665 -0.000000
v -0.064800 0.049310 0.006555
v -0.064800 0.051222 0.012858
v -0.064800 0.054327 0.018667
v -0.064800 0.058506 0.023759
v -0.064800 0.063597 0.027937
v -0.064800 0.069406 0.031042
v -0.064800 0.075710 0.032954
v -0.064800 0.082265 0.033600
v -0.064800 0.088820 0.032954
v -0.064800 0.095123 0.031042
v -0.064800 0.100932 0.027937
v -0.064800 0.106023 0.023759
v -0.064800 0.110202 0.018667
v -0.064800 0.113307 0.012858
v -0.064800 0.115219 0.006555
v -0.064800 0.115865 0.000000
v -0.064800 0.115219 -0.006555
v -0.064800 0.113307 -0.012858
v -0.064800 0.110202 -0.018667
v -0.064800 0.106023 -0.023759
v -0.064800 0.100932 -0.027937
v -0.064800 0.095123 -0.031042
v -0.064800 0.088820 -0.032954
v -0.064800 0.082265 -0.033600
v -0.117421 0.053647 -0.008244
v -0.116440 0.055426 -0.016171
v -0.086189 0.110329 0.023477
v -0.088332 0.106440 0.029880
v -0.117752 0.053046 -0.000000
v -0.084596 0.113220 0.016171
v -0.117421 0.053647 0.008244
v -0.083616 0.115000 0.008244
v -0.116440 0.055426 0.016171
v -0.083284 0.115601 0.000000
v -0.114848 0.058317 0.023477
v -0.083616 0.115000 -0.008244
v -0.112705 0.062207 0.029880
v -0.084596 0.113220 -0.016171
v -0.110093 0.066946 0.035135
v -0.086189 0.110329 -0.023477
v -0.107114 0.072354 0.039040
v -0.103881 0.078221 -0.041445
v -0.100518 0.084323 -0.042257
v -0.088332 0.106440 -0.029880
v -0.103881 0.078221 0.041445
v -0.107114 0.072354 -0.039040
v -0.090944 0.101700 -0.035135
v -0.100518 0.084323 0.042257
v -0.110093 0.066946 -0.035135
v -0.093923 0.096293 -0.039040
v -0.097156 0.090425 0.041445
v -0.112705 0.062207 -0.029880
v -0.097156 0.090425 -0.041445
v -0.093923 0.096292 0.039040
v -0.114848 0.058317 -0.023477
v -0.090944 0.101700 0.035135
v 0.000000 0.285422 -0.044446
v 0.000000 0.263350 -0.066518
v 0.000000 0.234512 -0.078463
v 0.000000 0.218905 -0.080000
v -0.015607 0.002905 -0.078463
v 0.003045 0.297367 -0.015307
v 0.005973 0.292815 -0.030026
v 0.008671 0.285422 -0.043592
v 0.011036 0.275473 -0.055482
v 0.012977 0.263350 -0.065239
v 0.014419 0.249519 -0.072490
v 0.015307 0.234512 -0.076955
v 0.015607 0.218905 -0.078463
v -0.030615 0.002905 -0.073910
v 0.005973 0.297367 -0.014419
v 0.011716 0.292815 -0.028284
v 0.017009 0.285422 -0.041062
v 0.021648 0.275473 -0.052263
v 0.025455 0.263350 -0.061454
v 0.028284 0.249519 -0.068284
v 0.030026 0.234512 -0.072490
v 0.030615 0.218905 -0.073910
v -0.044446 0.002905 -0.066518
v 0.008671 0.297367 -0.012977
v 0.017009 0.292815 -0.025455
v 0.024693 0.285422 -0.036955
v 0.031428 0.275473 -0.047035
v 0.036955 0.263350 -0.055307
v 0.041062 0.249519 -0.061454
v 0.043592 0.234512 -0.065239
v 0.044446 0.218905 -0.066518
v -0.056568 0.002905 -0.056569
v 0.011036 0.297367 -0.011036
v 0.021648 0.292815 -0.021648
v 0.031428 0.285422 -0.031428
v 0.040000 0.275473 -0.040000
v 0.047035 0.263350 -0.047035
v 0.052263 0.249519 -0.052263
v 0.055482 0.234512 -0.055482
v 0.056569 0.218905 -0.056569
v -0.066517 0.002905 -0.044446
v 0.012977 0.297367 -0.008671
v 0.025455 0.292815 -0.017009
v 0.036955 0.285422 -0.024693
v 0.047035 0.275473 -0.031428
v 0.055307 0.263350 -0.036955
v 0.061454 0.249519 -0.041062
v 0.065239 0.234512 -0.043592
v 0.066518 0.218905 -0.044446
v -0.073910 0.002905 -0.030615
v 0.000000 0.298905 -0.000000
v 0.014419 0.297367 -0.005973
v 0.028284 0.292815 -0.011716
v 0.041062 0.285422 -0.017009
v 0.052263 0.275473 -0.021648
v 0.061454 0.263350 -0.025455
v 0.068284 0.249519 -0.028284
v 0.072490 0.234512 -0.030026
v 0.073910 0.218905 -0.030615
v -0.078463 0.002905 -0.015607
v 0.015307 0.297367 -0.003045
v 0.030026 0.292815 -0.005973
v 0.043592 0.285422 -0.008671
v 0.055482 0.275473 -0.011036
v 0.065239 0.263350 -0.012977
v 0.072490 0.249519 -0.014419
v 0.076955 0.234512 -0.015307
v 0.078463 0.218905 -0.015607
v -0.080000 0.002905 -0.000000
v 0.015607 0.297367 0.000000
v 0.030615 0.292815 0.000000
v 0.044446 0.285422 0.000000
v 0.056569 0.275473 -0.000000
v 0.066518 0.263350 0.000000
v 0.073910 0.249519 -0.000000
v 0.078463 0.234512 0.000000
v 0.080000 0.218905 0.000000
v -0.078463 0.002905 0.015607
v 0.015307 0.297367 0.003045
v 0.030026 0.292815 0.005973
v 0.043592 0.285422 0.008671
v 0.055482 0.275473 0.011036
v 0.065239 0.263350 0.012977
v 0.072490 0.249519 0.014419
v 0.076955 0.234512 0.015307
v 0.078463 0.218905 0.015607
v -0.073910 0.002905 0.030615
v 0.014419 0.297367 0.005973
v 0.028284 0.292815 0.011716
v 0.041062 0.285422 0.017009
v 0.052263 0.275473 0.021648
v 0.061454 0.263350 0.025455
v 0.068284 0.249519 0.028284
v 0.072490 0.234512 0.030026
v 0.073910 0.218905 0.030615
v -0.066518 0.002905 0.044446
v 0.012977 0.297367 0.008671
v 0.025455 0.292815 0.017009
v 0.036955 0.285422 0.024693
v 0.047035 0.275473 0.031428
v 0.055307 0.263350 0.036955
v 0.061454 0.249519 0.041062
v 0.065239 0.234512 0.043592
v 0.066518 0.218905 0.044446
v -0.056568 0.002905 0.056568
v 0.011036 0.297367 0.011036
v 0.021648 0.292815 0.021648
v 0.031428 0.285422 0.031428
v 0.040000 0.275473 0.040000
v 0.047035 0.263350 0.047035
v 0.052263 0.249519 0.052263
v 0.055482 0.234512 0.055482
v 0.056569 0.218905 0.056569
v -0.044446 0.002905 0.066518
v 0.008671 0.297367 0.012977
v 0.017009 0.292815 0.025455
v 0.024693 0.285422 0.036955
v 0.031428 0.275473 0.047035
v 0.036955 0.263350 0.055307
v 0.041062 0.249519 0.061454
v 0.043592 0.234512 0.065239
v 0.044446 0.218905 0.066518
v -0.030615 0.002905 0.073910
v 0.005973 0.297367 0.014419
v 0.011716 0.292815 0.028284
v 0.017009 0.285422 0.041062
v 0.021648 0.275473 0.052263
v 0.025455 0.263350 0.061454
v 0.028284 0.249519 0.068284
v 0.030026 0.234512 0.072490
v 0.030615 0.218905 0.073910
v -0.015607 0.002905 0.078463
v 0.003045 0.297367 0.015307
v 0.005973 0.292815 0.030026
v 0.008671 0.285422 0.043592
v 0.011036 0.275473 0.055482
v 0.012977 0.263350 0.065239
v 0.014419 0.249519 0.072490
v 0.015307 0.234512 0.076955
v 0.015607 0.218905 0.078463
v 0.000000 0.002905 0.080000
v 0.000000 0.297367 0.015607
v 0.000000 0.292815 0.030615
v 0.000000 0.285422 0.044446
v 0.000000 0.275473 0.056569
v 0.000000 0.263350 0.066518
v 0.000000 0.249519 0.073910
v 0.000000 0.234512 0.078463
v 0.000000 0.218905 0.080000
v 0.015607 0.002905 0.078463
v -0.003045 0.297367 0.015307
v -0.005973 0.292815 0.030026
v -0.008671 0.285422 0.043592
v -0.011036 0.275473 0.055482
v -0.012977 0.263350 0.065239
v -0.014419 0.249519 0.072490
v -0.015307 0.234512 0.076955
v -0.015607 0.218905 0.078463
v 0.030615 0.002905 0.073910
v -0.005973 0.297367 0.014419
v -0.011716 0.292815 0.028284
v -0.017009 0.285422 0.041062
v -0.021648 0.275473 0.052263
v -0.025455 0.263350 0.061454
v -0.028284 0.249519 0.068284
v -0.030026 0.234512 0.072490
v -0.030615 0.218905 0.073910
v 0.044446 0.002905 0.066518
v -0.008671 0.297367 0.012977
v -0.017009 0.292815 0.025455
v -0.024693 0.285422 0.036955
v -0.031428 0.275473 0.047035
v -0.036955 0.263350 0.055307
v -0.041062 0.249519 0.061454
v -0.043592 0.234512 0.065239
v -0.044446 0.218905 0.066518
v 0.056569 0.002905 0.056569
v -0.011036 0.297367 0.011036
v -0.021648 0.292815 0.021648
v -0.031428 0.285422 0.031428
v -0.040000 0.275473 0.040000
v -0.047035 0.263350 0.047035
v -0.052262 0.249519 0.052263
v -0.055482 0.234512 0.055482
v -0.056568 0.218905 0.056568
v 0.066518 0.002905 0.044446
v -0.012977 0.297367 0.008671
v -0.025455 0.292815 0.017009
v -0.036955 0.285422 0.024693
v -0.047035 0.275473 0.031428
v -0.055307 0.263350 0.036955
v -0.061454 0.249519 0.041062
v -0.065239 0.234512 0.043592
v -0.066518 0.218905 0.044446
v 0.073910 0.002905 0.030615
v -0.014419 0.297367 0.005973
v -0.028284 0.292815 0.011716
v -0.041062 0.285422 0.017009
v -0.052262 0.275473 0.021648
v -0.061454 0.263350 0.025455
v -0.068284 0.249519 0.028284
v -0.072490 0.234512 0.030026
v -0.073910 0.218905 0.030615
v 0.078463 0.002905 0.015607
v -0.015307 0.297367 0.003045
v -0.030026 0.292815 0.005973
v -0.043592 0.285422 0.008671
v -0.055482 0.275473 0.011036
v -0.065239 0.263350 0.012977
v -0.072490 0.249519 0.014419
v -0.076955 0.234512 0.015307
v -0.078463 0.218905 0.015607
v 0.080000 0.002905 0.000000
v -0.015607 0.297367 -0.000000
v -0.030615 0.292815 -0.000000
v -0.044446 0.285422 -0.000000
v -0.056568 0.275473 -0.000000
v -0.066518 0.263350 -0.000000
v -0.073910 0.249519 -0.000000
v -0.078463 0.234512 -0.000000
v -0.080000 0.218905 -0.000000
v 0.078463 0.002905 -0.015607
v -0.015307 0.297367 -0.003045
v -0.030026 0.292815 -0.005973
v -0.043592 0.285422 -0.008671
v -0.055482 0.275473 -0.011036
v -0.065239 0.263350 -0.012977
v -0.072490 0.249519 -0.014419
v -0.076955 0.234512 -0.015307
v -0.078463 0.218905 -0.015607
v 0.073910 0.002905 -0.030615
v -0.014419 0.297367 -0.005973
v -0.028284 0.292815 -0.011716
v -0.041062 0.285422 -0.017009
v -0.052262 0.275473 -0.021648
v -0.061454 0.263350 -0.025455
v -0.068284 0.249519 -0.028284
v -0.072490 0.234512 -0.030026
v -0.073910 0.218905 -0.030615
v 0.066518 0.002905 -0.044446
v -0.012977 0.297367 -0.008671
v -0.025455 0.292815 -0.017009
v -0.036955 0.285422 -0.024693
v -0.047035 0.275473 -0.031428
v -0.055307 0.263350 -0.036955
v -0.061454 0.249519 -0.041062
v -0.065239 0.234512 -0.043592
v -0.066517 0.218905 -0.044446
v 0.056569 0.002905 -0.056569
v -0.011036 0.297367 -0.011036
v -0.021648 0.292815 -0.021648
v -0.031428 0.285422 -0.031428
v -0.040000 0.275473 -0.040000
v -0.047035 0.263350 -0.047035
v -0.052262 0.249519 -0.052262
v -0.055482 0.234512 -0.055482
v -0.056568 0.218905 -0.056569
v 0.044446 0.002905 -0.066518
v -0.008671 0.297367 -0.012977
v -0.017009 0.292815 -0.025455
v -0.024693 0.285422 -0.036955
v -0.031428 0.275473 -0.047035
v -0.036955 0.263350 -0.055307
v -0.041062 0.249519 -0.061454
v -0.043592 0.234512 -0.065239
v -0.044446 0.218905 -0.066518
v 0.030615 0.002905 -0.073910
v -0.005973 0.297367 -0.014419
v -0.011716 0.292815 -0.028284
v -0.017009 0.285422 -0.041062
v -0.021648 0.275473 -0.052263
v -0.025455 0.263350 -0.061454
v -0.028284 0.249519 -0.068284
v -0.030026 0.234512 -0.072490
v -0.030615 0.218905 -0.073910
v 0.015607 0.002905 -0.078463
v -0.003045 0.297367 -0.015307
v -0.005973 0.292815 -0.030026
v -0.008671 0.285422 -0.043592
v -0.011036 0.275473 -0.055482
v -0.012977 0.263350 -0.065239
v -0.014419 0.249519 -0.072490
v -0.015307 0.234512 -0.076955
v -0.015607 0.218905 -0.078463
v 0.000000 0.002905 -0.080000
v 0.000000 0.297367 -0.015607
v 0.000000 0.292815 -0.030615
v 0.000000 0.275473 -0.056569
v 0.000000 0.249519 -0.073910
vn 0.0961 -0.1952 -0.9760
vn 0.2847 -0.1952 -0.9385
vn 0.4623 -0.1952 -0.8650
vn 0.6222 -0.1952 -0.7581
vn 0.7581 -0.1952 -0.6222
vn 0.8650 -0.1952 -0.4623
vn 0.9385 -0.1952 -0.2847
vn 0.9760 -0.1952 -0.0961
vn 0.9760 -0.1952 0.0961
vn 0.9385 -0.1952 0.2847
vn 0.8650 -0.1952 0.4623
vn 0.7581 -0.1952 0.6222
vn 0.6222 -0.1952 0.7581
vn 0.4623 -0.1952 0.8650
vn 0.2847 -0.1952 0.9385
vn 0.0961 -0.1952 0.9760
vn -0.0961 -0.1952 0.9760
vn -0.2847 -0.1952 0.9385
vn -0.4623 -0.1952 0.8650
vn -0.6222 -0.1952 0.7581
vn -0.7581 -0.1952 0.6222
vn -0.8650 -0.1952 0.4623
vn -0.9385 -0.1952 0.2847
vn -0.9760 -0.1952 0.0961
vn -0.9760 -0.1952 -0.0961
vn -0.9385 -0.1952 -0.2847
vn -0.8650 -0.1952 -0.4623
vn -0.7581 -0.1952 -0.6222
vn -0.6222 -0.1952 -0.7581
vn -0.4623 -0.1952 -0.8650
vn -0.2903 -0.0000 -0.9569
vn -0.2847 -0.1952 -0.9385
vn -0.0961 -0.1952 -0.9760
vn -0.0000 -1.0000 -0.0000
vn -0.0000 1.0000 -0.0000
vn -0.2903 -0.0000 0.9569
vn 0.6344 -0.0000 0.7730
vn -0.0980 -0.0000 -0.9952
vn -0.4714 -0.0000 0.8819
vn 0.4714 -0.0000 0.8819
vn 0.0980 -0.0000 -0.9952
vn -0.6344 -0.0000 0.7730
vn 0.2903 -0.0000 0.9569
vn 0.2903 -0.0000 -0.9569
vn -0.7730 -0.0000 0.6344
vn 0.0980 -0.0000 0.9952
vn 0.4714 -0.0000 -0.8819
vn -0.8819 -0.0000 0.4714
vn 0.6344 -0.0000 -0.7730
vn -0.9569 -0.0000 0.2903
vn 0.7730 -0.0000 -0.6344
vn -0.9952 -0.0000 0.0980
vn 0.8819 -0.0000 -0.4714
vn -0.9952 -0.0000 -0.0980
vn 0.9569 -0.0000 -0.2903
vn -0.9569 -0.0000 -0.2903
vn 0.9952 -0.0000 -0.0980
vn -0.8819 -0.0000 -0.4714
vn 0.9952 -0.0000 0.0980
vn -0.7730 -0.0000 -0.6344
vn 0.9569 -0.0000 0.2903
vn -0.6344 -0.0000 -0.7730
vn 0.8819 -0.0000 0.4714
vn -0.4714 -0.0000 -0.8819
vn -0.0980 -0.0000 0.9952
vn 0.7730 -0.0000 0.6344
vn 0.0938 0.2890 -0.9527
vn 0.0975 0.0975 -0.9904
vn 0.0096 0.9951 -0.0980
vn 0.0286 0.9565 -0.2902
vn 0.0464 0.8810 -0.4709
vn 0.0624 0.7715 -0.6332
vn 0.0759 0.6326 -0.7708
vn 0.0865 0.4696 -0.8786
vn 0.2563 0.4696 -0.8448
vn 0.2779 0.2890 -0.9161
vn 0.2889 0.0975 -0.9524
vn 0.0286 0.9951 -0.0942
vn 0.0846 0.9565 -0.2790
vn 0.1374 0.8810 -0.4528
vn 0.1847 0.7715 -0.6088
vn 0.2248 0.6326 -0.7412
vn 0.2230 0.8810 -0.4173
vn 0.2999 0.7715 -0.5611
vn 0.3651 0.6326 -0.6831
vn 0.4162 0.4696 -0.7786
vn 0.4513 0.2890 -0.8443
vn 0.4691 0.0975 -0.8777
vn 0.0464 0.9951 -0.0869
vn 0.1375 0.9565 -0.2571
vn 0.6073 0.2890 -0.7400
vn 0.6314 0.0975 -0.7693
vn 0.0625 0.9951 -0.0761
vn 0.1850 0.9565 -0.2254
vn 0.3002 0.8810 -0.3658
vn 0.4036 0.7715 -0.4918
vn 0.4913 0.6326 -0.5987
vn 0.5601 0.4696 -0.6825
vn 0.3658 0.8810 -0.3002
vn 0.4918 0.7715 -0.4036
vn 0.5987 0.6326 -0.4913
vn 0.6825 0.4696 -0.5601
vn 0.7400 0.2890 -0.6073
vn 0.7693 0.0975 -0.6314
vn 0.0761 0.9951 -0.0625
vn 0.2254 0.9565 -0.1850
vn 0.8443 0.2890 -0.4513
vn 0.8777 0.0975 -0.4691
vn 0.0869 0.9951 -0.0464
vn 0.2571 0.9565 -0.1374
vn 0.4173 0.8810 -0.2230
vn 0.5611 0.7715 -0.2999
vn 0.6831 0.6326 -0.3651
vn 0.7786 0.4696 -0.4162
vn 0.6088 0.7715 -0.1847
vn 0.7412 0.6326 -0.2248
vn 0.8448 0.4696 -0.2563
vn 0.9161 0.2890 -0.2779
vn 0.9524 0.0975 -0.2889
vn 0.0942 0.9951 -0.0286
vn 0.2790 0.9565 -0.0846
vn 0.4528 0.8810 -0.1374
vn 0.9904 0.0975 -0.0975
vn 0.0980 0.9951 -0.0097
vn 0.2902 0.9565 -0.0286
vn 0.4709 0.8810 -0.0464
vn 0.6332 0.7715 -0.0624
vn 0.7708 0.6326 -0.0759
vn 0.8786 0.4696 -0.0865
vn 0.9527 0.2890 -0.0938
vn 0.7708 0.6326 0.0759
vn 0.8786 0.4696 0.0865
vn 0.9527 0.2890 0.0938
vn 0.9904 0.0975 0.0976
vn 0.0980 0.9951 0.0097
vn 0.2902 0.9565 0.0286
vn 0.4709 0.8810 0.0464
vn 0.6332 0.7715 0.0624
vn 0.0943 0.9951 0.0286
vn 0.2790 0.9565 0.0846
vn 0.4528 0.8810 0.1374
vn 0.6088 0.7715 0.1847
vn 0.7412 0.6326 0.2248
vn 0.8448 0.4696 0.2563
vn 0.9161 0.2890 0.2779
vn 0.9524 0.0975 0.2889
vn 0.6831 0.6326 0.3651
vn 0.7786 0.4696 0.4162
vn 0.8443 0.2890 0.4513
vn 0.8777 0.0975 0.4691
vn 0.0869 0.9951 0.0464
vn 0.2571 0.9566 0.1374
vn 0.4173 0.8810 0.2231
vn 0.5611 0.7715 0.2999
vn 0.2254 0.9565 0.1850
vn 0.3658 0.8810 0.3002
vn 0.4918 0.7715 0.4036
vn 0.5987 0.6326 0.4913
vn 0.6825 0.4696 0.5601
vn 0.7400 0.2890 0.6073
vn 0.7693 0.0975 0.6314
vn 0.0761 0.9951 0.0625
vn 0.5601 0.4696 0.6825
vn 0.6073 0.2890 0.7400
vn 0.6314 0.0975 0.7693
vn 0.0624 0.9951 0.0761
vn 0.1850 0.9565 0.2254
vn 0.3002 0.8810 0.3658
vn 0.4036 0.7715 0.4918
vn 0.4913 0.6326 0.5987
vn 0.1374 0.9566 0.2571
vn 0.2230 0.8810 0.4173
vn 0.2999 0.7715 0.5611
vn 0.3651 0.6326 0.6831
vn 0.4162 0.4696 0.7786
vn 0.4513 0.2890 0.8443
vn 0.4691 0.0975 0.8777
vn 0.0464 0.9951 0.0869
vn 0.2563 0.4696 0.8448
vn 0.2779 0.2890 0.9161
vn 0.2889 0.0975 0.9524
vn 0.0286 0.9951 0.0942
vn 0.0846 0.9565 0.2790
vn 0.1374 0.8810 0.4528
vn 0.1847 0.7715 0.6088
vn 0.2248 0.6326 0.7412
vn 0.0464 0.8810 0.4709
vn 0.0624 0.7715 0.6332
vn 0.0759 0.6326 0.7708
vn 0.0865 0.4696 0.8786
vn 0.0938 0.2890 0.9527
vn 0.0975 0.0975 0.9904
vn 0.0096 0.9951 0.0980
vn 0.0286 0.9565 0.2902
vn -0.0938 0.2890 0.9527
vn -0.0976 0.0975 0.9904
vn -0.0096 0.9951 0.0980
vn -0.0286 0.9565 0.2902
vn -0.0464 0.8810 0.4709
vn -0.0624 0.7715 0.6332
vn -0.0759 0.6326 0.7708
vn -0.0865 0.4696 0.8786
vn -0.1847 0.7715 0.6088
vn -0.2248 0.6326 0.7412
vn -0.2563 0.4696 0.8448
vn -0.2779 0.2890 0.9161
vn -0.2889 0.0975 0.9524
vn -0.0286 0.9951 0.0942
vn -0.0846 0.9565 0.2790
vn -0.1374 0.8810 0.4528
vn -0.4691 0.0975 0.8777
vn -0.0464 0.9951 0.0869
vn -0.1375 0.9565 0.2571
vn -0.2230 0.8810 0.4173
vn -0.2999 0.7715 0.5611
vn -0.3651 0.6326 0.6831
vn -0.4162 0.4696 0.7786
vn -0.4513 0.2890 0.8443
vn -0.4036 0.7715 0.4918
vn -0.4913 0.6326 0.5987
vn -0.5601 0.4696 0.6825
vn -0.6073 0.2890 0.7400
vn -0.6314 0.0975 0.7693
vn -0.0625 0.9951 0.0761
vn -0.1850 0.9565 0.2254
vn -0.3002 0.8810 0.3658
vn -0.7693 0.0975 0.6314
vn -0.0761 0.9951 0.0625
vn -0.2254 0.9566 0.1850
vn -0.3658 0.8810 0.3002
vn -0.4918 0.7715 0.4036
vn -0.5987 0.6326 0.4913
vn -0.6825 0.4696 0.5601
vn -0.7400 0.2890 0.6073
vn -0.6831 0.6326 0.3651
vn -0.7786 0.4696 0.4162
vn -0.8443 0.2890 0.4513
vn -0.8777 0.0975 0.4691
vn -0.0869 0.9951 0.0464
vn -0.2571 0.9565 0.1374
vn -0.4173 0.8810 0.2231
vn -0.5611 0.7715 0.2999
vn -0.0943 0.9951 0.0286
vn -0.2790 0.9565 0.0846
vn -0.4528 0.8810 0.1374
vn -0.6088 0.7715 0.1847
vn -0.7412 0.6326 0.2248
vn -0.8449 0.4696 0.2563
vn -0.9161 0.2890 0.2779
vn -0.9524 0.0975 0.2889
vn -0.7708 0.6326 0.0759
vn -0.8786 0.4696 0.0865
vn -0.9527 0.2890 0.0938
vn -0.9904 0.0975 0.0975
vn -0.0980 0.9951 0.0097
vn -0.2902 0.9565 0.0286
vn -0.4709 0.8810 0.0464
vn -0.6332 0.7715 0.0624
vn -0.2902 0.9565 -0.0286
vn -0.4709 0.8810 -0.0464
vn -0.6332 0.7715 -0.0624
vn -0.7708 0.6326 -0.0759
vn -0.8786 0.4696 -0.0865
vn -0.9527 0.2890 -0.0938
vn -0.9904 0.0975 -0.0976
vn -0.0980 0.9951 -0.0097
vn -0.8448 0.4696 -0.2563
vn -0.9161 0.2890 -0.2779
vn -0.9524 0.0975 -0.2889
vn -0.0942 0.9951 -0.0286
vn -0.2790 0.9565 -0.0846
vn -0.4528 0.8810 -0.1374
vn -0.6088 0.7715 -0.1847
vn -0.7412 0.6326 -0.2248
vn -0.4173 0.8810 -0.2231
vn -0.5611 0.7715 -0.2999
vn -0.6831 0.6326 -0.3651
vn -0.7786 0.4696 -0.4162
vn -0.8443 0.2890 -0.4513
vn -0.8777 0.0975 -0.4691
vn -0.0869 0.9951 -0.0464
vn -0.2571 0.9565 -0.1374
vn -0.7400 0.2890 -0.6073
vn -0.7693 0.0975 -0.6314
vn -0.0761 0.9951 -0.0625
vn -0.2254 0.9565 -0.1850
vn -0.3658 0.8810 -0.3002
vn -0.4918 0.7715 -0.4036
vn -0.5987 0.6326 -0.4913
vn -0.6825 0.4696 -0.5601
vn -0.3002 0.8810 -0.3658
vn -0.4036 0.7715 -0.4918
vn -0.4913 0.6326 -0.5987
vn -0.5601 0.4696 -0.6825
vn -0.6073 0.2890 -0.7400
vn -0.6314 0.0975 -0.7693
vn -0.0625 0.9951 -0.0761
vn -0.1850 0.9565 -0.2254
vn -0.4513 0.2890 -0.8443
vn -0.4691 0.0975 -0.8777
vn -0.0464 0.9951 -0.0869
vn -0.1375 0.9565 -0.2571
vn -0.2230 0.8810 -0.4173
vn -0.2999 0.7715 -0.5611
vn -0.3651 0.6326 -0.6831
vn -0.4162 0.4696 -0.7786
vn -0.1847 0.7715 -0.6088
vn -0.2248 0.6326 -0.7412
vn -0.2563 0.4696 -0.8448
vn -0.2779 0.2890 -0.9161
vn -0.2889 0.0975 -0.9524
vn -0.0286 0.9951 -0.0942
vn -0.0846 0.9565 -0.2790
vn -0.1374 0.8810 -0.4528
vn -0.0976 0.0975 -0.9904
vn -0.0097 0.9951 -0.0980
vn -0.0286 0.9565 -0.2902
vn -0.0464 0.8810 -0.4709
vn -0.0624 0.7715 -0.6332
vn -0.0759 0.6326 -0.7708
vn -0.0865 0.4696 -0.8786
vn -0.0938 0.2890 -0.9527
vn 0.7738 0.1085 -0.6241
vn -0.8724 -0.1584 -0.4624
vn 0.0992 0.0163 0.9949
vn 0.0992 0.0163 -0.9949
vn 0.7738 0.1085 0.6241
vn -0.9433 -0.1721 0.2838
vn 0.9875 0.1255 -0.0953
vn -0.4733 -0.0832 -0.8769
vn -0.4733 -0.0832 0.8769
vn -0.2927 -0.0505 -0.9549
vn 0.6376 0.0935 -0.7646
vn 0.2935 0.0467 0.9548
vn -0.9433 -0.1721 -0.2838
vn 0.8793 0.1180 0.4613
vn -0.8724 -0.1584 0.4624
vn 0.9512 0.1233 -0.2829
vn -0.6338 -0.1130 -0.7652
vn -0.2927 -0.0505 0.9549
vn 0.4755 0.0728 -0.8767
vn 0.4755 0.0728 0.8767
vn -0.9792 -0.1791 -0.0957
vn -0.0991 -0.0167 -0.9949
vn 0.9512 0.1233 0.2829
vn -0.7683 -0.1384 0.6250
vn 0.8793 0.1180 -0.4613
vn -0.7683 -0.1384 -0.6250
vn -0.0991 -0.0167 0.9949
vn 0.2935 0.0467 -0.9548
vn 0.6376 0.0935 0.7646
vn -0.9792 -0.1791 0.0956
vn 0.9875 0.1255 0.0953
vn -0.6338 -0.1130 0.7652
vn -0.0668 -0.9647 -0.2549
vn 0.1524 0.7954 0.5867
vn -0.0806 -0.9931 -0.0855
vn 0.0843 0.9023 0.4227
vn -0.0806 -0.9931 0.0855
vn 0.0251 0.9672 0.2527
vn -0.0668 -0.9647 0.2549
vn -0.0091 0.9964 0.0837
vn -0.0396 -0.9069 0.4194
vn -0.0091 0.9964 -0.0837
vn -0.0001 -0.8185 0.5745
vn 0.0251 0.9672 -0.2527
vn 0.0492 -0.6983 0.7141
vn 0.0842 0.9023 -0.4227
vn 0.1048 -0.5469 0.8306
vn 0.2106 -0.1669 -0.9632
vn 0.1524 0.7954 -0.5867
vn 0.1609 -0.3676 0.9160
vn 0.1609 -0.3676 -0.9160
vn 0.2119 0.6468 -0.7327
vn 0.2106 -0.1669 0.9632
vn 0.1048 -0.5469 -0.8306
vn 0.2499 0.4646 -0.8496
vn 0.2463 0.0460 0.9681
vn 0.0492 -0.6983 -0.7141
vn 0.2610 0.2604 -0.9296
vn 0.2610 0.2604 0.9296
vn -0.0001 -0.8185 -0.5745
vn 0.2463 0.0461 -0.9681
vn 0.2499 0.4646 0.8496
vn -0.0396 -0.9069 -0.4194
vn 0.2119 0.6468 0.7327
vn 0.1321 0.7495 0.6487
vn -0.6118 -0.6701 -0.4203
vn 0.0724 0.6203 0.7810
vn -0.1093 0.2717 -0.9562
vn -0.5675 -0.5842 -0.5802
vn -0.0094 0.4593 0.8882
vn -0.0094 0.4593 -0.8882
vn -0.5053 -0.4651 -0.7269
vn -0.1093 0.2717 0.9562
vn 0.0724 0.6203 -0.7810
vn -0.4245 -0.3125 -0.8498
vn -0.2187 0.0694 0.9733
vn 0.1321 0.7495 -0.6487
vn -0.3270 -0.1307 -0.9359
vn -0.3270 -0.1307 0.9359
vn 0.1697 0.8468 -0.5042
vn -0.2187 0.0694 -0.9733
vn -0.4245 -0.3125 0.8498
vn 0.1887 0.9150 -0.3566
vn -0.5053 -0.4651 0.7268
vn 0.1953 0.9577 -0.2114
vn -0.5675 -0.5842 0.5802
vn 0.1962 0.9781 -0.0699
vn -0.6118 -0.6701 0.4203
vn 0.1962 0.9781 0.0699
vn -0.6400 -0.7252 0.2539
vn 0.1953 0.9577 0.2114
vn -0.6536 -0.7520 0.0849
vn 0.1887 0.9150 0.3566
vn -0.6536 -0.7520 -0.0849
vn 0.1697 0.8468 0.5042
vn -0.6400 -0.7252 -0.2539
vn 0.2889 0.0976 -0.9524
vn 0.1374 0.9565 -0.2571
vn 0.9904 0.0975 0.0975
vn 0.0942 0.9951 0.0286
vn 0.2571 0.9565 0.1374
vn 0.4173 0.8810 0.2230
vn 0.0625 0.9951 0.0761
vn 0.2231 0.8810 0.4173
vn -0.0975 0.0975 0.9904
vn -0.1374 0.9565 0.2571
vn -0.2254 0.9565 0.1850
vn -0.4173 0.8810 0.2230
vn -0.0942 0.9951 0.0286
vn -0.8448 0.4696 0.2563
vn -0.9904 0.0975 -0.0975
vn -0.0943 0.9951 -0.0286
vn -0.1374 0.9566 -0.2571
vn -0.0096 0.9951 -0.0980
vt 1.000000 0.500000
vt 1.000000 1.000000
vt 0.968750 1.000000
vt 0.968750 0.500000
vt 0.937500 1.000000
vt 0.937500 0.500000
vt 0.906250 1.000000
vt 0.906250 0.500000
vt 0.875000 1.000000
vt 0.875000 0.500000
vt 0.843750 1.000000
vt 0.843750 0.500000
vt 0.812500 1.000000
vt 0.812500 0.500000
vt 0.781250 1.000000
vt 0.781250 0.500000
vt 0.750000 1.000000
vt 0.750000 0.500000
vt 0.718750 1.000000
vt 0.718750 0.500000
vt 0.687500 1.000000
vt 0.687500 0.500000
vt 0.656250 1.000000
vt 0.656250 0.500000
vt 0.625000 1.000000
vt 0.625000 0.500000
vt 0.593750 1.000000
vt 0.593750 0.500000
vt 0.562500 1.000000
vt 0.562500 0.500000
vt 0.531250 1.000000
vt 0.531250 0.500000
vt 0.500000 1.000000
vt 0.500000 0.500000
vt 0.468750 1.000000
vt 0.468750 0.500000
vt 0.437500 1.000000
vt 0.437500 0.500000
vt 0.406250 1.000000
vt 0.406250 0.500000
vt 0.375000 1.000000
vt 0.375000 0.500000
vt 0.343750 1.000000
vt 0.343750 0.500000
vt 0.312500 1.000000
vt 0.312500 0.500000
vt 0.281250 1.000000
vt 0.281250 0.500000
vt 0.250000 1.000000
vt 0.250000 0.500000
vt 0.218750 1.000000
vt 0.218750 0.500000
vt 0.187500 1.000000
vt 0.187500 0.500000
vt 0.156250 1.000000
vt 0.156250 0.500000
vt 0.125000 1.000000
vt 0.125000 0.500000
vt 0.093750 1.000000
vt 0.093750 0.500000
vt 0.062500 1.000000
vt 0.062500 0.500000
vt 0.287870 0.059612
vt 0.324286 0.070659
vt 0.031250 1.000000
vt 0.031250 0.500000
vt 0.000000 1.000000
vt 0.000000 0.500000
vt 0.750000 0.490000
vt 0.796822 0.485388
vt 0.841844 0.471731
vt 0.883337 0.449553
vt 0.919706 0.419706
vt 0.949553 0.383337
vt 0.971731 0.341844
vt 0.985388 0.296822
vt 0.990000 0.250000
vt 0.985388 0.203178
vt 0.971731 0.158156
vt 0.949553 0.116663
vt 0.919706 0.080294
vt 0.883337 0.050447
vt 0.841844 0.028269
vt 0.796822 0.014612
vt 0.750000 0.010000
vt 0.703178 0.014612
vt 0.658156 0.028269
vt 0.616663 0.050447
vt 0.580294 0.080294
vt 0.550447 0.116663
vt 0.528269 0.158156
vt 0.514612 0.203178
vt 0.510000 0.250000
vt 0.514612 0.296822
vt 0.528269 0.341844
vt 0.550447 0.383337
vt 0.580294 0.419706
vt 0.616663 0.449553
vt 0.658156 0.471731
vt 0.703178 0.485388
vt 0.250000 0.444118
vt 0.287871 0.440388
vt 0.296822 0.485388
vt 0.250000 0.490000
vt 0.324286 0.429341
vt 0.341844 0.471731
vt 0.357846 0.411403
vt 0.383337 0.449553
vt 0.387262 0.387262
vt 0.419706 0.419706
vt 0.411403 0.357846
vt 0.449553 0.383337
vt 0.429341 0.324286
vt 0.471731 0.341844
vt 0.440388 0.287870
vt 0.485388 0.296822
vt 0.444118 0.250000
vt 0.490000 0.250000
vt 0.440388 0.212129
vt 0.485388 0.203178
vt 0.429341 0.175714
vt 0.471731 0.158156
vt 0.411403 0.142154
vt 0.449553 0.116663
vt 0.387262 0.112738
vt 0.419706 0.080294
vt 0.357846 0.088597
vt 0.383337 0.050447
vt 0.341844 0.028269
vt 0.296822 0.014612
vt 0.250000 0.055882
vt 0.250000 0.010000
vt 0.212129 0.059612
vt 0.203178 0.014612
vt 0.175714 0.070659
vt 0.158156 0.028269
vt 0.142154 0.088597
vt 0.116663 0.050447
vt 0.112738 0.112738
vt 0.080294 0.080294
vt 0.088597 0.142154
vt 0.050447 0.116663
vt 0.070659 0.175714
vt 0.028269 0.158156
vt 0.059612 0.212130
vt 0.014612 0.203178
vt 0.055882 0.250000
vt 0.010000 0.250000
vt 0.059612 0.287870
vt 0.014612 0.296822
vt 0.070659 0.324286
vt 0.028269 0.341844
vt 0.088597 0.357846
vt 0.050447 0.383337
vt 0.112738 0.387262
vt 0.080294 0.419706
vt 0.142154 0.411403
vt 0.116663 0.449553
vt 0.175714 0.429342
vt 0.158156 0.471731
vt 0.212130 0.440388
vt 0.203178 0.485388
vt 0.750000 0.562500
vt 0.750000 0.625000
vt 0.718750 0.625000
vt 0.718750 0.562500
vt 0.750000 0.937500
vt 0.734375 1.000000
vt 0.718750 0.937500
vt 0.281250 0.500000
vt 0.250000 0.500000
vt 0.750000 0.875000
vt 0.718750 0.875000
vt 0.750000 0.812500
vt 0.718750 0.812500
vt 0.750000 0.750000
vt 0.718750 0.750000
vt 0.750000 0.687500
vt 0.718750 0.687500
vt 0.687500 0.687500
vt 0.687500 0.625000
vt 0.687500 0.562500
vt 0.703125 1.000000
vt 0.687500 0.937500
vt 0.125000 0.500000
vt 0.093750 0.500000
vt 0.687500 0.875000
vt 0.687500 0.812500
vt 0.687500 0.750000
vt 0.656250 0.875000
vt 0.656250 0.812500
vt 0.656250 0.750000
vt 0.656250 0.687500
vt 0.656250 0.625000
vt 0.656250 0.562500
vt 0.671875 1.000000
vt 0.656250 0.937500
vt 0.937500 0.500000
vt 0.906250 0.500000
vt 0.625000 0.625000
vt 0.625000 0.562500
vt 0.640625 1.000000
vt 0.625000 0.937500
vt 0.500000 0.500000
vt 0.625000 0.875000
vt 0.625000 0.812500
vt 0.625000 0.750000
vt 0.625000 0.687500
vt 0.593750 0.875000
vt 0.593750 0.812500
vt 0.593750 0.750000
vt 0.593750 0.687500
vt 0.593750 0.625000
vt 0.593750 0.562500
vt 0.609375 1.000000
vt 0.593750 0.937500
vt 0.437500 0.500000
vt 0.406250 0.500000
vt 0.562500 0.625000
vt 0.562500 0.562500
vt 0.578125 1.000000
vt 0.562500 0.937500
vt 0.562500 0.875000
vt 0.562500 0.812500
vt 0.562500 0.750000
vt 0.562500 0.687500
vt 0.531250 0.812500
vt 0.531250 0.750000
vt 0.531250 0.687500
vt 0.531250 0.625000
vt 0.531250 0.562500
vt 0.546875 1.000000
vt 0.531250 0.937500
vt 0.062500 0.500000
vt 0.531250 0.875000
vt 0.500000 0.562500
vt 0.515625 1.000000
vt 0.500000 0.937500
vt 0.343750 0.500000
vt 0.312500 0.500000
vt 0.500000 0.875000
vt 0.500000 0.812500
vt 0.500000 0.750000
vt 0.500000 0.687500
vt 0.500000 0.625000
vt 0.468750 0.750000
vt 0.468750 0.687500
vt 0.468750 0.625000
vt 0.468750 0.562500
vt 0.468750 0.500000
vt 0.484375 1.000000
vt 0.468750 0.937500
vt 0.843750 0.500000
vt 0.812500 0.500000
vt 0.468750 0.875000
vt 0.468750 0.812500
vt 0.453125 1.000000
vt 0.437500 0.937500
vt 0.437500 0.875000
vt 0.437500 0.812500
vt 0.437500 0.750000
vt 0.437500 0.687500
vt 0.437500 0.625000
vt 0.437500 0.562500
vt 0.406250 0.750000
vt 0.406250 0.687500
vt 0.406250 0.625000
vt 0.406250 0.562500
vt 0.421875 1.000000
vt 0.406250 0.937500
vt 0.187500 0.500000
vt 0.156250 0.500000
vt 0.406250 0.875000
vt 0.406250 0.812500
vt 0.968750 0.500000
vt 0.375000 0.937500
vt 0.375000 0.875000
vt 0.375000 0.812500
vt 0.375000 0.750000
vt 0.375000 0.687500
vt 0.375000 0.625000
vt 0.375000 0.562500
vt 0.375000 0.500000
vt 0.390625 1.000000
vt 0.343750 0.687500
vt 0.343750 0.625000
vt 0.343750 0.562500
vt 0.359375 1.000000
vt 0.343750 0.937500
vt 0.218750 0.500000
vt 0.343750 0.875000
vt 0.343750 0.812500
vt 0.343750 0.750000
vt 0.312500 0.937500
vt 0.312500 0.875000
vt 0.312500 0.812500
vt 0.312500 0.750000
vt 0.312500 0.687500
vt 0.312500 0.625000
vt 0.312500 0.562500
vt 0.328125 1.000000
vt 0.281250 0.687500
vt 0.281250 0.625000
vt 0.281250 0.562500
vt 0.296875 1.000000
vt 0.281250 0.937500
vt 0.781250 0.500000
vt 0.281250 0.875000
vt 0.281250 0.812500
vt 0.281250 0.750000
vt 0.250000 0.875000
vt 0.250000 0.812500
vt 0.250000 0.750000
vt 0.250000 0.687500
vt 0.250000 0.625000
vt 0.250000 0.562500
vt 0.265625 1.000000
vt 0.250000 0.937500
vt 0.218750 0.625000
vt 0.218750 0.562500
vt 0.234375 1.000000
vt 0.218750 0.937500
vt 0.031250 0.500000
vt 0.218750 0.875000
vt 0.218750 0.812500
vt 0.218750 0.750000
vt 0.218750 0.687500
vt 0.187500 0.812500
vt 0.187500 0.750000
vt 0.187500 0.687500
vt 0.187500 0.625000
vt 0.187500 0.562500
vt 0.203125 1.000000
vt 0.187500 0.937500
vt 0.187500 0.875000
vt 0.156250 0.562500
vt 0.171875 1.000000
vt 0.156250 0.937500
vt 0.875000 0.500000
vt 0.156250 0.875000
vt 0.156250 0.812500
vt 0.156250 0.750000
vt 0.156250 0.687500
vt 0.156250 0.625000
vt 0.125000 0.812500
vt 0.125000 0.750000
vt 0.125000 0.687500
vt 0.125000 0.625000
vt 0.125000 0.562500
vt 0.140625 1.000000
vt 0.125000 0.937500
vt 0.125000 0.875000
vt 0.093750 0.562500
vt 0.109375 1.000000
vt 0.093750 0.937500
vt 0.093750 0.875000
vt 0.093750 0.812500
vt 0.093750 0.750000
vt 0.093750 0.687500
vt 0.093750 0.625000
vt 0.062500 0.750000
vt 0.062500 0.687500
vt 0.062500 0.625000
vt 0.062500 0.562500
vt 0.078125 1.000000
vt 0.062500 0.937500
vt 0.062500 0.875000
vt 0.062500 0.812500
vt 0.046875 1.000000
vt 0.031250 0.937500
vt 0.031250 0.875000
vt 0.031250 0.812500
vt 0.031250 0.750000
vt 0.031250 0.687500
vt 0.031250 0.625000
vt 0.031250 0.562500
vt 0.000000 0.750000
vt 0.000000 0.687500
vt 0.000000 0.625000
vt 0.000000 0.562500
vt 0.015625 1.000000
vt 0.000000 0.937500
vt 0.000000 0.875000
vt 0.000000 0.812500
vt 1.000000 0.875000
vt 1.000000 0.937500
vt 0.968750 0.937500
vt 0.968750 0.875000
vt 1.000000 0.812500
vt 0.968750 0.812500
vt 1.000000 0.750000
vt 0.968750 0.750000
vt 1.000000 0.687500
vt 0.968750 0.687500
vt 1.000000 0.625000
vt 0.968750 0.625000
vt 1.000000 0.562500
vt 0.968750 0.562500
vt 0.984375 1.000000
vt 0.937500 0.687500
vt 0.937500 0.625000
vt 0.937500 0.562500
vt 0.953125 1.000000
vt 0.937500 0.937500
vt 0.937500 0.875000
vt 0.937500 0.812500
vt 0.937500 0.750000
vt 0.906250 0.875000
vt 0.906250 0.812500
vt 0.906250 0.750000
vt 0.906250 0.687500
vt 0.906250 0.625000
vt 0.906250 0.562500
vt 0.921875 1.000000
vt 0.906250 0.937500
vt 0.875000 0.625000
vt 0.875000 0.562500
vt 0.890625 1.000000
vt 0.875000 0.937500
vt 0.875000 0.875000
vt 0.875000 0.812500
vt 0.875000 0.750000
vt 0.875000 0.687500
vt 0.843750 0.875000
vt 0.843750 0.812500
vt 0.843750 0.750000
vt 0.843750 0.687500
vt 0.843750 0.625000
vt 0.843750 0.562500
vt 0.859375 1.000000
vt 0.843750 0.937500
vt 0.812500 0.625000
vt 0.812500 0.562500
vt 0.828125 1.000000
vt 0.812500 0.937500
vt 0.812500 0.875000
vt 0.812500 0.812500
vt 0.812500 0.750000
vt 0.812500 0.687500
vt 0.781250 0.812500
vt 0.781250 0.750000
vt 0.781250 0.687500
vt 0.781250 0.625000
vt 0.781250 0.562500
vt 0.796875 1.000000
vt 0.781250 0.937500
vt 0.781250 0.875000
vt 0.765625 1.000000
vt 0.062500 0.500000
vt 0.531250 0.500000
vt 0.125000 0.500000
vt 0.218750 0.500000
vt 0.812500 0.500000
vt 0.250000 0.500000
vt 0.843750 0.500000
vt 0.687500 0.500000
vt 0.875000 0.500000
vt 0.906250 0.500000
s 0
f 1/1/1 66/2/1 65/3/1 3/4/1
f 3/4/2 65/3/2 67/5/2 5/6/2
f 5/6/3 67/5/3 68/7/3 7/8/3
f 7/8/4 68/7/4 69/9/4 9/10/4
f 9/10/5 69/9/5 70/11/5 11/12/5
f 11/12/6 70/11/6 71/13/6 13/14/6
f 13/14/7 71/13/7 72/15/7 15/16/7
f 15/16/8 72/15/8 73/17/8 17/18/8
f 17/18/9 73/17/9 74/19/9 19/20/9
f 19/20/10 74/19/10 75/21/10 21/22/10
f 21/22/11 75/21/11 76/23/11 23/24/11
f 23/24/12 76/23/12 77/25/12 25/26/12
f 25/26/13 77/25/13 78/27/13 27/28/13
f 27/28/14 78/27/14 79/29/14 29/30/14
f 29/30/15 79/29/15 80/31/15 31/32/15
f 31/32/16 80/31/16 81/33/16 33/34/16
f 33/34/17 81/33/17 82/35/17 35/36/17
f 35/36/18 82/35/18 83/37/18 37/38/18
f 37/38/19 83/37/19 84/39/19 39/40/19
f 39/40/20 84/39/20 85/41/20 41/42/20
f 41/42/21 85/41/21 86/43/21 43/44/21
f 43/44/22 86/43/22 87/45/22 45/46/22
f 45/46/23 87/45/23 88/47/23 47/48/23
f 47/48/24 88/47/24 89/49/24 49/50/24
f 49/50/25 89/49/25 90/51/25 51/52/25
f 51/52/26 90/51/26 91/53/26 53/54/26
f 53/54/27 91/53/27 92/55/27 55/56/27
f 55/56/28 92/55/28 93/57/28 57/58/28
f 57/58/29 93/57/29 94/59/29 59/60/29
f 59/60/30 94/59/30 95/61/30 61/62/30
f 32/63/31 30/64/31 111/64/31 112/63/31
f 61/62/32 95/61/32 96/65/32 63/66/32
f 63/66/33 96/65/33 66/67/33 1/68/33
f 1/69/34 3/70/34 5/71/34 7/72/34 9/73/34 11/74/34 13/75/34 15/76/34 17/77/34 19/78/34 21/79/34 23/80/34 25/81/34 27/82/34 29/83/34 31/84/34 33/85/34 35/86/34 37/87/34 39/88/34 41/89/34 43/90/34 45/91/34 47/92/34 49/93/34 51/94/34 53/95/34 55/96/34 57/97/34 59/98/34 61/99/34 63/100/34
f 2/101/35 4/102/35 65/103/35 66/104/35
f 4/102/35 6/105/35 67/106/35 65/103/35
f 6/105/35 8/107/35 68/108/35 67/106/35
f 8/107/35 10/109/35 69/110/35 68/108/35
f 10/109/35 12/111/35 70/112/35 69/110/35
f 12/111/35 14/113/35 71/114/35 70/112/35
f 14/113/35 16/115/35 72/116/35 71/114/35
f 16/115/35 18/117/35 73/118/35 72/116/35
f 18/117/35 20/119/35 74/120/35 73/118/35
f 20/119/35 22/121/35 75/122/35 74/120/35
f 22/121/35 24/123/35 76/124/35 75/122/35
f 24/123/35 26/125/35 77/126/35 76/124/35
f 26/125/35 28/127/35 78/128/35 77/126/35
f 28/127/35 30/64/35 79/129/35 78/128/35
f 30/64/35 32/63/35 80/130/35 79/129/35
f 32/63/35 34/131/35 81/132/35 80/130/35
f 34/131/35 36/133/35 82/134/35 81/132/35
f 36/133/35 38/135/35 83/136/35 82/134/35
f 38/135/35 40/137/35 84/138/35 83/136/35
f 40/137/35 42/139/35 85/140/35 84/138/35
f 42/139/35 44/141/35 86/142/35 85/140/35
f 44/141/35 46/143/35 87/144/35 86/142/35
f 46/143/35 48/145/35 88/146/35 87/144/35
f 48/145/35 50/147/35 89/148/35 88/146/35
f 50/147/35 52/149/35 90/150/35 89/148/35
f 52/149/35 54/151/35 91/152/35 90/150/35
f 54/151/35 56/153/35 92/154/35 91/152/35
f 56/153/35 58/155/35 93/156/35 92/154/35
f 58/155/35 60/157/35 94/158/35 93/156/35
f 60/157/35 62/159/35 95/160/35 94/158/35
f 62/159/35 64/161/35 96/162/35 95/160/35
f 64/161/35 2/101/35 66/104/35 96/162/35
f 97/102/35 98/101/35 128/161/35 127/159/35 126/157/35 125/155/35 124/153/35 123/151/35 122/149/35 121/147/35 120/145/35 119/143/35 118/141/35 117/139/35 116/137/35 115/135/35 114/133/35 113/131/35 112/63/35 111/64/35 110/127/35 109/125/35 108/123/35 107/121/35 106/119/35 105/117/35 104/115/35 103/113/35 102/111/35 101/109/35 100/107/35 99/105/35
f 6/105/36 4/102/36 97/102/36 99/105/36
f 60/157/37 58/155/37 125/155/37 126/157/37
f 34/131/38 32/63/38 112/63/38 113/131/38
f 8/107/39 6/105/39 99/105/39 100/107/39
f 62/159/40 60/157/40 126/157/40 127/159/40
f 36/133/41 34/131/41 113/131/41 114/133/41
f 10/109/42 8/107/42 100/107/42 101/109/42
f 64/161/43 62/159/43 127/159/43 128/161/43
f 38/135/44 36/133/44 114/133/44 115/135/44
f 12/111/45 10/109/45 101/109/45 102/111/45
f 2/101/46 64/161/46 128/161/46 98/101/46
f 40/137/47 38/135/47 115/135/47 116/137/47
f 14/113/48 12/111/48 102/111/48 103/113/48
f 42/139/49 40/137/49 116/137/49 117/139/49
f 16/115/50 14/113/50 103/113/50 104/115/50
f 44/141/51 42/139/51 117/139/51 118/141/51
f 18/117/52 16/115/52 104/115/52 105/117/52
f 46/143/53 44/141/53 118/141/53 119/143/53
f 20/119/54 18/117/54 105/117/54 106/119/54
f 48/145/55 46/143/55 119/143/55 120/145/55
f 22/121/56 20/119/56 106/119/56 107/121/56
f 50/147/57 48/145/57 120/145/57 121/147/57
f 24/123/58 22/121/58 107/121/58 108/123/58
f 52/149/59 50/147/59 121/147/59 122/149/59
f 26/125/60 24/123/60 108/123/60 109/125/60
f 54/151/61 52/149/61 122/149/61 123/151/61
f 28/127/62 26/125/62 109/125/62 110/127/62
f 56/153/63 54/151/63 123/151/63 124/153/63
f 30/64/64 28/127/64 110/127/64 111/64/64
f 4/102/65 2/101/65 98/101/65 97/102/65
f 58/155/66 56/153/66 124/153/66 125/155/66
f 70/11/35 71/13/35 135/13/35 134/11/35
f 79/29/35 80/31/35 144/31/35 143/29/35
f 88/47/35 89/49/35 153/49/35 152/47/35
f 65/3/35 67/5/35 131/5/35 129/3/35
f 75/21/35 76/23/35 140/23/35 139/21/35
f 84/39/35 85/41/35 149/41/35 148/39/35
f 93/57/35 94/59/35 158/59/35 157/57/35
f 71/13/35 72/15/35 136/15/35 135/13/35
f 80/31/35 81/33/35 145/33/35 144/31/35
f 89/49/35 90/51/35 154/51/35 153/49/35
f 67/5/35 68/7/35 132/7/35 131/5/35
f 76/23/35 77/25/35 141/25/35 140/23/35
f 85/41/35 86/43/35 150/43/35 149/41/35
f 94/59/35 95/61/35 159/61/35 158/59/35
f 72/15/35 73/17/35 137/17/35 136/15/35
f 81/33/35 82/35/35 146/35/35 145/33/35
f 90/51/35 91/53/35 155/53/35 154/51/35
f 68/7/35 69/9/35 133/9/35 132/7/35
f 77/25/35 78/27/35 142/27/35 141/25/35
f 86/43/35 87/45/35 151/45/35 150/43/35
f 95/61/35 96/65/35 160/65/35 159/61/35
f 73/17/35 74/19/35 138/19/35 137/17/35
f 82/35/35 83/37/35 147/37/35 146/35/35
f 91/53/35 92/55/35 156/55/35 155/53/35
f 69/9/35 70/11/35 134/11/35 133/9/35
f 78/27/35 79/29/35 143/29/35 142/27/35
f 87/45/35 88/47/35 152/47/35 151/45/35
f 66/2/35 65/3/35 129/3/35 130/2/35
f 96/65/35 66/67/35 130/67/35 160/65/35
f 74/19/35 75/21/35 139/21/35 138/19/35
f 83/37/35 84/39/35 148/39/35 147/37/35
f 92/55/35 93/57/35 157/57/35 156/55/35
f 149/41/45 150/43/45 182/43/45 181/41/45
f 136/15/57 137/17/57 169/17/57 168/15/57
f 150/43/48 151/45/48 183/45/48 182/43/48
f 137/17/59 138/19/59 170/19/59 169/17/59
f 151/45/50 152/47/50 184/47/50 183/45/50
f 138/19/61 139/21/61 171/21/61 170/19/61
f 152/47/52 153/49/52 185/49/52 184/47/52
f 139/21/63 140/23/63 172/23/63 171/21/63
f 153/49/54 154/51/54 186/51/54 185/49/54
f 140/23/66 141/25/66 173/25/66 172/23/66
f 154/51/56 155/53/56 187/53/56 186/51/56
f 141/25/37 142/27/37 174/27/37 173/25/37
f 155/53/58 156/55/58 188/55/58 187/53/58
f 142/27/40 143/29/40 175/29/40 174/27/40
f 130/2/41 129/3/41 161/3/41 162/2/41
f 156/55/60 157/57/60 189/57/60 188/55/60
f 143/29/43 144/31/43 176/31/43 175/29/43
f 129/3/44 131/5/44 163/5/44 161/3/44
f 157/57/62 158/59/62 190/59/62 189/57/62
f 144/31/46 145/33/46 177/33/46 176/31/46
f 131/5/47 132/7/47 164/7/47 163/5/47
f 158/59/64 159/61/64 191/61/64 190/59/64
f 145/33/65 146/35/65 178/35/65 177/33/65
f 132/7/49 133/9/49 165/9/49 164/7/49
f 159/61/31 160/65/31 192/65/31 191/61/31
f 146/35/36 147/37/36 179/37/36 178/35/36
f 133/9/51 134/11/51 166/11/51 165/9/51
f 160/65/38 130/67/38 162/67/38 192/65/38
f 147/37/39 148/39/39 180/39/39 179/37/39
f 134/11/53 135/13/53 167/13/53 166/11/53
f 148/39/42 149/41/42 181/41/42 180/39/42
f 135/13/55 136/15/55 168/15/55 167/13/55
f 191/61/34 192/65/34 224/65/34 223/61/34
f 178/35/34 179/37/34 211/37/34 210/35/34
f 165/9/34 166/11/34 198/11/34 197/9/34
f 192/65/34 162/67/34 194/67/34 224/65/34
f 179/37/34 180/39/34 212/39/34 211/37/34
f 166/11/34 167/13/34 199/13/34 198/11/34
f 180/39/34 181/41/34 213/41/34 212/39/34
f 167/13/34 168/15/34 200/15/34 199/13/34
f 181/41/34 182/43/34 214/43/34 213/41/34
f 168/15/34 169/17/34 201/17/34 200/15/34
f 182/43/34 183/45/34 215/45/34 214/43/34
f 169/17/34 170/19/34 202/19/34 201/17/34
f 183/45/34 184/47/34 216/47/34 215/45/34
f 170/19/34 171/21/34 203/21/34 202/19/34
f 184/47/34 185/49/34 217/49/34 216/47/34
f 171/21/34 172/23/34 204/23/34 203/21/34
f 185/49/34 186/51/34 218/51/34 217/49/34
f 172/23/34 173/25/34 205/25/34 204/23/34
f 186/51/34 187/53/34 219/53/34 218/51/34
f 173/25/34 174/27/34 206/27/34 205/25/34
f 187/53/34 188/55/34 220/55/34 219/53/34
f 174/27/34 175/29/34 207/29/34 206/27/34
f 162/2/34 161/3/34 193/3/34 194/2/34
f 188/55/34 189/57/34 221/57/34 220/55/34
f 175/29/34 176/31/34 208/31/34 207/29/34
f 161/3/34 163/5/34 195/5/34 193/3/34
f 189/57/34 190/59/34 222/59/34 221/57/34
f 176/31/34 177/33/34 209/33/34 208/31/34
f 163/5/34 164/7/34 196/7/34 195/5/34
f 190/59/34 191/61/34 223/61/34 222/59/34
f 177/33/34 178/35/34 210/35/34 209/33/34
f 164/7/34 165/9/34 197/9/34 196/7/34
f 227/163/67 513/164/67 235/165/67 236/166/67
f 228/18/68 227/163/68 236/166/68 237/20/68
f 510/167/69 275/168/69 230/169/69
f 364/170/46 373/171/46 365/171/46 374/170/46
f 511/172/70 510/167/70 230/169/70 231/173/70
f 225/174/71 511/172/71 231/173/71 232/175/71
f 512/176/72 225/174/72 232/175/72 233/177/72
f 226/178/73 512/176/73 233/177/73 234/179/73
f 513/164/74 226/178/74 234/179/74 235/165/74
f 235/165/75 234/179/75 243/180/75 244/181/75
f 236/166/76 235/165/76 244/181/76 245/182/76
f 237/20/77 236/166/77 245/182/77 246/22/77
f 230/169/78 275/183/78 239/184/78
f 409/185/45 418/186/45 320/186/45 329/185/45
f 231/173/79 230/169/79 239/184/79 240/187/79
f 232/175/80 231/173/80 240/187/80 241/188/80
f 233/177/81 232/175/81 241/188/81 242/189/81
f 234/179/82 233/177/82 242/189/82 243/180/82
f 241/188/83 240/187/83 249/190/83 250/191/83
f 242/189/84 241/188/84 250/191/84 251/192/84
f 243/180/85 242/189/85 251/192/85 252/193/85
f 244/181/86 243/180/86 252/193/86 253/194/86
f 245/182/87 244/181/87 253/194/87 254/195/87
f 246/22/88 245/182/88 254/195/88 255/24/88
f 239/184/89 275/196/89 248/197/89
f 463/198/58 472/199/58 265/199/58 274/198/58
f 240/187/90 239/184/90 248/197/90 249/190/90
f 254/195/91 253/194/91 262/200/91 263/201/91
f 255/24/92 254/195/92 263/201/92 264/26/92
f 248/197/93 275/202/93 257/203/93
f 292/32/57 301/204/57 437/204/57 446/32/57
f 249/190/94 248/197/94 257/203/94 258/205/94
f 250/191/95 249/190/95 258/205/95 259/206/95
f 251/192/96 250/191/96 259/206/96 260/207/96
f 252/193/97 251/192/97 260/207/97 261/208/97
f 253/194/98 252/193/98 261/208/98 262/200/98
f 259/206/99 258/205/99 267/209/99 268/210/99
f 260/207/100 259/206/100 268/210/100 269/211/100
f 261/208/101 260/207/101 269/211/101 270/212/101
f 262/200/102 261/208/102 270/212/102 271/213/102
f 263/201/103 262/200/103 271/213/103 272/214/103
f 264/26/104 263/201/104 272/214/104 273/28/104
f 257/203/105 275/215/105 266/216/105
f 319/217/63 328/218/63 410/218/63 419/217/63
f 258/205/106 257/203/106 266/216/106 267/209/106
f 272/214/107 271/213/107 281/219/107 282/220/107
f 273/28/108 272/214/108 282/220/108 283/30/108
f 266/216/109 275/221/109 276/222/109
f 246/22/47 255/24/47 482/24/47 491/22/47
f 267/209/110 266/216/110 276/222/110 277/223/110
f 268/210/111 267/209/111 277/223/111 278/224/111
f 269/211/112 268/210/112 278/224/112 279/225/112
f 270/212/113 269/211/113 279/225/113 280/226/113
f 271/213/114 270/212/114 280/226/114 281/219/114
f 279/225/115 278/224/115 287/227/115 288/228/115
f 280/226/116 279/225/116 288/228/116 289/229/116
f 281/219/117 280/226/117 289/229/117 290/230/117
f 282/220/118 281/219/118 290/230/118 291/231/118
f 283/30/119 282/220/119 291/231/119 292/32/119
f 276/222/120 275/232/120 285/233/120
f 418/186/48 427/234/48 311/234/48 320/186/48
f 277/223/121 276/222/121 285/233/121 286/235/121
f 278/224/122 277/223/122 286/235/122 287/227/122
f 292/32/123 291/231/123 300/236/123 301/204/123
f 285/233/124 275/237/124 294/238/124
f 346/239/40 355/240/40 383/240/40 392/239/40
f 286/235/125 285/233/125 294/238/125 295/241/125
f 287/227/126 286/235/126 295/241/126 296/242/126
f 288/228/127 287/227/127 296/242/127 297/243/127
f 289/229/128 288/228/128 297/243/128 298/244/128
f 290/230/129 289/229/129 298/244/129 299/245/129
f 291/231/130 290/230/130 299/245/130 300/236/130
f 298/244/131 297/243/131 306/246/131 307/247/131
f 299/245/132 298/244/132 307/247/132 308/248/132
f 300/236/133 299/245/133 308/248/133 309/249/133
f 301/204/134 300/236/134 309/249/134 310/250/134
f 294/238/135 275/251/135 303/252/135
f 490/253/64 499/254/64 238/254/64 247/253/64
f 295/241/136 294/238/136 303/252/136 304/255/136
f 296/242/137 295/241/137 304/255/137 305/256/137
f 297/243/138 296/242/138 305/256/138 306/246/138
f 303/252/139 275/257/139 312/258/139
f 273/28/53 283/30/53 455/30/53 464/28/53
f 304/255/140 303/252/140 312/258/140 313/259/140
f 305/256/141 304/255/141 313/259/141 314/260/141
f 306/246/142 305/256/142 314/260/142 315/261/142
f 307/247/143 306/246/143 315/261/143 316/262/143
f 308/248/144 307/247/144 316/262/144 317/263/144
f 309/249/145 308/248/145 317/263/145 318/264/145
f 310/250/146 309/249/146 318/264/146 319/217/146
f 316/262/147 315/261/147 324/265/147 325/266/147
f 317/263/148 316/262/148 325/266/148 326/267/148
f 318/264/149 317/263/149 326/267/149 327/268/149
f 319/217/150 318/264/150 327/268/150 328/218/150
f 312/258/151 275/269/151 321/270/151
f 391/271/39 400/272/39 338/272/39 347/271/39
f 313/259/152 312/258/152 321/270/152 322/273/152
f 314/260/153 313/259/153 322/273/153 323/274/153
f 315/261/154 314/260/154 323/274/154 324/265/154
f 445/1/54 454/275/54 284/275/54 293/1/54
f 322/273/155 321/270/155 330/276/155 331/277/155
f 323/274/156 322/273/156 331/277/156 332/278/156
f 324/265/157 323/274/157 332/278/157 333/279/157
f 325/266/158 324/265/158 333/279/158 334/280/158
f 326/267/159 325/266/159 334/280/159 335/281/159
f 327/268/160 326/267/160 335/281/160 336/282/160
f 328/218/161 327/268/161 336/282/161 337/283/161
f 321/270/162 275/284/162 330/276/162
f 335/281/163 334/280/163 343/285/163 344/286/163
f 336/282/164 335/281/164 344/286/164 345/287/164
f 337/283/165 336/282/165 345/287/165 346/239/165
f 330/276/166 275/288/166 339/289/166
f 373/171/65 382/290/65 356/290/65 365/171/65
f 331/277/167 330/276/167 339/289/167 340/291/167
f 332/278/168 331/277/168 340/291/168 341/292/168
f 333/279/169 332/278/169 341/292/169 342/293/169
f 334/280/170 333/279/170 342/293/170 343/285/170
f 340/291/171 339/289/171 348/294/171 349/295/171
f 341/292/172 340/291/172 349/295/172 350/296/172
f 342/293/173 341/292/173 350/296/173 351/297/173
f 343/285/174 342/293/174 351/297/174 352/298/174
f 344/286/175 343/285/175 352/298/175 353/299/175
f 345/287/176 344/286/176 353/299/176 354/300/176
f 346/239/177 345/287/177 354/300/177 355/240/177
f 339/289/178 275/301/178 348/294/178
f 301/204/59 310/250/59 428/250/59 437/204/59
f 353/299/179 352/298/179 361/302/179 362/303/179
f 354/300/180 353/299/180 362/303/180 363/304/180
f 355/240/181 354/300/181 363/304/181 364/170/181
f 348/294/182 275/305/182 357/306/182
f 508/307/38 228/18/38 509/18/38 229/307/38
f 349/295/183 348/294/183 357/306/183 358/308/183
f 350/296/184 349/295/184 358/308/184 359/309/184
f 351/297/185 350/296/185 359/309/185 360/310/185
f 352/298/186 351/297/186 360/310/186 361/302/186
f 359/309/187 358/308/187 367/311/187 368/312/187
f 360/310/188 359/309/188 368/312/188 369/313/188
f 361/302/189 360/310/189 369/313/189 370/314/189
f 362/303/190 361/302/190 370/314/190 371/315/190
f 363/304/191 362/303/191 371/315/191 372/316/191
f 364/170/192 363/304/192 372/316/192 373/171/192
f 357/306/193 275/317/193 366/318/193
f 400/272/42 409/185/42 329/185/42 338/272/42
f 358/308/194 357/306/194 366/318/194 367/311/194
f 372/316/195 371/315/195 380/319/195 381/320/195
f 373/171/196 372/316/196 381/320/196 382/290/196
f 366/318/197 275/321/197 375/322/197
f 427/234/50 436/323/50 302/323/50 311/234/50
f 367/311/198 366/318/198 375/322/198 376/324/198
f 368/312/199 367/311/199 376/324/199 377/325/199
f 369/313/200 368/312/200 377/325/200 378/326/200
f 370/314/201 369/313/201 378/326/201 379/327/201
f 371/315/202 370/314/202 379/327/202 380/319/202
f 378/326/203 377/325/203 386/328/203 387/329/203
f 379/327/204 378/326/204 387/329/204 388/330/204
f 380/319/205 379/327/205 388/330/205 389/331/205
f 381/320/206 380/319/206 389/331/206 390/332/206
f 382/290/207 381/320/207 390/332/207 391/271/207
f 375/322/208 275/333/208 384/334/208
f 328/218/66 337/283/66 401/283/66 410/218/66
f 376/324/209 375/322/209 384/334/209 385/335/209
f 377/325/210 376/324/210 385/335/210 386/328/210
f 391/271/211 390/332/211 399/336/211 400/272/211
f 384/334/212 275/337/212 393/338/212
f 472/199/60 481/339/60 256/339/60 265/199/60
f 385/335/213 384/334/213 393/338/213 394/340/213
f 386/328/214 385/335/214 394/340/214 395/341/214
f 387/329/215 386/328/215 395/341/215 396/342/215
f 388/330/216 387/329/216 396/342/216 397/343/216
f 389/331/217 388/330/217 397/343/217 398/344/217
f 390/332/218 389/331/218 398/344/218 399/336/218
f 396/342/219 395/341/219 404/345/219 405/346/219
f 397/343/220 396/342/220 405/346/220 406/347/220
f 398/344/221 397/343/221 406/347/221 407/348/221
f 399/336/222 398/344/222 407/348/222 408/349/222
f 400/272/223 399/336/223 408/349/223 409/185/223
f 393/338/224 275/350/224 402/351/224
f 499/254/31 508/307/31 229/307/31 238/254/31
f 394/340/225 393/338/225 402/351/225 403/352/225
f 395/341/226 394/340/226 403/352/226 404/345/226
f 409/185/227 408/349/227 417/353/227 418/186/227
f 402/351/228 275/354/228 411/355/228
f 283/30/55 292/32/55 446/32/55 455/30/55
f 403/352/229 402/351/229 411/355/229 412/356/229
f 404/345/230 403/352/230 412/356/230 413/357/230
f 405/346/231 404/345/231 413/357/231 414/358/231
f 406/347/232 405/346/232 414/358/232 415/359/232
f 407/348/233 406/347/233 415/359/233 416/360/233
f 408/349/234 407/348/234 416/360/234 417/353/234
f 415/359/235 414/358/235 423/361/235 424/362/235
f 416/360/236 415/359/236 424/362/236 425/363/236
f 417/353/237 416/360/237 425/363/237 426/364/237
f 418/186/238 417/353/238 426/364/238 427/234/238
f 411/355/239 275/365/239 420/366/239
f 255/24/49 264/26/49 473/26/49 482/24/49
f 412/356/240 411/355/240 420/366/240 421/367/240
f 413/357/241 412/356/241 421/367/241 422/368/241
f 414/358/242 413/357/242 422/368/242 423/361/242
f 420/366/243 275/369/243 429/370/243
f 355/240/43 364/170/43 374/170/43 383/240/43
f 421/367/244 420/366/244 429/370/244 430/371/244
f 422/368/245 421/367/245 430/371/245 431/372/245
f 423/361/246 422/368/246 431/372/246 432/373/246
f 424/362/247 423/361/247 432/373/247 433/374/247
f 425/363/248 424/362/248 433/374/248 434/375/248
f 426/364/249 425/363/249 434/375/249 435/376/249
f 427/234/250 426/364/250 435/376/250 436/323/250
f 433/374/251 432/373/251 441/377/251 442/378/251
f 434/375/252 433/374/252 442/378/252 443/379/252
f 435/376/253 434/375/253 443/379/253 444/380/253
f 436/323/254 435/376/254 444/380/254 445/68/254
f 429/370/255 275/381/255 438/382/255
f 454/275/56 463/198/56 274/198/56 284/275/56
f 430/371/256 429/370/256 438/382/256 439/383/256
f 431/372/257 430/371/257 439/383/257 440/384/257
f 432/373/258 431/372/258 440/384/258 441/377/258
f 310/250/61 319/217/61 419/217/61 428/250/61
f 439/385/259 438/386/259 447/387/259 448/388/259
f 440/389/260 439/385/260 448/388/260 449/390/260
f 441/391/261 440/389/261 449/390/261 450/392/261
f 442/393/262 441/391/262 450/392/262 451/394/262
f 443/395/263 442/393/263 451/394/263 452/396/263
f 444/397/264 443/395/264 452/396/264 453/398/264
f 445/1/265 444/397/265 453/398/265 454/275/265
f 438/386/266 275/399/266 447/387/266
f 452/396/267 451/394/267 460/400/267 461/401/267
f 453/398/268 452/396/268 461/401/268 462/402/268
f 454/275/269 453/398/269 462/402/269 463/198/269
f 447/387/270 275/403/270 456/404/270
f 228/18/41 237/20/41 500/20/41 509/18/41
f 448/388/271 447/387/271 456/404/271 457/405/271
f 449/390/272 448/388/272 457/405/272 458/406/272
f 450/392/273 449/390/273 458/406/273 459/407/273
f 451/394/274 450/392/274 459/407/274 460/400/274
f 458/406/275 457/405/275 466/408/275 467/409/275
f 459/407/276 458/406/276 467/409/276 468/410/276
f 460/400/277 459/407/277 468/410/277 469/411/277
f 461/401/278 460/400/278 469/411/278 470/412/278
f 462/402/279 461/401/279 470/412/279 471/413/279
f 463/198/280 462/402/280 471/413/280 472/199/280
f 456/404/281 275/414/281 465/415/281
f 382/290/36 391/271/36 347/271/36 356/290/36
f 457/405/282 456/404/282 465/415/282 466/408/282
f 471/413/283 470/412/283 479/416/283 480/417/283
f 472/199/284 471/413/284 480/417/284 481/339/284
f 465/415/285 275/418/285 474/419/285
f 481/339/62 490/253/62 247/253/62 256/339/62
f 466/408/286 465/415/286 474/419/286 475/420/286
f 467/409/287 466/408/287 475/420/287 476/421/287
f 468/410/288 467/409/288 476/421/288 477/422/288
f 469/411/289 468/410/289 477/422/289 478/423/289
f 470/412/290 469/411/290 478/423/290 479/416/290
f 476/421/291 475/420/291 484/424/291 485/425/291
f 477/422/292 476/421/292 485/425/292 486/426/292
f 478/423/293 477/422/293 486/426/293 487/427/293
f 479/416/294 478/423/294 487/427/294 488/428/294
f 480/417/295 479/416/295 488/428/295 489/429/295
f 481/339/296 480/417/296 489/429/296 490/253/296
f 474/419/297 275/430/297 483/431/297
f 237/20/44 246/22/44 491/22/44 500/20/44
f 475/420/298 474/419/298 483/431/298 484/424/298
f 489/429/299 488/428/299 497/432/299 498/433/299
f 490/253/300 489/429/300 498/433/300 499/254/300
f 483/431/301 275/434/301 492/435/301
f 337/283/37 346/239/37 392/239/37 401/283/37
f 484/424/302 483/431/302 492/435/302 493/436/302
f 485/425/303 484/424/303 493/436/303 494/437/303
f 486/426/304 485/425/304 494/437/304 495/438/304
f 487/427/305 486/426/305 495/438/305 496/439/305
f 488/428/306 487/427/306 496/439/306 497/432/306
f 495/438/307 494/437/307 503/440/307 504/441/307
f 496/439/308 495/438/308 504/441/308 505/442/308
f 497/432/309 496/439/309 505/442/309 506/443/309
f 498/433/310 497/432/310 506/443/310 507/444/310
f 499/254/311 498/433/311 507/444/311 508/307/311
f 492/435/312 275/445/312 501/446/312
f 264/26/51 273/28/51 464/28/51 473/26/51
f 493/436/313 492/435/313 501/446/313 502/447/313
f 494/437/314 493/436/314 502/447/314 503/440/314
f 508/307/315 507/444/315 227/163/315 228/18/315
f 501/446/316 275/448/316 510/167/316
f 436/323/52 445/68/52 293/68/52 302/323/52
f 502/447/317 501/446/317 510/167/317 511/172/317
f 503/440/318 502/447/318 511/172/318 225/174/318
f 504/441/319 503/440/319 225/174/319 512/176/319
f 505/442/320 504/441/320 512/176/320 226/178/320
f 506/443/321 505/442/321 226/178/321 513/164/321
f 507/444/322 506/443/322 513/164/322 227/163/322
f 473/26/323 464/28/323 540/28/323 541/26/323
f 274/198/324 265/199/324 518/199/324 519/198/324
f 374/170/325 365/171/325 529/171/325 530/170/325
f 509/18/326 500/20/326 544/20/326 545/18/326
f 410/218/327 401/283/327 533/283/327 534/218/327
f 311/234/328 302/323/328 522/323/328 523/234/328
f 446/32/329 437/204/329 537/204/329 538/32/329
f 247/253/330 238/254/330 515/254/330 516/253/330
f 347/271/331 338/272/331 526/272/331 527/271/331
f 238/254/332 229/307/332 514/307/332 515/254/332
f 482/24/333 473/26/333 541/26/333 542/24/333
f 383/240/334 374/170/334 530/170/334 531/240/334
f 284/275/335 274/198/335 519/198/335 520/275/335
f 419/217/336 410/218/336 534/218/336 535/217/336
f 320/186/337 311/234/337 523/234/337 524/186/337
f 455/30/338 446/32/338 538/32/338 539/30/338
f 256/339/339 247/253/339 516/253/339 517/339/339
f 356/290/340 347/271/340 527/271/340 528/290/340
f 491/22/341 482/24/341 542/24/341 543/22/341
f 392/239/342 383/240/342 531/240/342 532/239/342
f 293/1/343 284/275/343 520/275/343 521/1/343
f 229/307/344 509/18/344 545/18/344 514/307/344
f 428/250/345 419/217/345 535/217/345 536/250/345
f 329/185/346 320/186/346 524/186/346 525/185/346
f 464/28/347 455/30/347 539/30/347 540/28/347
f 265/199/348 256/339/348 517/339/348 518/199/348
f 365/171/349 356/290/349 528/290/349 529/171/349
f 500/20/350 491/22/350 543/22/350 544/20/350
f 401/283/351 392/239/351 532/239/351 533/283/351
f 302/323/352 293/68/352 521/68/352 522/323/352
f 437/204/353 428/250/353 536/250/353 537/204/353
f 338/272/354 329/185/354 525/185/354 526/272/354
f 578/275/355 579/198/355 551/198/355 552/275/355
f 580/40/356 581/283/356 565/283/356 566/218/356
f 582/1/357 578/275/357 552/275/357 553/1/357
f 583/38/358 580/40/358 566/218/358 567/217/358
f 584/323/359 582/68/359 553/68/359 554/323/359
f 585/36/360 583/38/360 567/217/360 568/250/360
f 586/449/361 584/323/361 554/323/361 555/234/361
f 587/204/362 585/36/362 568/250/362 569/204/362
f 588/186/363 586/449/363 555/234/363 556/186/363
f 589/450/364 587/204/364 569/204/364 570/32/364
f 590/451/365 588/186/365 556/186/365 557/185/365
f 591/30/366 589/450/366 570/32/366 571/30/366
f 592/272/367 590/451/367 557/185/367 558/272/367
f 593/28/368 591/30/368 571/30/368 572/28/368
f 594/271/369 592/272/369 558/272/369 559/271/369
f 595/307/370 596/18/370 577/18/370 546/307/370
f 597/26/371 593/28/371 572/28/371 573/26/371
f 598/452/372 594/271/372 559/271/372 560/290/372
f 599/453/373 595/307/373 546/307/373 547/254/373
f 600/24/374 597/26/374 573/26/374 574/24/374
f 601/454/375 598/452/375 560/290/375 561/171/375
f 602/455/376 599/453/376 547/254/376 548/253/376
f 603/456/377 600/24/377 574/24/377 575/22/377
f 604/170/378 601/454/378 561/171/378 562/170/378
f 605/457/379 602/455/379 548/253/379 549/339/379
f 606/20/380 603/456/380 575/22/380 576/20/380
f 607/240/381 604/170/381 562/170/381 563/240/381
f 608/458/382 605/457/382 549/339/382 550/199/382
f 596/18/383 606/20/383 576/20/383 577/18/383
f 609/239/384 607/240/384 563/240/384 564/239/384
f 579/198/385 608/458/385 550/199/385 551/198/385
f 581/283/386 609/239/386 564/239/386 565/283/386
f 533/283/387 532/239/387 609/239/387 581/283/387
f 519/198/388 518/199/388 608/458/388 579/198/388
f 532/239/389 531/240/389 607/240/389 609/239/389
f 545/18/390 544/20/390 606/20/390 596/18/390
f 518/199/391 517/339/391 605/457/391 608/458/391
f 531/240/392 530/170/392 604/170/392 607/240/392
f 544/20/393 543/22/393 603/456/393 606/20/393
f 517/339/394 516/253/394 602/455/394 605/457/394
f 530/170/395 529/171/395 601/454/395 604/170/395
f 543/22/396 542/24/396 600/24/396 603/456/396
f 516/253/397 515/254/397 599/453/397 602/455/397
f 529/171/398 528/290/398 598/452/398 601/454/398
f 542/24/399 541/26/399 597/26/399 600/24/399
f 515/254/400 514/307/400 595/307/400 599/453/400
f 528/290/401 527/271/401 594/271/401 598/452/401
f 541/26/402 540/28/402 593/28/402 597/26/402
f 514/307/403 545/18/403 596/18/403 595/307/403
f 527/271/404 526/272/404 592/272/404 594/271/404
f 540/28/405 539/30/405 591/30/405 593/28/405
f 526/272/406 525/185/406 590/451/406 592/272/406
f 539/30/407 538/32/407 589/450/407 591/30/407
f 525/185/408 524/186/408 588/186/408 590/451/408
f 538/32/409 537/204/409 587/204/409 589/450/409
f 524/186/410 523/234/410 586/449/410 588/186/410
f 537/204/411 536/250/411 585/36/411 587/204/411
f 523/234/412 522/323/412 584/323/412 586/449/412
f 536/250/413 535/217/413 583/38/413 585/36/413
f 522/323/414 521/68/414 582/68/414 584/323/414
f 535/217/415 534/218/415 580/40/415 583/38/415
f 521/1/416 520/275/416 578/275/416 582/1/416
f 534/218/417 533/283/417 581/283/417 580/40/417
f 520/275/418 519/198/418 579/198/418 578/275/418
f 612/163/67 898/164/67 620/165/67 621/166/67
f 613/18/68 612/163/68 621/166/68 622/20/68
f 895/167/69 660/168/69 615/169/69
f 749/170/46 758/171/46 750/171/46 759/170/46
f 896/172/70 895/167/70 615/169/70 616/173/70
f 610/174/71 896/172/71 616/173/71 617/175/71
f 897/176/72 610/174/72 617/175/72 618/177/72
f 611/178/73 897/176/73 618/177/73 619/179/73
f 898/164/74 611/178/74 619/179/74 620/165/74
f 620/165/75 619/179/75 628/180/75 629/181/75
f 621/166/76 620/165/76 629/181/76 630/182/76
f 622/20/419 621/166/419 630/182/419 631/22/419
f 615/169/78 660/183/78 624/184/78
f 794/185/45 803/186/45 705/186/45 714/185/45
f 616/173/79 615/169/79 624/184/79 625/187/79
f 617/175/80 616/173/80 625/187/80 626/188/80
f 618/177/81 617/175/81 626/188/81 627/189/81
f 619/179/82 618/177/82 627/189/82 628/180/82
f 626/188/83 625/187/83 634/190/83 635/191/83
f 627/189/84 626/188/84 635/191/84 636/192/84
f 628/180/85 627/189/85 636/192/85 637/193/85
f 629/181/86 628/180/86 637/193/86 638/194/86
f 630/182/87 629/181/87 638/194/87 639/195/87
f 631/22/88 630/182/88 639/195/88 640/24/88
f 624/184/89 660/196/89 633/197/89
f 848/198/58 857/199/58 650/199/58 659/198/58
f 625/187/420 624/184/420 633/197/420 634/190/420
f 639/195/91 638/194/91 647/200/91 648/201/91
f 640/24/92 639/195/92 648/201/92 649/26/92
f 633/197/93 660/202/93 642/203/93
f 677/32/57 686/204/57 822/204/57 831/32/57
f 634/190/94 633/197/94 642/203/94 643/205/94
f 635/191/95 634/190/95 643/205/95 644/206/95
f 636/192/96 635/191/96 644/206/96 645/207/96
f 637/193/97 636/192/97 645/207/97 646/208/97
f 638/194/98 637/193/98 646/208/98 647/200/98
f 644/206/99 643/205/99 652/209/99 653/210/99
f 645/207/100 644/206/100 653/210/100 654/211/100
f 646/208/101 645/207/101 654/211/101 655/212/101
f 647/200/102 646/208/102 655/212/102 656/213/102
f 648/201/103 647/200/103 656/213/103 657/214/103
f 649/26/104 648/201/104 657/214/104 658/28/104
f 642/203/105 660/215/105 651/216/105
f 704/217/63 713/218/63 795/218/63 804/217/63
f 643/205/106 642/203/106 651/216/106 652/209/106
f 657/214/107 656/213/107 666/219/107 667/220/107
f 658/28/108 657/214/108 667/220/108 668/30/108
f 651/216/109 660/221/109 661/222/109
f 631/22/47 640/24/47 867/24/47 876/22/47
f 652/209/110 651/216/110 661/222/110 662/223/110
f 653/210/111 652/209/111 662/223/111 663/224/111
f 654/211/112 653/210/112 663/224/112 664/225/112
f 655/212/113 654/211/113 664/225/113 665/226/113
f 656/213/114 655/212/114 665/226/114 666/219/114
f 664/225/115 663/224/115 672/227/115 673/228/115
f 665/226/116 664/225/116 673/228/116 674/229/116
f 666/219/117 665/226/117 674/229/117 675/230/117
f 667/220/118 666/219/118 675/230/118 676/231/118
f 668/30/119 667/220/119 676/231/119 677/32/119
f 661/222/120 660/232/120 670/233/120
f 803/186/48 812/234/48 696/234/48 705/186/48
f 662/223/121 661/222/121 670/233/121 671/235/121
f 663/224/122 662/223/122 671/235/122 672/227/122
f 677/32/123 676/231/123 685/236/123 686/204/123
f 670/233/124 660/237/124 679/238/124
f 731/239/40 740/240/40 768/240/40 777/239/40
f 671/235/125 670/233/125 679/238/125 680/241/125
f 672/227/126 671/235/126 680/241/126 681/242/126
f 673/228/127 672/227/127 681/242/127 682/243/127
f 674/229/128 673/228/128 682/243/128 683/244/128
f 675/230/129 674/229/129 683/244/129 684/245/129
f 676/231/130 675/230/130 684/245/130 685/236/130
f 683/244/131 682/243/131 691/246/131 692/247/131
f 684/245/132 683/244/132 692/247/132 693/248/132
f 685/236/133 684/245/133 693/248/133 694/249/133
f 686/204/421 685/236/421 694/249/421 695/250/421
f 679/238/135 660/251/135 688/252/135
f 875/253/64 884/254/64 623/254/64 632/253/64
f 680/241/136 679/238/136 688/252/136 689/255/136
f 681/242/137 680/241/137 689/255/137 690/256/137
f 682/243/138 681/242/138 690/256/138 691/246/138
f 688/252/422 660/257/422 697/258/422
f 658/28/53 668/30/53 840/30/53 849/28/53
f 689/255/140 688/252/140 697/258/140 698/259/140
f 690/256/141 689/255/141 698/259/141 699/260/141
f 691/246/142 690/256/142 699/260/142 700/261/142
f 692/247/143 691/246/143 700/261/143 701/262/143
f 693/248/144 692/247/144 701/262/144 702/263/144
f 694/249/145 693/248/145 702/263/145 703/264/145
f 695/250/146 694/249/146 703/264/146 704/217/146
f 701/262/147 700/261/147 709/265/147 710/266/147
f 702/263/148 701/262/148 710/266/148 711/267/148
f 703/264/149 702/263/149 711/267/149 712/268/149
f 704/217/150 703/264/150 712/268/150 713/218/150
f 697/258/151 660/269/151 706/270/151
f 776/271/39 785/272/39 723/272/39 732/271/39
f 698/259/423 697/258/423 706/270/423 707/273/423
f 699/260/424 698/259/424 707/273/424 708/274/424
f 700/261/154 699/260/154 708/274/154 709/265/154
f 830/1/54 839/275/54 669/275/54 678/1/54
f 707/273/155 706/270/155 715/276/155 716/277/155
f 708/274/156 707/273/156 716/277/156 717/278/156
f 709/265/157 708/274/157 717/278/157 718/279/157
f 710/266/158 709/265/158 718/279/158 719/280/158
f 711/267/159 710/266/159 719/280/159 720/281/159
f 712/268/160 711/267/160 720/281/160 721/282/160
f 713/218/161 712/268/161 721/282/161 722/283/161
f 706/270/162 660/284/162 715/276/162
f 720/281/163 719/280/163 728/285/163 729/286/163
f 721/282/164 720/281/164 729/286/164 730/287/164
f 722/283/165 721/282/165 730/287/165 731/239/165
f 715/276/425 660/288/425 724/289/425
f 758/171/65 767/290/65 741/290/65 750/171/65
f 716/277/167 715/276/167 724/289/167 725/291/167
f 717/278/168 716/277/168 725/291/168 726/292/168
f 718/279/169 717/278/169 726/292/169 727/293/169
f 719/280/170 718/279/170 727/293/170 728/285/170
f 725/291/171 724/289/171 733/294/171 734/295/171
f 726/292/426 725/291/426 734/295/426 735/296/426
f 727/293/173 726/292/173 735/296/173 736/297/173
f 728/285/174 727/293/174 736/297/174 737/298/174
f 729/286/175 728/285/175 737/298/175 738/299/175
f 730/287/176 729/286/176 738/299/176 739/300/176
f 731/239/177 730/287/177 739/300/177 740/240/177
f 724/289/178 660/301/178 733/294/178
f 686/204/59 695/250/59 813/250/59 822/204/59
f 738/299/179 737/298/179 746/302/179 747/303/179
f 739/300/180 738/299/180 747/303/180 748/304/180
f 740/240/181 739/300/181 748/304/181 749/170/181
f 733/294/182 660/305/182 742/306/182
f 893/307/38 613/18/38 894/18/38 614/307/38
f 734/295/183 733/294/183 742/306/183 743/308/183
f 735/296/184 734/295/184 743/308/184 744/309/184
f 736/297/185 735/296/185 744/309/185 745/310/185
f 737/298/186 736/297/186 745/310/186 746/302/186
f 744/309/187 743/308/187 752/311/187 753/312/187
f 745/310/188 744/309/188 753/312/188 754/313/188
f 746/302/189 745/310/189 754/313/189 755/314/189
f 747/303/190 746/302/190 755/314/190 756/315/190
f 748/304/191 747/303/191 756/315/191 757/316/191
f 749/170/192 748/304/192 757/316/192 758/171/192
f 742/306/193 660/317/193 751/318/193
f 785/272/42 794/185/42 714/185/42 723/272/42
f 743/308/194 742/306/194 751/318/194 752/311/194
f 757/316/195 756/315/195 765/319/195 766/320/195
f 758/171/427 757/316/427 766/320/427 767/290/427
f 751/318/197 660/321/197 760/322/197
f 812/234/50 821/323/50 687/323/50 696/234/50
f 752/311/198 751/318/198 760/322/198 761/324/198
f 753/312/199 752/311/199 761/324/199 762/325/199
f 754/313/200 753/312/200 762/325/200 763/326/200
f 755/314/201 754/313/201 763/326/201 764/327/201
f 756/315/202 755/314/202 764/327/202 765/319/202
f 763/326/203 762/325/203 771/328/203 772/329/203
f 764/327/204 763/326/204 772/329/204 773/330/204
f 765/319/205 764/327/205 773/330/205 774/331/205
f 766/320/206 765/319/206 774/331/206 775/332/206
f 767/290/207 766/320/207 775/332/207 776/271/207
f 760/322/208 660/333/208 769/334/208
f 713/218/66 722/283/66 786/283/66 795/218/66
f 761/324/209 760/322/209 769/334/209 770/335/209
f 762/325/210 761/324/210 770/335/210 771/328/210
f 776/271/211 775/332/211 784/336/211 785/272/211
f 769/334/212 660/337/212 778/338/212
f 857/199/60 866/339/60 641/339/60 650/199/60
f 770/335/428 769/334/428 778/338/428 779/340/428
f 771/328/214 770/335/214 779/340/214 780/341/214
f 772/329/215 771/328/215 780/341/215 781/342/215
f 773/330/216 772/329/216 781/342/216 782/343/216
f 774/331/217 773/330/217 782/343/217 783/344/217
f 775/332/218 774/331/218 783/344/218 784/336/218
f 781/342/219 780/341/219 789/345/219 790/346/219
f 782/343/220 781/342/220 790/346/220 791/347/220
f 783/344/221 782/343/221 791/347/221 792/348/221
f 784/336/222 783/344/222 792/348/222 793/349/222
f 785/272/223 784/336/223 793/349/223 794/185/223
f 778/338/224 660/350/224 787/351/224
f 884/254/31 893/307/31 614/307/31 623/254/31
f 779/340/225 778/338/225 787/351/225 788/352/225
f 780/341/226 779/340/226 788/352/226 789/345/226
f 794/185/227 793/349/227 802/353/227 803/186/227
f 787/351/228 660/354/228 796/355/228
f 668/30/55 677/32/55 831/32/55 840/30/55
f 788/352/429 787/351/429 796/355/429 797/356/429
f 789/345/230 788/352/230 797/356/230 798/357/230
f 790/346/231 789/345/231 798/357/231 799/358/231
f 791/347/232 790/346/232 799/358/232 800/359/232
f 792/348/233 791/347/233 800/359/233 801/360/233
f 793/349/234 792/348/234 801/360/234 802/353/234
f 800/359/235 799/358/235 808/361/235 809/362/235
f 801/360/236 800/359/236 809/362/236 810/363/236
f 802/353/237 801/360/237 810/363/237 811/364/237
f 803/186/238 802/353/238 811/364/238 812/234/238
f 796/355/239 660/365/239 805/366/239
f 640/24/49 649/26/49 858/26/49 867/24/49
f 797/356/240 796/355/240 805/366/240 806/367/240
f 798/357/430 797/356/430 806/367/430 807/368/430
f 799/358/242 798/357/242 807/368/242 808/361/242
f 805/366/431 660/369/431 814/370/431
f 740/240/43 749/170/43 759/170/43 768/240/43
f 806/367/244 805/366/244 814/370/244 815/371/244
f 807/368/245 806/367/245 815/371/245 816/372/245
f 808/361/246 807/368/246 816/372/246 817/373/246
f 809/362/247 808/361/247 817/373/247 818/374/247
f 810/363/432 809/362/432 818/374/432 819/375/432
f 811/364/249 810/363/249 819/375/249 820/376/249
f 812/234/250 811/364/250 820/376/250 821/323/250
f 818/374/251 817/373/251 826/377/251 827/378/251
f 819/375/252 818/374/252 827/378/252 828/379/252
f 820/376/253 819/375/253 828/379/253 829/380/253
f 821/323/254 820/376/254 829/380/254 830/68/254
f 814/370/255 660/381/255 823/382/255
f 839/275/56 848/198/56 659/198/56 669/275/56
f 815/371/256 814/370/256 823/382/256 824/383/256
f 816/372/257 815/371/257 824/383/257 825/384/257
f 817/373/258 816/372/258 825/384/258 826/377/258
f 695/250/61 704/217/61 804/217/61 813/250/61
f 824/385/259 823/386/259 832/387/259 833/388/259
f 825/389/260 824/385/260 833/388/260 834/390/260
f 826/391/261 825/389/261 834/390/261 835/392/261
f 827/393/262 826/391/262 835/392/262 836/394/262
f 828/395/263 827/393/263 836/394/263 837/396/263
f 829/397/264 828/395/264 837/396/264 838/398/264
f 830/1/433 829/397/433 838/398/433 839/275/433
f 823/386/266 660/399/266 832/387/266
f 837/396/267 836/394/267 845/400/267 846/401/267
f 838/398/268 837/396/268 846/401/268 847/402/268
f 839/275/269 838/398/269 847/402/269 848/198/269
f 832/387/434 660/403/434 841/404/434
f 613/18/41 622/20/41 885/20/41 894/18/41
f 833/388/271 832/387/271 841/404/271 842/405/271
f 834/390/272 833/388/272 842/405/272 843/406/272
f 835/392/273 834/390/273 843/406/273 844/407/273
f 836/394/274 835/392/274 844/407/274 845/400/274
f 843/406/275 842/405/275 851/408/275 852/409/275
f 844/407/276 843/406/276 852/409/276 853/410/276
f 845/400/277 844/407/277 853/410/277 854/411/277
f 846/401/278 845/400/278 854/411/278 855/412/278
f 847/402/279 846/401/279 855/412/279 856/413/279
f 848/198/280 847/402/280 856/413/280 857/199/280
f 841/404/281 660/414/281 850/415/281
f 767/290/36 776/271/36 732/271/36 741/290/36
f 842/405/282 841/404/282 850/415/282 851/408/282
f 856/413/283 855/412/283 864/416/283 865/417/283
f 857/199/284 856/413/284 865/417/284 866/339/284
f 850/415/285 660/418/285 859/419/285
f 866/339/62 875/253/62 632/253/62 641/339/62
f 851/408/286 850/415/286 859/419/286 860/420/286
f 852/409/287 851/408/287 860/420/287 861/421/287
f 853/410/288 852/409/288 861/421/288 862/422/288
f 854/411/289 853/410/289 862/422/289 863/423/289
f 855/412/290 854/411/290 863/423/290 864/416/290
f 861/421/291 860/420/291 869/424/291 870/425/291
f 862/422/292 861/421/292 870/425/292 871/426/292
f 863/423/293 862/422/293 871/426/293 872/427/293
f 864/416/294 863/423/294 872/427/294 873/428/294
f 865/417/295 864/416/295 873/428/295 874/429/295
f 866/339/296 865/417/296 874/429/296 875/253/296
f 859/419/297 660/430/297 868/431/297
f 622/20/44 631/22/44 876/22/44 885/20/44
f 860/420/298 859/419/298 868/431/298 869/424/298
f 874/429/299 873/428/299 882/432/299 883/433/299
f 875/253/300 874/429/300 883/433/300 884/254/300
f 868/431/301 660/434/301 877/435/301
f 722/283/37 731/239/37 777/239/37 786/283/37
f 869/424/435 868/431/435 877/435/435 878/436/435
f 870/425/303 869/424/303 878/436/303 879/437/303
f 871/426/304 870/425/304 879/437/304 880/438/304
f 872/427/305 871/426/305 880/438/305 881/439/305
f 873/428/306 872/427/306 881/439/306 882/432/306
f 880/438/307 879/437/307 888/440/307 889/441/307
f 881/439/308 880/438/308 889/441/308 890/442/308
f 882/432/309 881/439/309 890/442/309 891/443/309
f 883/433/310 882/432/310 891/443/310 892/444/310
f 884/254/311 883/433/311 892/444/311 893/307/311
f 877/435/312 660/445/312 886/446/312
f 649/26/51 658/28/51 849/28/51 858/26/51
f 878/436/313 877/435/313 886/446/313 887/447/313
f 879/437/314 878/436/314 887/447/314 888/440/314
f 893/307/315 892/444/315 612/163/315 613/18/315
f 886/446/436 660/448/436 895/167/436
f 821/323/52 830/68/52 678/68/52 687/323/52
f 887/447/317 886/446/317 895/167/317 896/172/317
f 888/440/318 887/447/318 896/172/318 610/174/318
f 889/441/319 888/440/319 610/174/319 897/176/319
f 890/442/320 889/441/320 897/176/320 611/178/320
f 891/443/321 890/442/321 611/178/321 898/164/321
f 892/444/322 891/443/322 898/164/322 612/163/322
