# Blender 4.4.0
# www.blender.org
mtllib Server_display.mtl
o Cube.002
v -0.280000 -0.208752 -0.030392
v -0.229462 -0.136134 0.009608
v -0.280000 0.191248 -0.030392
v -0.229462 0.147803 0.009608
v 0.280000 -0.208752 -0.030392
v 0.229462 -0.136134 0.009608
v 0.280000 0.191248 -0.030392
v 0.229462 0.147803 0.009608
v -0.280000 -0.208752 0.009608
v -0.280000 0.191248 0.009608
v 0.280000 0.191248 0.009608
v 0.280000 -0.208752 0.009608
v -0.229462 -0.136134 0.009608
v -0.229462 0.147803 0.009608
v 0.229462 0.147803 0.009608
v 0.229462 -0.136134 0.009608
v -0.229462 -0.136134 0.001566
v -0.229462 0.147803 0.001566
v 0.229462 0.147803 0.001566
v 0.229462 -0.136134 0.001566
vn -1.0000 -0.0000 -0.0000
vn -0.0000 1.0000 -0.0000
vn 1.0000 -0.0000 -0.0000
vn -0.0000 -1.0000 -0.0000
vn -0.0000 -0.0000 -1.0000
vn -0.0000 -0.0000 1.0000
vt 0.902913 0.392571
vt 0.863656 0.392571
vt 0.863656 -0.000000
vt 0.902913 -0.000000
vt 0.824399 0.549599
vt 0.785142 0.549599
vt 0.785142 0.000000
vt 0.824399 0.000000
vt 0.902913 0.785142
vt 0.863656 0.785142
vt 0.863656 0.392571
vt 0.902913 0.392571
vt 0.863656 0.549599
vt 0.824399 0.000000
vt 0.863656 0.000000
vt 0.392571 0.000000
vt 0.392571 0.549599
vt -0.000000 0.549599
vt 0.000000 0.000000
vt 0.286556 0.549599
vt 0.463840 0.500000
vt 0.742504 0.500000
vt 0.785142 0.549599
vt 0.392571 0.549599
vt 0.742504 0.049599
vt 0.785142 0.000000
vt 0.463840 0.049599
vt 0.392571 0.000000
vt 0.902913 0.450401
vt 0.902913 -0.000000
vt 0.910806 -0.000000
vt 0.910806 0.450401
vt 0.278664 0.549599
vt 0.278664 1.000000
vt 0.000000 1.000000
vt 0.000000 0.549599
vt 0.902913 0.900801
vt 0.902913 0.450401
vt 0.910806 0.450401
vt 0.910806 0.900801
vt 0.278664 0.828263
vt 0.278664 0.549599
vt 0.286556 0.549599
vt 0.286556 0.828263
vt 0.286556 0.828263
vt 0.294449 0.549599
vt 0.294449 0.828263
s 1
f 1/1/1 9/2/1 10/3/1 3/4/1
f 3/5/2 10/6/2 11/7/2 7/8/2
f 7/9/3 11/10/3 12/11/3 5/12/3
f 5/13/4 12/5/4 9/14/4 1/15/4
f 3/16/5 7/17/5 5/18/5 1/19/5
s 0
f 6/20/6 8/20/6 15/20/6 16/20/6
s 1
f 2/21/6 4/22/6 10/23/6 9/24/6
f 4/22/6 8/25/6 11/26/6 10/23/6
f 8/25/6 6/27/6 12/28/6 11/26/6
f 6/27/6 2/21/6 9/24/6 12/28/6
f 13/29/2 16/30/2 20/31/2 17/32/2
s 0
f 4/20/6 2/20/6 13/20/6 14/20/6
f 2/20/6 6/20/6 16/20/6 13/20/6
f 8/20/6 4/20/6 14/20/6 15/20/6
s 1
f 19/33/6 18/34/6 17/35/6 20/36/6
f 15/37/4 14/38/4 18/39/4 19/40/4
f 16/41/1 15/42/1 19/43/1 20/44/1
f 14/45/3 13/43/3 17/46/3 18/47/3
