# Blender 4.4.0
# www.blender.org
mtllib UntitlMINITOR231ed.mtl
o Solid_203
v -0.371719 0.083261 -0.359950
v 0.410012 0.083261 -0.359950
v 0.410012 0.014859 -0.359950
v -0.371719 0.014859 -0.359950
v 0.410012 0.014859 -0.301320
v -0.371719 0.014859 -0.301320
v 0.410012 0.073489 -0.301320
v -0.371719 0.073489 -0.301320
v -0.469436 0.786819 0.109089
v -0.469436 0.786819 0.304522
v -0.469436 0.005088 0.304522
v -0.469436 0.005088 0.109089
v 0.507729 0.005088 0.109089
v 0.507729 0.005088 0.304522
v 0.507729 0.786819 0.304522
v 0.507729 0.786819 0.109089
v 0.507729 0.005088 0.109089
v 0.507729 0.005088 0.304522
v -0.469436 0.005088 0.304522
v -0.469436 0.005088 0.109089
v 0.507729 0.786819 0.109089
v 0.410012 0.689103 -0.477210
v 0.410012 0.102804 -0.477210
v 0.507729 0.005088 0.109089
v 0.410012 0.689103 -0.477210
v 0.410012 0.102804 -0.477210
v -0.371719 0.102804 -0.477210
v -0.371719 0.689103 -0.477210
v -0.469436 0.005088 0.109089
v -0.371719 0.102804 -0.477210
v 0.410012 0.102804 -0.477210
v 0.507729 0.005088 0.109089
v -0.469436 0.005088 0.109089
v -0.371719 0.102804 -0.477210
v -0.371719 0.689103 -0.477210
v -0.469436 0.786819 0.109089
v 0.507729 0.786819 0.109089
v 0.410012 0.689103 -0.477210
v -0.371719 0.689103 -0.477210
v -0.469436 0.786819 0.109089
v 0.507729 0.786819 0.109089
v 0.507729 0.786819 0.304522
v -0.469436 0.786819 0.304522
v -0.469436 0.786819 0.109089
v 0.507729 0.786819 0.304522
v 0.507729 0.005088 0.304522
v 0.410012 0.180977 0.304522
v 0.410012 0.708646 0.304522
v -0.469436 0.005088 0.304522
v -0.371719 0.180977 0.304522
v -0.469436 0.786819 0.304522
v -0.371719 0.708646 0.304522
v 0.410012 0.708646 0.294750
v 0.410012 0.180977 0.294750
v -0.371719 0.180977 0.294750
v -0.371719 0.708646 0.294750
v 0.410012 0.180977 0.294750
v 0.410012 0.180977 0.304522
v 0.410012 0.708646 0.304522
v 0.410012 0.708646 0.294750
v 0.410012 0.708646 0.304522
v 0.410012 0.708646 0.294750
v -0.371719 0.708646 0.294750
v -0.371719 0.708646 0.304522
v -0.371719 0.180977 0.294750
v -0.371719 0.180977 0.304522
v -0.371719 0.708646 0.304522
v -0.371719 0.708646 0.294750
v 0.410012 0.180977 0.294750
v 0.410012 0.180977 0.304522
v -0.371719 0.180977 0.304522
v -0.371719 0.180977 0.294750
vn -0.0000 -0.0000 -1.0000
vn -0.0000 -1.0000 -0.0000
vn -0.0000 -0.0000 1.0000
vn -0.0000 0.9864 0.1644
vn 1.0000 -0.0000 -0.0000
vn -1.0000 -0.0000 -0.0000
vn 0.9864 -0.0000 -0.1644
vn -0.0000 -0.9864 -0.1644
vn -0.9864 -0.0000 -0.1644
vn -0.0000 0.9864 -0.1644
vn -0.0000 1.0000 -0.0000
vt 0.924136 0.307692
vt 0.924136 0.000000
vt 0.951059 0.000000
vt 0.951059 0.307692
vt 0.307576 1.000000
vt 0.307576 0.692308
vt 0.330640 0.692308
vt 0.330640 1.000000
vt 0.974136 -0.000000
vt 0.974136 0.307692
vt 0.951059 0.307692
vt 0.951059 -0.000000
vt 0.974136 0.307692
vt 0.974136 0.000000
vt 0.997213 0.000000
vt 0.997213 0.307692
vt 0.539604 0.334615
vt 0.562646 0.338462
vt 0.562646 0.361538
vt 0.539604 0.361538
vt 0.562668 0.334615
vt 0.539604 0.311538
vt 0.562668 0.307692
vt 0.230769 0.692308
vt 0.230769 1.000000
vt 0.307576 1.000000
vt 0.307576 0.692308
vt 0.979789 0.692308
vt 0.979789 0.384615
vt 0.902907 0.384615
vt 0.902907 0.692308
vt 0.770373 -0.000000
vt 0.847254 -0.000000
vt 0.847254 0.384615
vt 0.770373 0.384615
vt 0.463304 0.384615
vt 0.463304 0.692308
vt 0.695215 0.653846
vt 0.695215 0.423077
vt 0.539604 -0.000000
vt 0.770373 -0.000000
vt 0.770373 0.307692
vt 0.539604 0.307692
vt 0.539604 0.384615
vt 0.307692 0.346154
vt 0.307692 0.038462
vt 0.539604 -0.000000
vt 0.463304 0.692308
vt 0.463304 0.384615
vt 0.230769 0.423077
vt 0.230769 0.653846
vt 0.000000 0.384615
vt 0.230769 0.730769
vt -0.000000 0.769231
vt 0.847254 -0.000000
vt 0.847254 0.384615
vt 0.924136 0.384615
vt 0.924136 0.000000
vt 0.000000 0.000000
vt 0.030769 0.038462
vt 0.238462 0.038462
vt 0.307692 0.000000
vt 0.238462 0.346154
vt 0.307692 0.384615
vt 0.030769 0.346154
vt -0.000000 0.384615
vt 0.695215 0.384615
vt 0.695215 0.692308
vt 0.338329 0.900000
vt 0.334485 0.900000
vt 0.334485 0.692308
vt 0.338329 0.692308
vt 0.979789 0.692308
vt 0.983635 0.692308
vt 0.983635 0.384615
vt 0.330640 0.692308
vt 0.330640 0.900000
vt 0.983635 0.384615
vt 0.987479 0.692308
vt 0.987479 0.384615
s 1
usemtl Material.001
f 1/1/1 2/2/1 3/3/1 4/4/1
f 4/5/2 3/6/2 5/7/2 6/8/2
f 6/9/3 5/10/3 7/11/3 8/12/3
f 8/13/4 7/14/4 2/15/4 1/16/4
f 2/17/5 7/18/5 5/19/5 3/20/5
f 4/21/6 6/17/6 8/22/6 1/23/6
f 9/24/6 12/25/6 11/26/6 10/27/6
f 13/28/5 16/29/5 15/30/5 14/31/5
f 17/32/2 18/33/2 19/34/2 20/35/2
f 21/36/7 24/37/7 23/38/7 22/39/7
f 25/40/1 26/41/1 27/42/1 28/43/1
f 29/44/8 30/45/8 31/46/8 32/47/8
f 33/48/9 36/49/9 35/50/9 34/51/9
f 37/52/10 38/50/10 39/53/10 40/54/10
f 41/55/11 44/56/11 43/57/11 42/58/11
f 45/59/3 48/60/3 47/61/3 46/62/3
f 46/62/3 47/61/3 50/63/3 49/64/3
f 49/64/3 50/63/3 52/65/3 51/66/3
f 48/60/3 45/59/3 51/66/3 52/65/3
f 53/67/3 56/68/3 55/31/3 54/30/3
f 57/69/6 58/70/6 59/71/6 60/72/6
f 61/29/2 64/73/2 63/74/2 62/75/2
f 65/70/5 68/71/5 67/76/5 66/77/5
f 69/78/11 72/74/11 71/79/11 70/80/11
