# Blender 4.4.0
# www.blender.org
mtllib Walls_ext_rotated.mtl
o Solid_16
v 0.000000 2.999997 -15.400000
v -0.200000 2.999997 -15.400000
v -0.200000 3.000000 -0.200000
v 0.000000 3.000000 -0.200000
v -0.200000 -0.000003 -15.400000
v -0.200000 -0.000000 -0.200000
v 0.000000 -0.000003 -15.400000
v 0.000000 -0.000000 -0.200000
v 0.000000 3.000000 -0.000000
v 0.000000 3.000000 -0.200000
v -20.000000 3.000000 -0.200000
v -20.000000 3.000000 -0.000000
v 0.000000 -0.000000 -0.200000
v -20.000000 -0.000000 -0.200000
v 0.000000 0.000000 0.000000
v -20.000000 0.000000 0.000000
v -3.900000 2.999993 -32.400002
v -3.900000 2.999993 -32.599998
v -19.799999 2.999993 -32.599998
v -19.799999 2.999993 -32.400002
v -3.900000 -0.000007 -32.599998
v -19.799999 -0.000007 -32.599998
v -3.900000 -0.000007 -32.400002
v -19.799999 -0.000007 -32.400002
v -10.700000 -0.000000 -0.200000
v -10.900000 -0.000000 -0.200000
v -10.900000 -0.000002 -8.500000
v -10.700000 -0.000002 -8.500000
v -10.900000 3.000000 -0.200000
v -10.700000 3.000000 -0.200000
v -10.700000 2.999993 -32.400002
v -10.900000 2.999993 -32.400002
v -10.700000 -0.000007 -32.400002
v -10.900000 -0.000007 -32.400002
v -10.700000 -0.000005 -28.100000
v -10.900000 -0.000005 -28.100000
v -10.700000 1.999995 -28.100000
v -10.900000 1.999995 -28.100000
v -10.700000 1.999995 -27.100000
v -10.900000 1.999995 -27.100000
v -10.700000 -0.000005 -27.100000
v -10.900000 -0.000005 -27.100000
v -10.700000 -0.000005 -23.700001
v -10.900000 -0.000005 -23.700001
v -10.700000 1.999995 -23.700001
v -10.900000 1.999995 -23.700001
v -10.700000 1.999995 -22.700001
v -10.900000 1.999995 -22.700001
v -10.700000 -0.000005 -22.700001
v -10.900000 -0.000005 -22.700001
v -10.700000 -0.000003 -18.500000
v -10.900000 -0.000003 -18.500000
v -10.700000 1.999997 -18.500000
v -10.900000 1.999997 -18.500000
v -10.700000 1.999997 -17.500000
v -10.900000 1.999997 -17.500000
v -10.700000 -0.000003 -17.500000
v -10.900000 -0.000003 -17.500000
v -10.700000 -0.000002 -9.500000
v -10.900000 -0.000002 -9.500000
v -10.900000 1.999998 -8.500000
v -10.900000 1.999998 -9.500000
v -10.700000 1.999998 -9.500000
v -10.700000 1.999998 -8.500000
v -10.900000 -0.000002 -11.900000
v -10.900000 -0.000002 -11.700000
v -12.650000 -0.000002 -11.700000
v -12.650000 -0.000002 -11.900000
v -10.900000 2.999998 -11.900000
v -10.900000 2.999998 -11.700000
v -19.799999 2.999998 -11.900000
v -19.799999 2.999998 -11.700000
v -19.799999 -0.000002 -11.900000
v -19.799999 -0.000002 -11.700000
v -18.049999 -0.000002 -11.900000
v -18.049999 -0.000002 -11.700000
v -18.049999 1.999998 -11.900000
v -18.049999 1.999998 -11.700000
v -17.049999 1.999998 -11.900000
v -17.049999 1.999998 -11.700000
v -17.049999 -0.000002 -11.900000
v -17.049999 -0.000002 -11.700000
v -13.650000 -0.000002 -11.900000
v -13.650000 -0.000002 -11.700000
v -13.650000 1.999998 -11.900000
v -12.650000 1.999998 -11.900000
v -12.650000 1.999998 -11.700000
v -13.650000 1.999998 -11.700000
v -13.650000 -0.000005 -25.900000
v -13.650000 -0.000005 -25.700001
v -17.049999 -0.000005 -25.700001
v -17.049999 -0.000005 -25.900000
v -13.650000 1.999995 -25.900000
v -13.650000 1.999995 -25.700001
v -12.650000 1.999995 -25.900000
v -12.650000 1.999995 -25.700001
v -12.650000 -0.000005 -25.900000
v -12.650000 -0.000005 -25.700001
v -10.900000 -0.000005 -25.900000
v -10.900000 -0.000005 -25.700001
v -10.900000 2.999995 -25.900000
v -10.900000 2.999995 -25.700001
v -19.799999 2.999995 -25.900000
v -19.799999 2.999995 -25.700001
v -19.799999 -0.000005 -25.900000
v -19.799999 -0.000005 -25.700001
v -18.049999 -0.000005 -25.900000
v -18.049999 -0.000005 -25.700001
v -17.049999 1.999995 -25.900000
v -18.049999 1.999995 -25.900000
v -17.049999 1.999995 -25.700001
v -18.049999 1.999995 -25.700001
v -3.900000 2.999997 -20.500000
v -3.900000 2.999993 -32.400002
v -4.100000 2.999993 -32.400002
v -4.100000 2.999997 -20.500000
v -4.100000 -0.000007 -32.400002
v -4.100000 -0.000004 -20.500000
v -3.900000 -0.000007 -32.400002
v -3.900000 -0.000004 -20.500000
v 0.000000 2.999997 -15.400000
v 0.000000 2.999997 -15.600000
v -10.700000 2.999997 -15.600000
v -10.700000 2.999997 -15.400000
v 0.000000 -0.000003 -15.600000
v -10.700000 -0.000003 -15.600000
v 0.000000 -0.000003 -15.400000
v -10.700000 -0.000003 -15.400000
v -7.500000 -0.000002 -11.900000
v -7.500000 -0.000002 -11.700000
v -8.650000 -0.000002 -11.700000
v -8.650000 -0.000002 -11.900000
v -7.500000 2.999998 -11.900000
v -7.500000 2.999998 -11.700000
v -10.700000 2.999998 -11.900000
v -10.700000 2.999998 -11.700000
v -10.700000 -0.000002 -11.900000
v -10.700000 -0.000002 -11.700000
v -9.650000 -0.000002 -11.900000
v -9.650000 -0.000002 -11.700000
v -9.650000 1.999998 -11.900000
v -8.650000 1.999998 -11.900000
v -8.650000 1.999998 -11.700000
v -9.650000 1.999998 -11.700000
v -7.500000 2.999997 -15.400000
v -7.500000 2.999998 -11.700000
v -7.300000 2.999998 -11.700000
v -7.300000 2.999997 -15.400000
v -7.500000 -0.000003 -15.400000
v -7.500000 -0.000002 -11.700000
v -7.300000 -0.000003 -15.400000
v -7.300000 -0.000002 -11.700000
v 0.000000 2.999997 -20.299999
v 0.000000 2.999997 -20.500000
v -10.700000 2.999997 -20.500000
v -10.700000 2.999997 -20.299999
v 0.000000 -0.000004 -20.500000
v -10.700000 -0.000004 -20.500000
v 0.000000 -0.000004 -20.299999
v -10.700000 -0.000004 -20.299999
v 0.000000 -0.000003 -15.600000
v -0.200000 -0.000003 -15.600000
v -0.200000 -0.000003 -17.500000
v 0.000000 -0.000003 -17.500000
v -0.200000 2.999997 -15.600000
v 0.000000 2.999997 -15.600000
v -0.200000 2.999997 -20.299999
v 0.000000 2.999997 -20.299999
v 0.000000 -0.000004 -20.299999
v -0.200000 -0.000004 -20.299999
v 0.000000 -0.000003 -18.500000
v -0.200000 -0.000003 -18.500000
v -0.200000 1.999997 -17.500000
v -0.200000 1.999997 -18.500000
v 0.000000 1.999997 -18.500000
v 0.000000 1.999997 -17.500000
v -15.500000 -0.000002 -11.700000
v -15.300000 -0.000002 -11.700000
v -15.300000 -0.000000 -3.300000
v -15.500000 -0.000000 -3.300000
v -15.500000 2.999998 -11.700000
v -15.300000 2.999998 -11.700000
v -15.300000 3.000000 -0.200000
v -15.500000 3.000000 -0.200000
v -15.500000 -0.000000 -0.200000
v -15.300000 -0.000000 -0.200000
v -15.300000 -0.000000 -2.300000
v -15.500000 -0.000000 -2.300000
v -15.500000 2.000000 -2.300000
v -15.500000 2.000000 -3.300000
v -15.300000 2.000000 -3.300000
v -15.300000 2.000000 -2.300000
v -15.500000 2.999993 -32.400002
v -15.500000 2.999995 -25.900000
v -15.300000 2.999995 -25.900000
v -15.300000 2.999993 -32.400002
v -15.500000 -0.000007 -32.400002
v -15.500000 -0.000005 -25.900000
v -15.300000 -0.000007 -32.400002
v -15.300000 -0.000005 -25.900000
v -10.900000 -0.000001 -6.100000
v -10.900000 -0.000001 -5.900000
v -12.650000 -0.000001 -5.900000
v -12.650000 -0.000001 -6.100000
v -10.900000 2.999999 -6.100000
v -10.900000 2.999999 -5.900001
v -15.300000 2.999999 -6.100000
v -15.300000 2.999999 -5.900001
v -15.300000 -0.000001 -6.100000
v -15.300000 -0.000001 -5.900000
v -13.650000 -0.000001 -6.100000
v -13.650000 -0.000001 -5.900000
v -13.650000 1.999999 -6.100000
v -12.650000 1.999999 -6.100000
v -12.650000 1.999999 -5.900001
v -13.650000 1.999999 -5.900001
v -19.799999 2.999993 -32.599998
v -20.000000 2.999993 -32.599998
v -20.000000 3.000000 -0.200000
v -19.799999 3.000000 -0.200000
v -20.000000 -0.000007 -32.599998
v -20.000000 -0.000000 -0.200000
v -19.799999 -0.000007 -32.599998
v -19.799999 -0.000000 -0.200000
vn -0.0000 1.0000 -0.0000
vn -1.0000 -0.0000 -0.0000
vn -0.0000 -0.0000 -1.0000
vn 1.0000 -0.0000 -0.0000
vn -0.0000 -1.0000 -0.0000
vn -0.0000 -0.0000 1.0000
s 1
f 1//1 2//1 3//1
f 3//1 4//1 1//1
f 5//2 6//2 3//2
f 3//2 2//2 5//2
f 7//3 5//3 2//3
f 2//3 1//3 7//3
f 8//4 7//4 1//4
f 1//4 4//4 8//4
f 7//5 8//5 6//5
f 6//5 5//5 7//5
f 3//6 6//6 8//6
f 8//6 4//6 3//6
f 9//1 10//1 11//1
f 11//1 12//1 9//1
f 13//3 14//3 11//3
f 11//3 10//3 13//3
f 15//4 13//4 10//4
f 10//4 9//4 15//4
f 16//6 15//6 9//6
f 9//6 12//6 16//6
f 15//5 16//5 14//5
f 14//5 13//5 15//5
f 11//2 14//2 16//2
f 16//2 12//2 11//2
f 17//1 18//1 19//1
f 19//1 20//1 17//1
f 21//3 22//3 19//3
f 19//3 18//3 21//3
f 23//4 21//4 18//4
f 18//4 17//4 23//4
f 24//6 23//6 17//6
f 17//6 20//6 24//6
f 23//5 24//5 22//5
f 22//5 21//5 23//5
f 19//2 22//2 24//2
f 24//2 20//2 19//2
f 25//5 26//5 27//5
f 27//5 28//5 25//5
f 29//6 26//6 25//6
f 25//6 30//6 29//6
f 30//1 31//1 32//1
f 32//1 29//1 30//1
f 33//3 34//3 32//3
f 32//3 31//3 33//3
f 34//5 33//5 35//5
f 35//5 36//5 34//5
f 37//6 38//6 36//6
f 36//6 35//6 37//6
f 39//5 40//5 38//5
f 38//5 37//5 39//5
f 41//3 42//3 40//3
f 40//3 39//3 41//3
f 42//5 41//5 43//5
f 43//5 44//5 42//5
f 45//6 46//6 44//6
f 44//6 43//6 45//6
f 47//5 48//5 46//5
f 46//5 45//5 47//5
f 49//3 50//3 48//3
f 48//3 47//3 49//3
f 50//5 49//5 51//5
f 51//5 52//5 50//5
f 53//6 54//6 52//6
f 52//6 51//6 53//6
f 55//5 56//5 54//5
f 54//5 53//5 55//5
f 57//3 58//3 56//3
f 56//3 55//3 57//3
f 58//5 57//5 59//5
f 59//5 60//5 58//5
f 26//2 29//2 61//2
f 29//2 56//2 62//2
f 62//2 61//2 29//2
f 60//2 62//2 56//2
f 56//2 58//2 60//2
f 29//2 48//2 54//2
f 54//2 56//2 29//2
f 52//2 54//2 48//2
f 48//2 50//2 52//2
f 29//2 40//2 46//2
f 46//2 48//2 29//2
f 44//2 46//2 40//2
f 40//2 42//2 44//2
f 32//2 38//2 40//2
f 40//2 29//2 32//2
f 34//2 36//2 38//2
f 38//2 32//2 34//2
f 61//2 27//2 26//2
f 33//4 31//4 37//4
f 31//4 45//4 39//4
f 39//4 37//4 31//4
f 41//4 39//4 45//4
f 45//4 43//4 41//4
f 31//4 53//4 47//4
f 47//4 45//4 31//4
f 49//4 47//4 53//4
f 53//4 51//4 49//4
f 31//4 63//4 55//4
f 55//4 53//4 31//4
f 57//4 55//4 63//4
f 63//4 59//4 57//4
f 30//4 64//4 63//4
f 63//4 31//4 30//4
f 25//4 28//4 64//4
f 64//4 30//4 25//4
f 37//4 35//4 33//4
f 64//5 61//5 62//5
f 62//5 63//5 64//5
f 28//3 27//3 61//3
f 61//3 64//3 28//3
f 63//6 62//6 60//6
f 60//6 59//6 63//6
f 65//5 66//5 67//5
f 67//5 68//5 65//5
f 66//4 65//4 69//4
f 69//4 70//4 66//4
f 70//1 69//1 71//1
f 71//1 72//1 70//1
f 71//2 73//2 74//2
f 74//2 72//2 71//2
f 74//5 73//5 75//5
f 75//5 76//5 74//5
f 76//4 75//4 77//4
f 77//4 78//4 76//4
f 78//5 77//5 79//5
f 79//5 80//5 78//5
f 80//2 79//2 81//2
f 81//2 82//2 80//2
f 82//5 81//5 83//5
f 83//5 84//5 82//5
f 73//3 71//3 77//3
f 71//3 85//3 79//3
f 79//3 77//3 71//3
f 81//3 79//3 85//3
f 85//3 83//3 81//3
f 69//3 86//3 85//3
f 85//3 71//3 69//3
f 65//3 68//3 86//3
f 86//3 69//3 65//3
f 77//3 75//3 73//3
f 66//6 70//6 87//6
f 70//6 80//6 88//6
f 88//6 87//6 70//6
f 84//6 88//6 80//6
f 80//6 82//6 84//6
f 72//6 78//6 80//6
f 80//6 70//6 72//6
f 74//6 76//6 78//6
f 78//6 72//6 74//6
f 87//6 67//6 66//6
f 88//5 85//5 86//5
f 86//5 87//5 88//5
f 87//2 86//2 68//2
f 68//2 67//2 87//2
f 84//4 83//4 85//4
f 85//4 88//4 84//4
f 89//5 90//5 91//5
f 91//5 92//5 89//5
f 90//4 89//4 93//4
f 93//4 94//4 90//4
f 94//5 93//5 95//5
f 95//5 96//5 94//5
f 96//2 95//2 97//2
f 97//2 98//2 96//2
f 99//5 100//5 98//5
f 98//5 97//5 99//5
f 100//4 99//4 101//4
f 101//4 102//4 100//4
f 102//1 101//1 103//1
f 103//1 104//1 102//1
f 103//2 105//2 106//2
f 106//2 104//2 103//2
f 106//5 105//5 107//5
f 107//5 108//5 106//5
f 92//3 109//3 93//3
f 101//3 95//3 93//3
f 105//3 103//3 110//3
f 103//3 101//3 109//3
f 93//3 109//3 101//3
f 99//3 97//3 95//3
f 109//3 110//3 103//3
f 95//3 101//3 99//3
f 93//3 89//3 92//3
f 110//3 107//3 105//3
f 90//6 94//6 111//6
f 104//6 112//6 111//6
f 100//6 102//6 96//6
f 102//6 104//6 94//6
f 111//6 94//6 104//6
f 106//6 108//6 112//6
f 94//6 96//6 102//6
f 112//6 104//6 106//6
f 111//6 91//6 90//6
f 96//6 98//6 100//6
f 112//5 110//5 109//5
f 109//5 111//5 112//5
f 111//2 109//2 92//2
f 92//2 91//2 111//2
f 108//4 107//4 110//4
f 110//4 112//4 108//4
f 113//1 114//1 115//1
f 115//1 116//1 113//1
f 117//2 118//2 116//2
f 116//2 115//2 117//2
f 119//3 117//3 115//3
f 115//3 114//3 119//3
f 120//4 119//4 114//4
f 114//4 113//4 120//4
f 120//5 118//5 117//5
f 117//5 119//5 120//5
f 116//6 118//6 120//6
f 120//6 113//6 116//6
f 121//1 122//1 123//1
f 123//1 124//1 121//1
f 125//3 126//3 123//3
f 123//3 122//3 125//3
f 127//4 125//4 122//4
f 122//4 121//4 127//4
f 128//6 127//6 121//6
f 121//6 124//6 128//6
f 127//5 128//5 126//5
f 126//5 125//5 127//5
f 123//2 126//2 128//2
f 128//2 124//2 123//2
f 129//5 130//5 131//5
f 131//5 132//5 129//5
f 130//4 129//4 133//4
f 133//4 134//4 130//4
f 134//1 133//1 135//1
f 135//1 136//1 134//1
f 135//2 137//2 138//2
f 138//2 136//2 135//2
f 138//5 137//5 139//5
f 139//5 140//5 138//5
f 137//3 135//3 141//3
f 135//3 133//3 142//3
f 142//3 141//3 135//3
f 129//3 132//3 142//3
f 142//3 133//3 129//3
f 141//3 139//3 137//3
f 130//6 134//6 143//6
f 136//6 144//6 143//6
f 143//6 134//6 136//6
f 138//6 140//6 144//6
f 144//6 136//6 138//6
f 143//6 131//6 130//6
f 144//5 141//5 142//5
f 142//5 143//5 144//5
f 143//2 142//2 132//2
f 132//2 131//2 143//2
f 140//4 139//4 141//4
f 141//4 144//4 140//4
f 145//1 146//1 147//1
f 147//1 148//1 145//1
f 149//2 150//2 146//2
f 146//2 145//2 149//2
f 151//3 149//3 145//3
f 145//3 148//3 151//3
f 152//4 151//4 148//4
f 148//4 147//4 152//4
f 152//5 150//5 149//5
f 149//5 151//5 152//5
f 146//6 150//6 152//6
f 152//6 147//6 146//6
f 153//1 154//1 155//1
f 155//1 156//1 153//1
f 157//3 158//3 155//3
f 155//3 154//3 157//3
f 159//4 157//4 154//4
f 154//4 153//4 159//4
f 160//6 159//6 153//6
f 153//6 156//6 160//6
f 159//5 160//5 158//5
f 158//5 157//5 159//5
f 155//2 158//2 160//2
f 160//2 156//2 155//2
f 161//5 162//5 163//5
f 163//5 164//5 161//5
f 165//6 162//6 161//6
f 161//6 166//6 165//6
f 167//1 165//1 166//1
f 166//1 168//1 167//1
f 169//3 170//3 167//3
f 167//3 168//3 169//3
f 170//5 169//5 171//5
f 171//5 172//5 170//5
f 162//2 165//2 173//2
f 167//2 174//2 173//2
f 173//2 165//2 167//2
f 170//2 172//2 174//2
f 174//2 167//2 170//2
f 173//2 163//2 162//2
f 169//4 168//4 175//4
f 168//4 166//4 176//4
f 176//4 175//4 168//4
f 161//4 164//4 176//4
f 176//4 166//4 161//4
f 175//4 171//4 169//4
f 176//5 173//5 174//5
f 174//5 175//5 176//5
f 164//3 163//3 173//3
f 173//3 176//3 164//3
f 175//6 174//6 172//6
f 172//6 171//6 175//6
f 177//5 178//5 179//5
f 179//5 180//5 177//5
f 178//3 177//3 181//3
f 181//3 182//3 178//3
f 183//1 182//1 181//1
f 181//1 184//1 183//1
f 184//6 185//6 186//6
f 186//6 183//6 184//6
f 187//5 186//5 185//5
f 185//5 188//5 187//5
f 185//2 184//2 189//2
f 184//2 181//2 190//2
f 190//2 189//2 184//2
f 177//2 180//2 190//2
f 190//2 181//2 177//2
f 189//2 188//2 185//2
f 178//4 182//4 191//4
f 183//4 192//4 191//4
f 191//4 182//4 183//4
f 186//4 187//4 192//4
f 192//4 183//4 186//4
f 191//4 179//4 178//4
f 189//5 190//5 191//5
f 191//5 192//5 189//5
f 191//6 190//6 180//6
f 180//6 179//6 191//6
f 187//3 188//3 189//3
f 189//3 192//3 187//3
f 193//1 194//1 195//1
f 195//1 196//1 193//1
f 197//2 198//2 194//2
f 194//2 193//2 197//2
f 199//3 197//3 193//3
f 193//3 196//3 199//3
f 200//4 199//4 196//4
f 196//4 195//4 200//4
f 200//5 198//5 197//5
f 197//5 199//5 200//5
f 194//6 198//6 200//6
f 200//6 195//6 194//6
f 201//5 202//5 203//5
f 203//5 204//5 201//5
f 202//4 201//4 205//4
f 205//4 206//4 202//4
f 206//1 205//1 207//1
f 207//1 208//1 206//1
f 207//2 209//2 210//2
f 210//2 208//2 207//2
f 210//5 209//5 211//5
f 211//5 212//5 210//5
f 209//3 207//3 213//3
f 207//3 205//3 214//3
f 214//3 213//3 207//3
f 201//3 204//3 214//3
f 214//3 205//3 201//3
f 213//3 211//3 209//3
f 202//6 206//6 215//6
f 208//6 216//6 215//6
f 215//6 206//6 208//6
f 210//6 212//6 216//6
f 216//6 208//6 210//6
f 215//6 203//6 202//6
f 216//5 213//5 214//5
f 214//5 215//5 216//5
f 215//2 214//2 204//2
f 204//2 203//2 215//2
f 212//4 211//4 213//4
f 213//4 216//4 212//4
f 217//1 218//1 219//1
f 219//1 220//1 217//1
f 221//2 222//2 219//2
f 219//2 218//2 221//2
f 223//3 221//3 218//3
f 218//3 217//3 223//3
f 224//4 223//4 217//4
f 217//4 220//4 224//4
f 223//5 224//5 222//5
f 222//5 221//5 223//5
f 219//6 222//6 224//6
f 224//6 220//6 219//6
