o Box.001
v 0 0 3
v 0 0.20000000298023224 3
v -20 0.20000000298023224 3
v -20 0 3
v 0 0.20000000298023224 0
v -20 0.20000000298023224 0
v 0 0 0
v -20 0 0
vn 0 0 1
vn 0 0 1
vn 0 0 1
vn 0 0 1
vn 0 1 0
vn 0 1 0
vn 0 1 0
vn 0 1 0
vn 1 0 0
vn 1 0 0
vn 1 0 0
vn 1 0 0
vn 0 -1 0
vn 0 -1 0
vn 0 -1 0
vn 0 -1 0
vn 0 0 -1
vn 0 0 -1
vn 0 0 -1
vn 0 0 -1
vn -1 0 0
vn -1 0 0
vn -1 0 0
vn -1 0 0
f 1//1 2//2 3//3
f 3//3 4//4 1//1
f 5//5 6//6 3//7
f 3//7 2//8 5//5
f 7//9 5//10 2//11
f 2//11 1//12 7//9
f 8//13 7//14 1//15
f 1//15 4//16 8//13
f 7//17 8//18 6//19
f 6//19 5//20 7//17
f 3//21 6//22 8//23
f 8//23 4//24 3//21
o Solid_9
v -19.799999237060547 36.599998474121094 3
v -20 36.599998474121094 3
v -20 0.20000000298023224 3
v -19.799999237060547 0.20000000298023224 3
v -20 36.599998474121094 0
v -20 0.20000000298023224 0
v -19.799999237060547 36.599998474121094 0
v -19.799999237060547 0.20000000298023224 0
vn 0 0 1
vn 0 0 1
vn 0 0 1
vn 0 0 1
vn -1 2.220446049250313e-16 0
vn -1 2.220446049250313e-16 0
vn -1 2.220446049250313e-16 0
vn -1 2.220446049250313e-16 0
vn 2.220446049250313e-16 1 0
vn 2.220446049250313e-16 1 0
vn 2.220446049250313e-16 1 0
vn 2.220446049250313e-16 1 0
vn 1 -2.220446049250313e-16 0
vn 1 -2.220446049250313e-16 0
vn 1 -2.220446049250313e-16 0
vn 1 -2.220446049250313e-16 0
vn 0 0 -1
vn 0 0 -1
vn 0 0 -1
vn 0 0 -1
vn -2.220446049250313e-16 -1 0
vn -2.220446049250313e-16 -1 0
vn -2.220446049250313e-16 -1 0
vn -2.220446049250313e-16 -1 0
f 9//25 10//26 11//27
f 11//27 12//28 9//25
f 13//29 14//30 11//31
f 11//31 10//32 13//29
f 15//33 13//34 10//35
f 10//35 9//36 15//33
f 16//37 15//38 9//39
f 9//39 12//40 16//37
f 15//41 16//42 14//43
f 14//43 13//44 15//41
f 11//45 14//46 16//47
f 16//47 12//48 11//45
o Solid_10
v -3.9000000953674316 36.400001525878906 3
v -3.9000000953674316 36.599998474121094 3
v -19.799999237060547 36.599998474121094 3
v -19.799999237060547 36.400001525878906 3
v -3.9000000953674316 36.599998474121094 0
v -19.799999237060547 36.599998474121094 0
v -3.9000000953674316 36.400001525878906 0
v -19.799999237060547 36.400001525878906 0
vn 0 0 1
vn 0 0 1
vn 0 0 1
vn 0 0 1
vn 0 1 0
vn 0 1 0
vn 0 1 0
vn 0 1 0
vn 1 0 0
vn 1 0 0
vn 1 0 0
vn 1 0 0
vn 0 -1 0
vn 0 -1 0
vn 0 -1 0
vn 0 -1 0
vn 0 0 -1
vn 0 0 -1
vn 0 0 -1
vn 0 0 -1
vn -1 0 0
vn -1 0 0
vn -1 0 0
vn -1 0 0
f 17//49 18//50 19//51
f 19//51 20//52 17//49
f 21//53 22//54 19//55
f 19//55 18//56 21//53
f 23//57 21//58 18//59
f 18//59 17//60 23//57
f 24//61 23//62 17//63
f 17//63 20//64 24//61
f 23//65 24//66 22//67
f 22//67 21//68 23//65
f 19//69 22//70 24//71
f 24//71 20//72 19//69
o Solid_11
v -10.699999809265137 0.20000000298023224 0
v -10.899999618530273 0.20000000298023224 0
v -10.899999618530273 8.5 0
v -10.699999809265137 8.5 0
v -10.899999618530273 0.20000000298023224 3
v -10.699999809265137 0.20000000298023224 3
v -10.699999809265137 36.400001525878906 3
v -10.899999618530273 36.400001525878906 3
v -10.699999809265137 36.400001525878906 0
v -10.899999618530273 36.400001525878906 0
v -10.699999809265137 28.100000381469727 0
v -10.899999618530273 28.100000381469727 0
v -10.699999809265137 28.100000381469727 2
v -10.899999618530273 28.100000381469727 2
v -10.699999809265137 27.100000381469727 2
v -10.899999618530273 27.100000381469727 2
v -10.699999809265137 27.100000381469727 0
v -10.899999618530273 27.100000381469727 0
v -10.699999809265137 23.700000762939453 0
v -10.899999618530273 23.700000762939453 0
v -10.699999809265137 23.700000762939453 2
v -10.899999618530273 23.700000762939453 2
v -10.699999809265137 22.700000762939453 2
v -10.899999618530273 22.700000762939453 2
v -10.699999809265137 22.700000762939453 0
v -10.899999618530273 22.700000762939453 0
v -10.699999809265137 18.5 0
v -10.899999618530273 18.5 0
v -10.699999809265137 18.5 2
v -10.899999618530273 18.5 2
v -10.699999809265137 17.5 2
v -10.899999618530273 17.5 2
v -10.699999809265137 17.5 0
v -10.899999618530273 17.5 0
v -10.699999809265137 9.5 0
v -10.899999618530273 9.5 0
v -10.899999618530273 8.5 2
v -10.899999618530273 9.5 2
v -10.699999809265137 9.5 2
v -10.699999809265137 8.5 2
vn 0 0 -1
vn 0 0 -1
vn 0 0 -1
vn 0 0 -1
vn -2.220446049250313e-16 -1 0
vn -2.220446049250313e-16 -1 0
vn -2.220446049250313e-16 -1 0
vn -2.220446049250313e-16 -1 0
vn 0 0 1
vn 0 0 1
vn 0 0 1
vn 0 0 1
vn 2.220446049250313e-16 1 0
vn 2.220446049250313e-16 1 0
vn 2.220446049250313e-16 1 0
vn 2.220446049250313e-16 1 0
vn 0 0 -1
vn 0 0 -1
vn 0 0 -1
vn 0 0 -1
vn 0 -1 0
vn 0 -1 0
vn 0 -1 0
vn 0 -1 0
vn 0 0 -1
vn 0 0 -1
vn 0 0 -1
vn 0 0 -1
vn 0 1 0
vn 0 1 0
vn 0 1 0
vn 0 1 0
vn 0 0 -1
vn 0 0 -1
vn 0 0 -1
vn 0 0 -1
vn 0 -1 0
vn 0 -1 0
vn 0 -1 0
vn 0 -1 0
vn 0 0 -1
vn 0 0 -1
vn 0 0 -1
vn 0 0 -1
vn 0 1 0
vn 0 1 0
vn 0 1 0
vn 0 1 0
vn 0 0 -1
vn 0 0 -1
vn 0 0 -1
vn 0 0 -1
vn 0 -1 0
vn 0 -1 0
vn 0 -1 0
vn 0 -1 0
vn 0 0 -1
vn 0 0 -1
vn 0 0 -1
vn 0 0 -1
vn 0 1 0
vn 0 1 0
vn 0 1 0
vn 0 1 0
vn 0 0 -1
vn 0 0 -1
vn 0 0 -1
vn 0 0 -1
vn -1 2.220446049250313e-16 0
vn -1 2.220446049250313e-16 0
vn -1 2.220446049250313e-16 0
vn -1 2.220446049250313e-16 0
vn -1 2.220446049250313e-16 0
vn -1 2.220446049250313e-16 0
vn -1 2.220446049250313e-16 0
vn -1 2.220446049250313e-16 0
vn -1 2.220446049250313e-16 0
vn -1 2.220446049250313e-16 0
vn -1 2.220446049250313e-16 0
vn -1 2.220446049250313e-16 0
vn -1 2.220446049250313e-16 0
vn -1 2.220446049250313e-16 0
vn -1 2.220446049250313e-16 0
vn -1 2.220446049250313e-16 0
vn -1 2.220446049250313e-16 0
vn -1 2.220446049250313e-16 0
vn -1 2.220446049250313e-16 0
vn -1 2.220446049250313e-16 0
vn 1 -2.220446049250313e-16 0
vn 1 -2.220446049250313e-16 0
vn 1 -2.220446049250313e-16 0
vn 1 -2.220446049250313e-16 0
vn 1 -2.220446049250313e-16 0
vn 1 -2.220446049250313e-16 0
vn 1 -2.220446049250313e-16 0
vn 1 -2.220446049250313e-16 0
vn 1 -2.220446049250313e-16 0
vn 1 -2.220446049250313e-16 0
vn 1 -2.220446049250313e-16 0
vn 1 -2.220446049250313e-16 0
vn 1 -2.220446049250313e-16 0
vn 1 -2.220446049250313e-16 0
vn 1 -2.220446049250313e-16 0
vn 1 -2.220446049250313e-16 0
vn 1 -2.220446049250313e-16 0
vn 1 -2.220446049250313e-16 0
vn 1 -2.220446049250313e-16 0
vn 1 -2.220446049250313e-16 0
vn 0 0 -1
vn 0 0 -1
vn 0 0 -1
vn 0 0 -1
vn 0 1 0
vn 0 1 0
vn 0 1 0
vn 0 1 0
vn 0 -1 0
vn 0 -1 0
vn 0 -1 0
vn 0 -1 0
f 25//73 26//74 27//75
f 27//75 28//76 25//73
f 29//77 26//78 25//79
f 25//79 30//80 29//77
f 30//81 31//82 32//83
f 32//83 29//84 30//81
f 33//85 34//86 32//87
f 32//87 31//88 33//85
f 34//89 33//90 35//91
f 35//91 36//92 34//89
f 37//93 38//94 36//95
f 36//95 35//96 37//93
f 39//97 40//98 38//99
f 38//99 37//100 39//97
f 41//101 42//102 40//103
f 40//103 39//104 41//101
f 42//105 41//106 43//107
f 43//107 44//108 42//105
f 45//109 46//110 44//111
f 44//111 43//112 45//109
f 47//113 48//114 46//115
f 46//115 45//116 47//113
f 49//117 50//118 48//119
f 48//119 47//120 49//117
f 50//121 49//122 51//123
f 51//123 52//124 50//121
f 53//125 54//126 52//127
f 52//127 51//128 53//125
f 55//129 56//130 54//131
f 54//131 53//132 55//129
f 57//133 58//134 56//135
f 56//135 55//136 57//133
f 58//137 57//138 59//139
f 59//139 60//140 58//137
f 26//141 29//142 61//143
f 29//142 56//144 62//145
f 62//145 61//143 29//142
f 60//146 62//145 56//144
f 56//144 58//147 60//146
f 29//142 48//148 54//149
f 54//149 56//144 29//142
f 52//150 54//149 48//148
f 48//148 50//151 52//150
f 29//142 40//152 46//153
f 46//153 48//148 29//142
f 44//154 46//153 40//152
f 40//152 42//155 44//154
f 32//156 38//157 40//152
f 40//152 29//142 32//156
f 34//158 36//159 38//157
f 38//157 32//156 34//158
f 61//143 27//160 26//141
f 33//161 31//162 37//163
f 31//162 45//164 39//165
f 39//165 37//163 31//162
f 41//166 39//165 45//164
f 45//164 43//167 41//166
f 31//162 53//168 47//169
f 47//169 45//164 31//162
f 49//170 47//169 53//168
f 53//168 51//171 49//170
f 31//162 63//172 55//173
f 55//173 53//168 31//162
f 57//174 55//173 63//172
f 63//172 59//175 57//174
f 30//176 64//177 63//172
f 63//172 31//162 30//176
f 25//178 28//179 64//177
f 64//177 30//176 25//178
f 37//163 35//180 33//161
f 64//181 61//182 62//183
f 62//183 63//184 64//181
f 28//185 27//186 61//187
f 61//187 64//188 28//185
f 63//189 62//190 60//191
f 60//191 59//192 63//189
o Solid_12
v -10.899999618530273 11.899999618530273 0
v -10.899999618530273 11.699999809265137 0
v -12.649999618530273 11.699999809265137 0
v -12.649999618530273 11.899999618530273 0
v -10.899999618530273 11.899999618530273 3
v -10.899999618530273 11.699999809265137 3
v -19.799999237060547 11.899999618530273 3
v -19.799999237060547 11.699999809265137 3
v -19.799999237060547 11.899999618530273 0
v -19.799999237060547 11.699999809265137 0
v -18.049999237060547 11.899999618530273 0
v -18.049999237060547 11.699999809265137 0
v -18.049999237060547 11.899999618530273 2
v -18.049999237060547 11.699999809265137 2
v -17.049999237060547 11.899999618530273 2
v -17.049999237060547 11.699999809265137 2
v -17.049999237060547 11.899999618530273 0
v -17.049999237060547 11.699999809265137 0
v -13.649999618530273 11.899999618530273 0
v -13.649999618530273 11.699999809265137 0
v -13.649999618530273 11.899999618530273 2
v -12.649999618530273 11.899999618530273 2
v -12.649999618530273 11.699999809265137 2
v -13.649999618530273 11.699999809265137 2
vn 0 0 -1
vn 0 0 -1
vn 0 0 -1
vn 0 0 -1
vn 1 0 0
vn 1 0 0
vn 1 0 0
vn 1 0 0
vn 0 0 1
vn 0 0 1
vn 0 0 1
vn 0 0 1
vn -1 0 0
vn -1 0 0
vn -1 0 0
vn -1 0 0
vn 0 0 -1
vn 0 0 -1
vn 0 0 -1
vn 0 0 -1
vn 1 -2.220446049250313e-16 0
vn 1 -2.220446049250313e-16 0
vn 1 -2.220446049250313e-16 0
vn 1 -2.220446049250313e-16 0
vn 0 0 -1
vn 0 0 -1
vn 0 0 -1
vn 0 0 -1
vn -1 2.220446049250313e-16 0
vn -1 2.220446049250313e-16 0
vn -1 2.220446049250313e-16 0
vn -1 2.220446049250313e-16 0
vn 0 0 -1
vn 0 0 -1
vn 0 0 -1
vn 0 0 -1
vn 0 1 0
vn 0 1 0
vn 0 1 0
vn 0 1 0
vn 0 1 0
vn 0 1 0
vn 0 1 0
vn 0 1 0
vn 0 1 0
vn 0 1 0
vn 0 1 0
vn 0 1 0
vn 0 -1 0
vn 0 -1 0
vn 0 -1 0
vn 0 -1 0
vn 0 -1 0
vn 0 -1 0
vn 0 -1 0
vn 0 -1 0
vn 0 -1 0
vn 0 -1 0
vn 0 -1 0
vn 0 -1 0
vn 0 0 -1
vn 0 0 -1
vn 0 0 -1
vn 0 0 -1
vn -1 2.220446049250313e-16 0
vn -1 2.220446049250313e-16 0
vn -1 2.220446049250313e-16 0
vn -1 2.220446049250313e-16 0
vn 1 -2.220446049250313e-16 0
vn 1 -2.220446049250313e-16 0
vn 1 -2.220446049250313e-16 0
vn 1 -2.220446049250313e-16 0
f 65//193 66//194 67//195
f 67//195 68//196 65//193
f 66//197 65//198 69//199
f 69//199 70//200 66//197
f 70//201 69//202 71//203
f 71//203 72//204 70//201
f 71//205 73//206 74//207
f 74//207 72//208 71//205
f 74//209 73//210 75//211
f 75//211 76//212 74//209
f 76//213 75//214 77//215
f 77//215 78//216 76//213
f 78//217 77//218 79//219
f 79//219 80//220 78//217
f 80//221 79//222 81//223
f 81//223 82//224 80//221
f 82//225 81//226 83//227
f 83//227 84//228 82//225
f 73//229 71//230 77//231
f 71//230 85//232 79//233
f 79//233 77//231 71//230
f 81//234 79//233 85//232
f 85//232 83//235 81//234
f 69//236 86//237 85//232
f 85//232 71//230 69//236
f 65//238 68//239 86//237
f 86//237 69//236 65//238
f 77//231 75//240 73//229
f 66//241 70//242 87//243
f 70//242 80//244 88//245
f 88//245 87//243 70//242
f 84//246 88//245 80//244
f 80//244 82//247 84//246
f 72//248 78//249 80//244
f 80//244 70//242 72//248
f 74//250 76//251 78//249
f 78//249 72//248 74//250
f 87//243 67//252 66//241
f 88//253 85//254 86//255
f 86//255 87//256 88//253
f 87//257 86//258 68//259
f 68//259 67//260 87//257
f 84//261 83//262 85//263
f 85//263 88//264 84//261
o Solid_13
v -13.649999618530273 25.899999618530273 0
v -13.649999618530273 25.700000762939453 0
v -17.049999237060547 25.700000762939453 0
v -17.049999237060547 25.899999618530273 0
v -13.649999618530273 25.899999618530273 2
v -13.649999618530273 25.700000762939453 2
v -12.649999618530273 25.899999618530273 2
v -12.649999618530273 25.700000762939453 2
v -12.649999618530273 25.899999618530273 0
v -12.649999618530273 25.700000762939453 0
v -10.899999618530273 25.899999618530273 0
v -10.899999618530273 25.700000762939453 0
v -10.899999618530273 25.899999618530273 3
v -10.899999618530273 25.700000762939453 3
v -19.799999237060547 25.899999618530273 3
v -19.799999237060547 25.700000762939453 3
v -19.799999237060547 25.899999618530273 0
v -19.799999237060547 25.700000762939453 0
v -18.049999237060547 25.899999618530273 0
v -18.049999237060547 25.700000762939453 0
v -17.049999237060547 25.899999618530273 2
v -18.049999237060547 25.899999618530273 2
v -17.049999237060547 25.700000762939453 2
v -18.049999237060547 25.700000762939453 2
vn 0 0 -1
vn 0 0 -1
vn 0 0 -1
vn 0 0 -1
vn 1 -2.220446049250313e-16 0
vn 1 -2.220446049250313e-16 0
vn 1 -2.220446049250313e-16 0
vn 1 -2.220446049250313e-16 0
vn 0 0 -1
vn 0 0 -1
vn 0 0 -1
vn 0 0 -1
vn -1 2.220446049250313e-16 0
vn -1 2.220446049250313e-16 0
vn -1 2.220446049250313e-16 0
vn -1 2.220446049250313e-16 0
vn 0 0 -1
vn 0 0 -1
vn 0 0 -1
vn 0 0 -1
vn 1 0 0
vn 1 0 0
vn 1 0 0
vn 1 0 0
vn 0 0 1
vn 0 0 1
vn 0 0 1
vn 0 0 1
vn -1 0 0
vn -1 0 0
vn -1 0 0
vn -1 0 0
vn 0 0 -1
vn 0 0 -1
vn 0 0 -1
vn 0 0 -1
vn 0 1 0
vn 0 1 0
vn 0 1 0
vn 0 1 0
vn 0 1 0
vn 0 1 0
vn 0 1 0
vn 0 1 0
vn 0 1 0
vn 0 1 0
vn 0 1 0
vn 0 1 0
vn 0 -1 0
vn 0 -1 0
vn 0 -1 0
vn 0 -1 0
vn 0 -1 0
vn 0 -1 0
vn 0 -1 0
vn 0 -1 0
vn 0 -1 0
vn 0 -1 0
vn 0 -1 0
vn 0 -1 0
vn 0 0 -1
vn 0 0 -1
vn 0 0 -1
vn 0 0 -1
vn -1 2.220446049250313e-16 0
vn -1 2.220446049250313e-16 0
vn -1 2.220446049250313e-16 0
vn -1 2.220446049250313e-16 0
vn 1 -2.220446049250313e-16 0
vn 1 -2.220446049250313e-16 0
vn 1 -2.220446049250313e-16 0
vn 1 -2.220446049250313e-16 0
f 89//265 90//266 91//267
f 91//267 92//268 89//265
f 90//269 89//270 93//271
f 93//271 94//272 90//269
f 94//273 93//274 95//275
f 95//275 96//276 94//273
f 96//277 95//278 97//279
f 97//279 98//280 96//277
f 99//281 100//282 98//283
f 98//283 97//284 99//281
f 100//285 99//286 101//287
f 101//287 102//288 100//285
f 102//289 101//290 103//291
f 103//291 104//292 102//289
f 103//293 105//294 106//295
f 106//295 104//296 103//293
f 106//297 105//298 107//299
f 107//299 108//300 106//297
f 92//301 109//302 93//303
f 101//304 95//305 93//303
f 105//306 103//307 110//308
f 103//307 101//304 109//302
f 93//303 109//302 101//304
f 99//309 97//310 95//305
f 109//302 110//308 103//307
f 95//305 101//304 99//309
f 93//303 89//311 92//301
f 110//308 107//312 105//306
f 90//313 94//314 111//315
f 104//316 112//317 111//315
f 100//318 102//319 96//320
f 102//319 104//316 94//314
f 111//315 94//314 104//316
f 106//321 108//322 112//317
f 94//314 96//320 102//319
f 112//317 104//316 106//321
f 111//315 91//323 90//313
f 96//320 98//324 100//318
f 112//325 110//326 109//327
f 109//327 111//328 112//325
f 111//329 109//330 92//331
f 92//331 91//332 111//329
f 108//333 107//334 110//335
f 110//335 112//336 108//333
o Solid_14
v -3.9000000953674316 20.5 3
v -3.9000000953674316 36.400001525878906 3
v -4.099999904632568 36.400001525878906 3
v -4.099999904632568 20.5 3
v -4.099999904632568 36.400001525878906 0
v -4.099999904632568 20.5 0
v -3.9000000953674316 36.400001525878906 0
v -3.9000000953674316 20.5 0
vn 0 0 1
vn 0 0 1
vn 0 0 1
vn 0 0 1
vn -1 2.220446049250313e-16 0
vn -1 2.220446049250313e-16 0
vn -1 2.220446049250313e-16 0
vn -1 2.220446049250313e-16 0
vn 2.220446049250313e-16 1 0
vn 2.220446049250313e-16 1 0
vn 2.220446049250313e-16 1 0
vn 2.220446049250313e-16 1 0
vn 1 -2.220446049250313e-16 0
vn 1 -2.220446049250313e-16 0
vn 1 -2.220446049250313e-16 0
vn 1 -2.220446049250313e-16 0
vn 0 0 -1
vn 0 0 -1
vn 0 0 -1
vn 0 0 -1
vn -2.220446049250313e-16 -1 0
vn -2.220446049250313e-16 -1 0
vn -2.220446049250313e-16 -1 0
vn -2.220446049250313e-16 -1 0
f 113//337 114//338 115//339
f 115//339 116//340 113//337
f 117//341 118//342 116//343
f 116//343 115//344 117//341
f 119//345 117//346 115//347
f 115//347 114//348 119//345
f 120//349 119//350 114//351
f 114//351 113//352 120//349
f 120//353 118//354 117//355
f 117//355 119//356 120//353
f 116//357 118//358 120//359
f 120//359 113//360 116//357
o Solid_15
v -2.6645352591003757e-15 15.399999618530273 3
v -2.6645352591003757e-15 15.600000381469727 3
v -10.699999809265137 15.600000381469727 3
v -10.699999809265137 15.399999618530273 3
v -2.6645352591003757e-15 15.600000381469727 0
v -10.699999809265137 15.600000381469727 0
v -2.6645352591003757e-15 15.399999618530273 0
v -10.699999809265137 15.399999618530273 0
vn 0 0 1
vn 0 0 1
vn 0 0 1
vn 0 0 1
vn 0 1 0
vn 0 1 0
vn 0 1 0
vn 0 1 0
vn 1 0 0
vn 1 0 0
vn 1 0 0
vn 1 0 0
vn 0 -1 0
vn 0 -1 0
vn 0 -1 0
vn 0 -1 0
vn 0 0 -1
vn 0 0 -1
vn 0 0 -1
vn 0 0 -1
vn -1 0 0
vn -1 0 0
vn -1 0 0
vn -1 0 0
f 121//361 122//362 123//363
f 123//363 124//364 121//361
f 125//365 126//366 123//367
f 123//367 122//368 125//365
f 127//369 125//370 122//371
f 122//371 121//372 127//369
f 128//373 127//374 121//375
f 121//375 124//376 128//373
f 127//377 128//378 126//379
f 126//379 125//380 127//377
f 123//381 126//382 128//383
f 128//383 124//384 123//381
o Solid_16
v 9.992007221626409e-16 15.399999618530273 3
v -0.20000000298023224 15.399999618530273 3
v -0.20000000298023224 0.20000000298023224 3
v -8.881784197001252e-16 0.20000000298023224 3
v -0.20000000298023224 15.399999618530273 1.1102230246251565e-16
v -0.20000000298023224 0.20000000298023224 1.1102230246251565e-16
v 9.992007221626409e-16 15.399999618530273 1.1102230246251565e-16
v -8.881784197001252e-16 0.20000000298023224 1.1102230246251565e-16
vn 0 0 1
vn 0 0 1
vn 0 0 1
vn 0 0 1
vn -1 2.220446049250313e-16 0
vn -1 2.220446049250313e-16 0
vn -1 2.220446049250313e-16 0
vn -1 2.220446049250313e-16 0
vn 2.220446049250313e-16 1 0
vn 2.220446049250313e-16 1 0
vn 2.220446049250313e-16 1 0
vn 2.220446049250313e-16 1 0
vn 1 -2.220446049250313e-16 0
vn 1 -2.220446049250313e-16 0
vn 1 -2.220446049250313e-16 0
vn 1 -2.220446049250313e-16 0
vn 0 0 -1
vn 0 0 -1
vn 0 0 -1
vn 0 0 -1
vn -2.220446049250313e-16 -1 0
vn -2.220446049250313e-16 -1 0
vn -2.220446049250313e-16 -1 0
vn -2.220446049250313e-16 -1 0
f 129//385 130//386 131//387
f 131//387 132//388 129//385
f 133//389 134//390 131//391
f 131//391 130//392 133//389
f 135//393 133//394 130//395
f 130//395 129//396 135//393
f 136//397 135//398 129//399
f 129//399 132//400 136//397
f 135//401 136//402 134//403
f 134//403 133//404 135//401
f 131//405 134//406 136//407
f 136//407 132//408 131//405
o Solid_17
v -7.5 11.899999618530273 0
v -7.5 11.699999809265137 0
v -8.649999618530273 11.699999809265137 0
v -8.649999618530273 11.899999618530273 0
v -7.5 11.899999618530273 3
v -7.5 11.699999809265137 3
v -10.699999809265137 11.899999618530273 3
v -10.699999809265137 11.699999809265137 3
v -10.699999809265137 11.899999618530273 0
v -10.699999809265137 11.699999809265137 0
v -9.649999618530273 11.899999618530273 0
v -9.649999618530273 11.699999809265137 0
v -9.649999618530273 11.899999618530273 2
v -8.649999618530273 11.899999618530273 2
v -8.649999618530273 11.699999809265137 2
v -9.649999618530273 11.699999809265137 2
vn 0 0 -1
vn 0 0 -1
vn 0 0 -1
vn 0 0 -1
vn 1 0 0
vn 1 0 0
vn 1 0 0
vn 1 0 0
vn 0 0 1
vn 0 0 1
vn 0 0 1
vn 0 0 1
vn -1 0 0
vn -1 0 0
vn -1 0 0
vn -1 0 0
vn 0 0 -1
vn 0 0 -1
vn 0 0 -1
vn 0 0 -1
vn 0 1 0
vn 0 1 0
vn 0 1 0
vn 0 1 0
vn 0 1 0
vn 0 1 0
vn 0 1 0
vn 0 1 0
vn 0 -1 0
vn 0 -1 0
vn 0 -1 0
vn 0 -1 0
vn 0 -1 0
vn 0 -1 0
vn 0 -1 0
vn 0 -1 0
vn 0 0 -1
vn 0 0 -1
vn 0 0 -1
vn 0 0 -1
vn -1 2.220446049250313e-16 0
vn -1 2.220446049250313e-16 0
vn -1 2.220446049250313e-16 0
vn -1 2.220446049250313e-16 0
vn 1 -2.220446049250313e-16 0
vn 1 -2.220446049250313e-16 0
vn 1 -2.220446049250313e-16 0
vn 1 -2.220446049250313e-16 0
f 137//409 138//410 139//411
f 139//411 140//412 137//409
f 138//413 137//414 141//415
f 141//415 142//416 138//413
f 142//417 141//418 143//419
f 143//419 144//420 142//417
f 143//421 145//422 146//423
f 146//423 144//424 143//421
f 146//425 145//426 147//427
f 147//427 148//428 146//425
f 145//429 143//430 149//431
f 143//430 141//432 150//433
f 150//433 149//431 143//430
f 137//434 140//435 150//433
f 150//433 141//432 137//434
f 149//431 147//436 145//429
f 138//437 142//438 151//439
f 144//440 152//441 151//439
f 151//439 142//438 144//440
f 146//442 148//443 152//441
f 152//441 144//440 146//442
f 151//439 139//444 138//437
f 152//445 149//446 150//447
f 150//447 151//448 152//445
f 151//449 150//450 140//451
f 140//451 139//452 151//449
f 148//453 147//454 149//455
f 149//455 152//456 148//453
o Solid_18
v -7.5 15.399999618530273 3
v -7.5 11.699999809265137 3
v -7.300000190734863 11.699999809265137 3
v -7.300000190734863 15.399999618530273 3
v -7.5 15.399999618530273 0
v -7.5 11.699999809265137 0
v -7.300000190734863 15.399999618530273 0
v -7.300000190734863 11.699999809265137 0
vn 0 0 1
vn 0 0 1
vn 0 0 1
vn 0 0 1
vn -1 2.220446049250313e-16 0
vn -1 2.220446049250313e-16 0
vn -1 2.220446049250313e-16 0
vn -1 2.220446049250313e-16 0
vn 2.220446049250313e-16 1 0
vn 2.220446049250313e-16 1 0
vn 2.220446049250313e-16 1 0
vn 2.220446049250313e-16 1 0
vn 1 -2.220446049250313e-16 0
vn 1 -2.220446049250313e-16 0
vn 1 -2.220446049250313e-16 0
vn 1 -2.220446049250313e-16 0
vn 0 0 -1
vn 0 0 -1
vn 0 0 -1
vn 0 0 -1
vn -2.220446049250313e-16 -1 0
vn -2.220446049250313e-16 -1 0
vn -2.220446049250313e-16 -1 0
vn -2.220446049250313e-16 -1 0
f 153//457 154//458 155//459
f 155//459 156//460 153//457
f 157//461 158//462 154//463
f 154//463 153//464 157//461
f 159//465 157//466 153//467
f 153//467 156//468 159//465
f 160//469 159//470 156//471
f 156//471 155//472 160//469
f 160//473 158//474 157//475
f 157//475 159//476 160//473
f 154//477 158//478 160//479
f 160//479 155//480 154//477
o Solid_19
v -2.6645352591003757e-15 20.299999237060547 3
v -2.6645352591003757e-15 20.5 3
v -10.699999809265137 20.5 3
v -10.699999809265137 20.299999237060547 3
v -2.6645352591003757e-15 20.5 0
v -10.699999809265137 20.5 0
v -2.6645352591003757e-15 20.299999237060547 0
v -10.699999809265137 20.299999237060547 0
vn 0 0 1
vn 0 0 1
vn 0 0 1
vn 0 0 1
vn 0 1 0
vn 0 1 0
vn 0 1 0
vn 0 1 0
vn 1 0 0
vn 1 0 0
vn 1 0 0
vn 1 0 0
vn 0 -1 0
vn 0 -1 0
vn 0 -1 0
vn 0 -1 0
vn 0 0 -1
vn 0 0 -1
vn 0 0 -1
vn 0 0 -1
vn -1 0 0
vn -1 0 0
vn -1 0 0
vn -1 0 0
f 161//481 162//482 163//483
f 163//483 164//484 161//481
f 165//485 166//486 163//487
f 163//487 162//488 165//485
f 167//489 165//490 162//491
f 162//491 161//492 167//489
f 168//493 167//494 161//495
f 161//495 164//496 168//493
f 167//497 168//498 166//499
f 166//499 165//500 167//497
f 163//501 166//502 168//503
f 168//503 164//504 163//501
o Solid_20
v 0 15.600000381469727 0
v -0.20000000298023224 15.600000381469727 0
v -0.20000000298023224 17.5 0
v 6.938893903907228e-16 17.5 0
v -0.20000000298023224 15.600000381469727 3
v 0 15.600000381469727 3
v -0.20000000298023224 20.299999237060547 3
v 1.3322676295501878e-15 20.299999237060547 3
v 1.3322676295501878e-15 20.299999237060547 0
v -0.20000000298023224 20.299999237060547 0
v 9.325872983334841e-16 18.5 0
v -0.20000000298023224 18.5 0
v -0.20000000298023224 17.5 2
v -0.20000000298023224 18.5 2
v 8.881784197001252e-16 18.5 2
v 6.661338147750939e-16 17.5 2
vn 0 0 -1
vn 0 0 -1
vn 0 0 -1
vn 0 0 -1
vn -2.220446049250313e-16 -1 0
vn -2.220446049250313e-16 -1 0
vn -2.220446049250313e-16 -1 0
vn -2.220446049250313e-16 -1 0
vn 0 0 1
vn 0 0 1
vn 0 0 1
vn 0 0 1
vn 2.220446049250313e-16 1 0
vn 2.220446049250313e-16 1 0
vn 2.220446049250313e-16 1 0
vn 2.220446049250313e-16 1 0
vn 0 0 -1
vn 0 0 -1
vn 0 0 -1
vn 0 0 -1
vn -1 2.220446049250313e-16 0
vn -1 2.220446049250313e-16 0
vn -1 2.220446049250313e-16 0
vn -1 2.220446049250313e-16 0
vn -1 2.220446049250313e-16 0
vn -1 2.220446049250313e-16 0
vn -1 2.220446049250313e-16 0
vn -1 2.220446049250313e-16 0
vn 1 -2.220446049250313e-16 0
vn 1 -2.220446049250313e-16 0
vn 1 -2.220446049250313e-16 0
vn 1 -2.220446049250313e-16 0
vn 1 -2.220446049250313e-16 0
vn 1 -2.220446049250313e-16 0
vn 1 -2.220446049250313e-16 0
vn 1 -2.220446049250313e-16 0
vn 0 0 -1
vn 0 0 -1
vn 0 0 -1
vn 0 0 -1
vn 0 1 0
vn 0 1 0
vn 0 1 0
vn 0 1 0
vn 0 -1 0
vn 0 -1 0
vn 0 -1 0
vn 0 -1 0
f 169//505 170//506 171//507
f 171//507 172//508 169//505
f 173//509 170//510 169//511
f 169//511 174//512 173//509
f 175//513 173//514 174//515
f 174//515 176//516 175//513
f 177//517 178//518 175//519
f 175//519 176//520 177//517
f 178//521 177//522 179//523
f 179//523 180//524 178//521
f 170//525 173//526 181//527
f 175//528 182//529 181//527
f 181//527 173//526 175//528
f 178//530 180//531 182//529
f 182//529 175//528 178//530
f 181//527 171//532 170//525
f 177//533 176//534 183//535
f 176//534 174//536 184//537
f 184//537 183//535 176//534
f 169//538 172//539 184//537
f 184//537 174//536 169//538
f 183//535 179//540 177//533
f 184//541 181//542 182//543
f 182//543 183//544 184//541
f 172//545 171//546 181//547
f 181//547 184//548 172//545
f 183//549 182//550 180//551
f 180//551 179//552 183//549
o Solid_24
v -15.5 11.699999809265137 0
v -15.300000190734863 11.699999809265137 0
v -15.300000190734863 3.299999952316284 0
v -15.5 3.299999952316284 0
v -15.5 11.699999809265137 3
v -15.300000190734863 11.699999809265137 3
v -15.300000190734863 0.20000000298023224 3
v -15.5 0.20000000298023224 3
v -15.5 0.20000000298023224 0
v -15.300000190734863 0.20000000298023224 0
v -15.300000190734863 2.299999952316284 0
v -15.5 2.299999952316284 0
v -15.5 2.299999952316284 2
v -15.5 3.299999952316284 2
v -15.300000190734863 3.299999952316284 2
v -15.300000190734863 2.299999952316284 2
vn 0 0 -1
vn 0 0 -1
vn 0 0 -1
vn 0 0 -1
vn 2.220446049250313e-16 1 0
vn 2.220446049250313e-16 1 0
vn 2.220446049250313e-16 1 0
vn 2.220446049250313e-16 1 0
vn 0 0 1
vn 0 0 1
vn 0 0 1
vn 0 0 1
vn -2.220446049250313e-16 -1 0
vn -2.220446049250313e-16 -1 0
vn -2.220446049250313e-16 -1 0
vn -2.220446049250313e-16 -1 0
vn 0 0 -1
vn 0 0 -1
vn 0 0 -1
vn 0 0 -1
vn -1 2.220446049250313e-16 0
vn -1 2.220446049250313e-16 0
vn -1 2.220446049250313e-16 0
vn -1 2.220446049250313e-16 0
vn -1 2.220446049250313e-16 0
vn -1 2.220446049250313e-16 0
vn -1 2.220446049250313e-16 0
vn -1 2.220446049250313e-16 0
vn 1 -2.220446049250313e-16 0
vn 1 -2.220446049250313e-16 0
vn 1 -2.220446049250313e-16 0
vn 1 -2.220446049250313e-16 0
vn 1 -2.220446049250313e-16 0
vn 1 -2.220446049250313e-16 0
vn 1 -2.220446049250313e-16 0
vn 1 -2.220446049250313e-16 0
vn 0 0 -1
vn 0 0 -1
vn 0 0 -1
vn 0 0 -1
vn -4.440892098500626e-16 -1 0
vn -4.440892098500626e-16 -1 0
vn -4.440892098500626e-16 -1 0
vn -4.440892098500626e-16 -1 0
vn 4.440892098500626e-16 1 0
vn 4.440892098500626e-16 1 0
vn 4.440892098500626e-16 1 0
vn 4.440892098500626e-16 1 0
f 185//553 186//554 187//555
f 187//555 188//556 185//553
f 186//557 185//558 189//559
f 189//559 190//560 186//557
f 191//561 190//562 189//563
f 189//563 192//564 191//561
f 192//565 193//566 194//567
f 194//567 191//568 192//565
f 195//569 194//570 193//571
f 193//571 196//572 195//569
f 193//573 192//574 197//575
f 192//574 189//576 198//577
f 198//577 197//575 192//574
f 185//578 188//579 198//577
f 198//577 189//576 185//578
f 197//575 196//580 193//573
f 186//581 190//582 199//583
f 191//584 200//585 199//583
f 199//583 190//582 191//584
f 194//586 195//587 200//585
f 200//585 191//584 194//586
f 199//583 187//588 186//581
f 197//589 198//590 199//591
f 199//591 200//592 197//589
f 199//593 198//594 188//595
f 188//595 187//596 199//593
f 195//597 196//598 197//599
f 197//599 200//600 195//597
o Solid_25
v -15.5 36.400001525878906 3
v -15.5 25.899999618530273 3
v -15.300000190734863 25.899999618530273 3
v -15.300000190734863 36.400001525878906 3
v -15.5 36.400001525878906 0
v -15.5 25.899999618530273 0
v -15.300000190734863 36.400001525878906 0
v -15.300000190734863 25.899999618530273 0
vn 0 0 1
vn 0 0 1
vn 0 0 1
vn 0 0 1
vn -1 2.220446049250313e-16 0
vn -1 2.220446049250313e-16 0
vn -1 2.220446049250313e-16 0
vn -1 2.220446049250313e-16 0
vn 2.220446049250313e-16 1 0
vn 2.220446049250313e-16 1 0
vn 2.220446049250313e-16 1 0
vn 2.220446049250313e-16 1 0
vn 1 -2.220446049250313e-16 0
vn 1 -2.220446049250313e-16 0
vn 1 -2.220446049250313e-16 0
vn 1 -2.220446049250313e-16 0
vn 0 0 -1
vn 0 0 -1
vn 0 0 -1
vn 0 0 -1
vn -2.220446049250313e-16 -1 0
vn -2.220446049250313e-16 -1 0
vn -2.220446049250313e-16 -1 0
vn -2.220446049250313e-16 -1 0
f 201//601 202//602 203//603
f 203//603 204//604 201//601
f 205//605 206//606 202//607
f 202//607 201//608 205//605
f 207//609 205//610 201//611
f 201//611 204//612 207//609
f 208//613 207//614 204//615
f 204//615 203//616 208//613
f 208//617 206//618 205//619
f 205//619 207//620 208//617
f 202//621 206//622 208//623
f 208//623 203//624 202//621
o Solid_27
v -10.899999618530273 6.099999904632568 0
v -10.899999618530273 5.900000095367432 0
v -12.649999618530273 5.900000095367432 0
v -12.649999618530273 6.099999904632568 0
v -10.899999618530273 6.099999904632568 3
v -10.899999618530273 5.900000095367432 3
v -15.300000190734863 6.099999904632568 3
v -15.300000190734863 5.900000095367432 3
v -15.300000190734863 6.099999904632568 0
v -15.300000190734863 5.900000095367432 0
v -13.649999618530273 6.099999904632568 0
v -13.649999618530273 5.900000095367432 0
v -13.649999618530273 6.099999904632568 2
v -12.649999618530273 6.099999904632568 2
v -12.649999618530273 5.900000095367432 2
v -13.649999618530273 5.900000095367432 2
vn 0 0 -1
vn 0 0 -1
vn 0 0 -1
vn 0 0 -1
vn 1 0 0
vn 1 0 0
vn 1 0 0
vn 1 0 0
vn 0 0 1
vn 0 0 1
vn 0 0 1
vn 0 0 1
vn -1 0 0
vn -1 0 0
vn -1 0 0
vn -1 0 0
vn 0 0 -1
vn 0 0 -1
vn 0 0 -1
vn 0 0 -1
vn 0 1 0
vn 0 1 0
vn 0 1 0
vn 0 1 0
vn 0 1 0
vn 0 1 0
vn 0 1 0
vn 0 1 0
vn 0 -1 0
vn 0 -1 0
vn 0 -1 0
vn 0 -1 0
vn 0 -1 0
vn 0 -1 0
vn 0 -1 0
vn 0 -1 0
vn 0 0 -1
vn 0 0 -1
vn 0 0 -1
vn 0 0 -1
vn -1 2.220446049250313e-16 0
vn -1 2.220446049250313e-16 0
vn -1 2.220446049250313e-16 0
vn -1 2.220446049250313e-16 0
vn 1 -2.220446049250313e-16 0
vn 1 -2.220446049250313e-16 0
vn 1 -2.220446049250313e-16 0
vn 1 -2.220446049250313e-16 0
f 209//625 210//626 211//627
f 211//627 212//628 209//625
f 210//629 209//630 213//631
f 213//631 214//632 210//629
f 214//633 213//634 215//635
f 215//635 216//636 214//633
f 215//637 217//638 218//639
f 218//639 216//640 215//637
f 218//641 217//642 219//643
f 219//643 220//644 218//641
f 217//645 215//646 221//647
f 215//646 213//648 222//649
f 222//649 221//647 215//646
f 209//650 212//651 222//649
f 222//649 213//648 209//650
f 221//647 219//652 217//645
f 210//653 214//654 223//655
f 216//656 224//657 223//655
f 223//655 214//654 216//656
f 218//658 220//659 224//657
f 224//657 216//656 218//658
f 223//655 211//660 210//653
f 224//661 221//662 222//663
f 222//663 223//664 224//661
f 223//665 222//666 212//667
f 212//667 211//668 223//665
f 220//669 219//670 221//671
f 221//671 224//672 220//669
